<svg xmlns="http://www.w3.org/2000/svg" xmlns:xlink="http://www.w3.org/1999/xlink" width="500" zoomAndPan="magnify" viewBox="0 0 375 374.999991" height="500" preserveAspectRatio="xMidYMid meet" version="1.0"><defs><g/><clipPath id="51d22a4968"><path d="M 65.851562 173.234375 L 95.5625 173.234375 L 95.5625 202.945312 L 65.851562 202.945312 Z M 65.851562 173.234375 " clip-rule="nonzero"/></clipPath><clipPath id="b8a2814859"><path d="M 80.78125 173.234375 C 72.535156 173.234375 65.851562 179.917969 65.851562 188.164062 C 65.851562 196.410156 72.535156 203.09375 80.78125 203.09375 C 89.027344 203.09375 95.710938 196.410156 95.710938 188.164062 C 95.710938 179.917969 89.027344 173.234375 80.78125 173.234375 Z M 80.78125 173.234375 " clip-rule="nonzero"/></clipPath><clipPath id="1bf284b2b9"><path d="M 29.125 136.804688 L 73.792969 136.804688 L 73.792969 181.476562 L 29.125 181.476562 Z M 29.125 136.804688 " clip-rule="nonzero"/></clipPath><clipPath id="a0500c71b8"><path d="M 51.460938 136.804688 C 39.125 136.804688 29.125 146.804688 29.125 159.140625 C 29.125 171.476562 39.125 181.476562 51.460938 181.476562 C 63.792969 181.476562 73.792969 171.476562 73.792969 159.140625 C 73.792969 146.804688 63.792969 136.804688 51.460938 136.804688 Z M 51.460938 136.804688 " clip-rule="nonzero"/></clipPath><clipPath id="7dfee5e0df"><path d="M 88 136.804688 L 132.671875 136.804688 L 132.671875 181.476562 L 88 181.476562 Z M 88 136.804688 " clip-rule="nonzero"/></clipPath><clipPath id="6f9ae97be9"><path d="M 110.335938 136.804688 C 98 136.804688 88 146.804688 88 159.140625 C 88 171.476562 98 181.476562 110.335938 181.476562 C 122.671875 181.476562 132.671875 171.476562 132.671875 159.140625 C 132.671875 146.804688 122.671875 136.804688 110.335938 136.804688 Z M 110.335938 136.804688 " clip-rule="nonzero"/></clipPath><clipPath id="6c9ecbb7fb"><path d="M 29.125 193.519531 L 73.792969 193.519531 L 73.792969 238.191406 L 29.125 238.191406 Z M 29.125 193.519531 " clip-rule="nonzero"/></clipPath><clipPath id="3307f92e00"><path d="M 51.460938 193.519531 C 39.125 193.519531 29.125 203.519531 29.125 215.855469 C 29.125 228.191406 39.125 238.191406 51.460938 238.191406 C 63.792969 238.191406 73.792969 228.191406 73.792969 215.855469 C 73.792969 203.519531 63.792969 193.519531 51.460938 193.519531 Z M 51.460938 193.519531 " clip-rule="nonzero"/></clipPath><clipPath id="e83cafc082"><path d="M 88 193.519531 L 132.671875 193.519531 L 132.671875 238.191406 L 88 238.191406 Z M 88 193.519531 " clip-rule="nonzero"/></clipPath><clipPath id="cff3b093d2"><path d="M 110.335938 193.519531 C 98 193.519531 88 203.519531 88 215.855469 C 88 228.191406 98 238.191406 110.335938 238.191406 C 122.671875 238.191406 132.671875 228.191406 132.671875 215.855469 C 132.671875 203.519531 122.671875 193.519531 110.335938 193.519531 Z M 110.335938 193.519531 " clip-rule="nonzero"/></clipPath><clipPath id="0db9d3f330"><path d="M 73.5625 180.28125 L 88.136719 180.28125 L 88.136719 194.855469 L 73.5625 194.855469 Z M 73.5625 180.28125 " clip-rule="nonzero"/></clipPath><clipPath id="d505fb170c"><path d="M 27.921875 182.042969 L 69 182.042969 L 69 192.957031 L 27.921875 192.957031 Z M 27.921875 182.042969 " clip-rule="nonzero"/></clipPath><clipPath id="c0d6586aa4"><path d="M 33.382812 182.042969 L 63.546875 182.042969 C 64.996094 182.042969 66.382812 182.617188 67.40625 183.640625 C 68.433594 184.664062 69.007812 186.050781 69.007812 187.5 C 69.007812 188.949219 68.433594 190.335938 67.40625 191.359375 C 66.382812 192.382812 64.996094 192.957031 63.546875 192.957031 L 33.382812 192.957031 C 31.933594 192.957031 30.546875 192.382812 29.523438 191.359375 C 28.5 190.335938 27.921875 188.949219 27.921875 187.5 C 27.921875 186.050781 28.5 184.664062 29.523438 183.640625 C 30.546875 182.617188 31.933594 182.042969 33.382812 182.042969 Z M 33.382812 182.042969 " clip-rule="nonzero"/></clipPath><clipPath id="7d7db7aea1"><path d="M 51.460938 182.042969 L 67.757812 182.042969 L 67.757812 192.957031 L 51.460938 192.957031 Z M 51.460938 182.042969 " clip-rule="nonzero"/></clipPath><clipPath id="9d4a334c44"><path d="M 92.28125 182.039062 L 132.667969 182.039062 L 132.667969 192.953125 L 92.28125 192.953125 Z M 92.28125 182.039062 " clip-rule="nonzero"/></clipPath><clipPath id="07de945ded"><path d="M 127.210938 192.953125 L 97.761719 192.953125 C 96.3125 192.953125 94.925781 192.378906 93.898438 191.355469 C 92.875 190.332031 92.300781 188.945312 92.300781 187.496094 C 92.300781 186.046875 92.875 184.660156 93.898438 183.636719 C 94.925781 182.613281 96.3125 182.039062 97.761719 182.039062 L 127.210938 182.039062 C 128.65625 182.039062 130.046875 182.613281 131.070312 183.636719 C 132.09375 184.660156 132.667969 186.046875 132.667969 187.496094 C 132.667969 188.945312 132.09375 190.332031 131.070312 191.355469 C 130.046875 192.378906 128.65625 192.953125 127.210938 192.953125 Z M 127.210938 192.953125 " clip-rule="nonzero"/></clipPath><clipPath id="dc08a84a19"><path d="M 93.535156 182.039062 L 109.546875 182.039062 L 109.546875 192.953125 L 93.535156 192.953125 Z M 93.535156 182.039062 " clip-rule="nonzero"/></clipPath><clipPath id="79e61c5f32"><path d="M 75.324219 199.722656 L 86.242188 199.722656 L 86.242188 238.191406 L 75.324219 238.191406 Z M 75.324219 199.722656 " clip-rule="nonzero"/></clipPath><clipPath id="0e1673c36c"><path d="M 75.324219 232.730469 L 75.324219 205.203125 C 75.324219 203.753906 75.898438 202.367188 76.921875 201.34375 C 77.945312 200.320312 79.332031 199.746094 80.78125 199.746094 C 82.230469 199.746094 83.617188 200.320312 84.640625 201.34375 C 85.664062 202.367188 86.242188 203.753906 86.242188 205.203125 L 86.242188 232.730469 C 86.242188 234.179688 85.664062 235.566406 84.640625 236.589844 C 83.617188 237.617188 82.230469 238.191406 80.78125 238.191406 C 79.332031 238.191406 77.945312 237.617188 76.921875 236.589844 C 75.898438 235.566406 75.324219 234.179688 75.324219 232.730469 Z M 75.324219 232.730469 " clip-rule="nonzero"/></clipPath><clipPath id="65f0b4b7fd"><path d="M 75.324219 200.914062 L 86.242188 200.914062 L 86.242188 216.164062 L 75.324219 216.164062 Z M 75.324219 200.914062 " clip-rule="nonzero"/></clipPath><clipPath id="0460142503"><path d="M 75.320312 138.351562 L 86.238281 138.351562 L 86.238281 176.820312 L 75.320312 176.820312 Z M 75.320312 138.351562 " clip-rule="nonzero"/></clipPath><clipPath id="da200a69f6"><path d="M 86.238281 143.8125 L 86.238281 171.339844 C 86.238281 172.789062 85.660156 174.175781 84.636719 175.199219 C 83.613281 176.222656 82.226562 176.796875 80.777344 176.796875 C 79.332031 176.796875 77.941406 176.222656 76.917969 175.199219 C 75.894531 174.175781 75.320312 172.789062 75.320312 171.339844 L 75.320312 143.8125 C 75.320312 142.363281 75.894531 140.976562 76.917969 139.953125 C 77.941406 138.929688 79.332031 138.351562 80.777344 138.351562 C 82.226562 138.351562 83.613281 138.929688 84.636719 139.953125 C 85.660156 140.976562 86.238281 142.363281 86.238281 143.8125 Z M 86.238281 143.8125 " clip-rule="nonzero"/></clipPath><clipPath id="2c70ca0573"><path d="M 75.320312 160.378906 L 86.238281 160.378906 L 86.238281 175.628906 L 75.320312 175.628906 Z M 75.320312 160.378906 " clip-rule="nonzero"/></clipPath><clipPath id="7c608cb29b"><path d="M 41 214 L 53 214 L 53 226.535156 L 41 226.535156 Z M 41 214 " clip-rule="nonzero"/></clipPath><clipPath id="6fea62fb5c"><path d="M 49 205.234375 L 62 205.234375 L 62 218 L 49 218 Z M 49 205.234375 " clip-rule="nonzero"/></clipPath><clipPath id="5ae2ea6c34"><path d="M 51 215 L 62 215 L 62 226.535156 L 51 226.535156 Z M 51 215 " clip-rule="nonzero"/></clipPath><clipPath id="85632f9ba0"><path d="M 41 205.234375 L 52 205.234375 L 52 217 L 41 217 Z M 41 205.234375 " clip-rule="nonzero"/></clipPath><clipPath id="e56749ca73"><path d="M 95.277344 147.910156 L 125.546875 147.910156 L 125.546875 166.96875 L 95.277344 166.96875 Z M 95.277344 147.910156 " clip-rule="nonzero"/></clipPath><clipPath id="ddf168c803"><path d="M 53 156 L 65.730469 156 L 65.730469 168.460938 L 53 168.460938 Z M 53 156 " clip-rule="nonzero"/></clipPath><clipPath id="d28687e82f"><path d="M 37.140625 156 L 49 156 L 49 168.460938 L 37.140625 168.460938 Z M 37.140625 156 " clip-rule="nonzero"/></clipPath><clipPath id="f5a5a85dc0"><path d="M 52 149.960938 L 61 149.960938 L 61 164 L 52 164 Z M 52 149.960938 " clip-rule="nonzero"/></clipPath><clipPath id="9a4835dd1b"><path d="M 97.757812 203.277344 L 122.984375 203.277344 L 122.984375 228.503906 L 97.757812 228.503906 Z M 97.757812 203.277344 " clip-rule="nonzero"/></clipPath></defs><rect x="-37.5" width="450" fill="#ffffff" y="-37.499999" height="449.999989" fill-opacity="1"/><rect x="-37.5" width="450" fill="#ffffff" y="-37.499999" height="449.999989" fill-opacity="1"/><g clip-path="url(#51d22a4968)"><g clip-path="url(#b8a2814859)"><path stroke-linecap="butt" transform="matrix(0.560576, 0, 0, 0.560576, 65.851164, 173.235106)" fill="none" stroke-linejoin="miter" d="M 26.633466 -0.00130442 C 11.923433 -0.00130442 0.000710562 11.921418 0.000710562 26.631451 C 0.000710562 41.341484 11.923433 53.264207 26.633466 53.264207 C 41.343499 53.264207 53.266222 41.341484 53.266222 26.631451 C 53.266222 11.921418 41.343499 -0.00130442 26.633466 -0.00130442 Z M 26.633466 -0.00130442 " stroke="#000000" stroke-width="18.730724" stroke-opacity="1" stroke-miterlimit="4"/></g></g><g clip-path="url(#1bf284b2b9)"><g clip-path="url(#a0500c71b8)"><path stroke-linecap="butt" transform="matrix(0.560576, 0, 0, 0.560576, 29.123783, 136.806481)" fill="none" stroke-linejoin="miter" d="M 39.846776 -0.0031987 C 17.840959 -0.0031987 0.00217186 17.835589 0.00217186 39.841405 C 0.00217186 61.847222 17.840959 79.686009 39.846776 79.686009 C 61.845624 79.686009 79.684412 61.847222 79.684412 39.841405 C 79.684412 17.835589 61.845624 -0.0031987 39.846776 -0.0031987 Z M 39.846776 -0.0031987 " stroke="#000000" stroke-width="13.379089" stroke-opacity="1" stroke-miterlimit="4"/></g></g><g clip-path="url(#7dfee5e0df)"><g clip-path="url(#6f9ae97be9)"><path stroke-linecap="butt" transform="matrix(0.560576, 0, 0, 0.560576, 87.999448, 136.806481)" fill="none" stroke-linejoin="miter" d="M 39.84559 -0.0031987 C 17.839773 -0.0031987 0.000985555 17.835589 0.000985555 39.841405 C 0.000985555 61.847222 17.839773 79.686009 39.84559 79.686009 C 61.851406 79.686009 79.690194 61.847222 79.690194 39.841405 C 79.690194 17.835589 61.851406 -0.0031987 39.84559 -0.0031987 Z M 39.84559 -0.0031987 " stroke="#000000" stroke-width="13.379089" stroke-opacity="1" stroke-miterlimit="4"/></g></g><g clip-path="url(#6c9ecbb7fb)"><g clip-path="url(#3307f92e00)"><path stroke-linecap="butt" transform="matrix(0.560576, 0, 0, 0.560576, 29.123783, 193.519206)" fill="none" stroke-linejoin="miter" d="M 39.846776 0.000579328 C 17.840959 0.000579328 0.00217186 17.839367 0.00217186 39.845183 C 0.00217186 61.851 17.840959 79.689787 39.846776 79.689787 C 61.845624 79.689787 79.684412 61.851 79.684412 39.845183 C 79.684412 17.839367 61.845624 0.000579328 39.846776 0.000579328 Z M 39.846776 0.000579328 " stroke="#000000" stroke-width="13.379089" stroke-opacity="1" stroke-miterlimit="4"/></g></g><g clip-path="url(#e83cafc082)"><g clip-path="url(#cff3b093d2)"><path stroke-linecap="butt" transform="matrix(0.560576, 0, 0, 0.560576, 87.999448, 193.519206)" fill="none" stroke-linejoin="miter" d="M 39.84559 0.000579328 C 17.839773 0.000579328 0.000985555 17.839367 0.000985555 39.845183 C 0.000985555 61.851 17.839773 79.689787 39.84559 79.689787 C 61.851406 79.689787 79.690194 61.851 79.690194 39.845183 C 79.690194 17.839367 61.851406 0.000579328 39.84559 0.000579328 Z M 39.84559 0.000579328 " stroke="#000000" stroke-width="13.379089" stroke-opacity="1" stroke-miterlimit="4"/></g></g><g clip-path="url(#0db9d3f330)"><path fill="#000000" d="M 76.886719 184.273438 C 76.886719 184.011719 76.910156 183.753906 76.960938 183.496094 C 77.011719 183.242188 77.089844 182.992188 77.1875 182.75 C 77.289062 182.507812 77.414062 182.277344 77.558594 182.0625 C 77.703125 181.84375 77.867188 181.640625 78.054688 181.457031 C 78.238281 181.273438 78.441406 181.105469 78.65625 180.960938 C 78.875 180.816406 79.105469 180.691406 79.347656 180.59375 C 79.585938 180.492188 79.835938 180.417969 80.09375 180.367188 C 80.351562 180.3125 80.609375 180.289062 80.871094 180.289062 C 86.140625 180.472656 86.148438 188.058594 80.882812 188.261719 C 80.621094 188.261719 80.363281 188.234375 80.105469 188.183594 C 79.847656 188.136719 79.597656 188.058594 79.355469 187.960938 C 79.113281 187.859375 78.882812 187.738281 78.664062 187.59375 C 78.445312 187.445312 78.242188 187.28125 78.058594 187.097656 C 77.871094 186.910156 77.707031 186.710938 77.5625 186.492188 C 77.414062 186.273438 77.292969 186.042969 77.191406 185.800781 C 77.089844 185.558594 77.015625 185.3125 76.960938 185.054688 C 76.910156 184.796875 76.886719 184.535156 76.886719 184.273438 Z M 84.90625 188.261719 C 84.667969 188.117188 84.433594 188.121094 84.203125 188.28125 C 83.722656 188.667969 83.191406 188.964844 82.609375 189.171875 C 82.027344 189.375 81.429688 189.476562 80.808594 189.46875 C 80.191406 189.464844 79.59375 189.359375 79.015625 189.144531 C 78.433594 188.933594 77.90625 188.628906 77.433594 188.230469 C 77.242188 188.144531 77.054688 188.152344 76.875 188.261719 C 75.875 188.925781 75.09375 189.789062 74.527344 190.847656 C 73.960938 191.90625 73.675781 193.035156 73.679688 194.238281 C 73.679688 194.40625 73.738281 194.550781 73.859375 194.671875 C 73.976562 194.789062 74.121094 194.851562 74.292969 194.851562 L 87.46875 194.851562 C 87.640625 194.851562 87.785156 194.789062 87.902344 194.671875 C 88.023438 194.550781 88.082031 194.40625 88.082031 194.238281 C 88.082031 193.039062 87.800781 191.914062 87.238281 190.855469 C 86.675781 189.796875 85.898438 188.933594 84.90625 188.261719 Z M 84.90625 188.261719 " fill-opacity="1" fill-rule="nonzero"/></g><g clip-path="url(#d505fb170c)"><g clip-path="url(#c0d6586aa4)"><path fill="#000000" d="M 27.921875 182.042969 L 68.992188 182.042969 L 68.992188 192.957031 L 27.921875 192.957031 Z M 27.921875 182.042969 " fill-opacity="1" fill-rule="nonzero"/></g></g><g clip-path="url(#7d7db7aea1)"><path fill="#000000" d="M 51.460938 182.042969 L 67.75 182.042969 L 67.75 192.957031 L 51.460938 192.957031 Z M 51.460938 182.042969 " fill-opacity="1" fill-rule="nonzero"/></g><g clip-path="url(#9d4a334c44)"><g clip-path="url(#07de945ded)"><path fill="#000000" d="M 132.667969 192.953125 L 92.28125 192.953125 L 92.28125 182.039062 L 132.667969 182.039062 Z M 132.667969 192.953125 " fill-opacity="1" fill-rule="nonzero"/></g></g><g clip-path="url(#dc08a84a19)"><path fill="#000000" d="M 109.546875 192.953125 L 93.554688 192.953125 L 93.554688 182.039062 L 109.546875 182.039062 Z M 109.546875 192.953125 " fill-opacity="1" fill-rule="nonzero"/></g><g clip-path="url(#79e61c5f32)"><g clip-path="url(#0e1673c36c)"><path fill="#000000" d="M 75.324219 238.191406 L 75.324219 199.722656 L 86.242188 199.722656 L 86.242188 238.191406 Z M 75.324219 238.191406 " fill-opacity="1" fill-rule="nonzero"/></g></g><g clip-path="url(#65f0b4b7fd)"><path fill="#000000" d="M 75.324219 216.164062 L 75.324219 200.898438 L 86.242188 200.898438 L 86.242188 216.164062 Z M 75.324219 216.164062 " fill-opacity="1" fill-rule="nonzero"/></g><g clip-path="url(#0460142503)"><g clip-path="url(#da200a69f6)"><path fill="#000000" d="M 86.238281 138.351562 L 86.238281 176.820312 L 75.320312 176.820312 L 75.320312 138.351562 Z M 86.238281 138.351562 " fill-opacity="1" fill-rule="nonzero"/></g></g><g clip-path="url(#2c70ca0573)"><path fill="#000000" d="M 86.238281 160.378906 L 86.238281 175.644531 L 75.320312 175.644531 L 75.320312 160.378906 Z M 86.238281 160.378906 " fill-opacity="1" fill-rule="nonzero"/></g><g clip-path="url(#7c608cb29b)"><path fill="#000000" d="M 41.933594 225.441406 C 40.871094 224.382812 40.871094 222.667969 41.929688 221.605469 L 48.84375 214.691406 C 49.003906 214.535156 49.261719 214.535156 49.417969 214.691406 L 52.683594 217.957031 C 52.839844 218.113281 52.839844 218.371094 52.683594 218.53125 L 45.769531 225.441406 C 44.707031 226.503906 42.992188 226.503906 41.933594 225.441406 Z M 49.132812 215.554688 L 42.503906 222.179688 C 41.761719 222.921875 41.761719 224.125 42.503906 224.867188 C 43.25 225.613281 44.453125 225.613281 45.195312 224.867188 L 51.820312 218.242188 Z M 49.132812 215.554688 " fill-opacity="1" fill-rule="nonzero"/></g><path fill="#000000" d="M 50.75 219.890625 L 47.484375 216.625 C 47.328125 216.46875 47.328125 216.210938 47.484375 216.050781 C 47.644531 215.894531 47.902344 215.894531 48.058594 216.050781 L 51.324219 219.316406 C 51.480469 219.472656 51.480469 219.730469 51.324219 219.890625 C 51.164062 220.046875 50.90625 220.046875 50.75 219.890625 Z M 50.75 219.890625 " fill-opacity="1" fill-rule="nonzero"/><path fill="#000000" d="M 49.3125 221.324219 L 46.050781 218.0625 C 45.890625 217.902344 45.890625 217.644531 46.050781 217.488281 C 46.207031 217.328125 46.464844 217.328125 46.625 217.488281 L 49.886719 220.75 C 50.046875 220.910156 50.046875 221.164062 49.886719 221.324219 C 49.730469 221.484375 49.472656 221.484375 49.3125 221.324219 Z M 49.3125 221.324219 " fill-opacity="1" fill-rule="nonzero"/><g clip-path="url(#6fea62fb5c)"><path fill="#000000" d="M 51.382812 217.804688 L 49.570312 215.992188 C 49.410156 215.832031 49.410156 215.578125 49.570312 215.417969 L 56.371094 208.617188 L 56.703125 207.621094 C 56.730469 207.539062 56.78125 207.46875 56.851562 207.417969 L 59.390625 205.605469 C 59.550781 205.488281 59.773438 205.507812 59.914062 205.648438 L 61.726562 207.460938 C 61.867188 207.601562 61.882812 207.824219 61.769531 207.984375 L 59.957031 210.523438 C 59.90625 210.59375 59.835938 210.644531 59.753906 210.671875 L 58.757812 211.003906 L 51.957031 217.804688 C 51.796875 217.964844 51.542969 217.964844 51.382812 217.804688 Z M 50.429688 215.703125 L 51.667969 216.945312 L 58.25 210.363281 C 58.296875 210.316406 58.351562 210.285156 58.410156 210.265625 L 59.371094 209.941406 L 60.910156 207.792969 L 59.582031 206.464844 L 57.429688 208.003906 L 57.109375 208.964844 C 57.089844 209.023438 57.058594 209.078125 57.011719 209.125 Z M 50.429688 215.703125 " fill-opacity="1" fill-rule="nonzero"/></g><g clip-path="url(#5ae2ea6c34)"><path fill="#000000" d="M 55.878906 225.214844 C 54.910156 224.242188 54.601562 222.777344 55.082031 221.503906 L 51.382812 217.804688 C 51.222656 217.644531 51.222656 217.390625 51.382812 217.230469 C 51.539062 217.070312 51.796875 217.070312 51.957031 217.230469 L 55.796875 221.074219 C 55.949219 221.222656 55.988281 221.453125 55.902344 221.644531 C 55.449219 222.652344 55.667969 223.855469 56.453125 224.640625 C 57.109375 225.296875 58.054688 225.558594 58.9375 225.359375 L 57.699219 224.121094 C 57.539062 223.960938 57.539062 223.707031 57.699219 223.546875 L 59.152344 222.089844 C 59.3125 221.933594 59.570312 221.933594 59.726562 222.089844 L 60.96875 223.328125 C 61.164062 222.445312 60.902344 221.503906 60.246094 220.84375 C 59.464844 220.0625 58.257812 219.839844 57.25 220.292969 C 57.058594 220.382812 56.832031 220.339844 56.683594 220.191406 L 52.839844 216.347656 C 52.679688 216.191406 52.679688 215.933594 52.839844 215.773438 C 52.996094 215.617188 53.253906 215.617188 53.414062 215.773438 L 57.109375 219.472656 C 58.382812 218.992188 59.851562 219.300781 60.820312 220.269531 C 61.863281 221.316406 62.140625 222.914062 61.503906 224.25 C 61.382812 224.5 61.046875 224.558594 60.847656 224.359375 L 59.441406 222.953125 L 58.558594 223.835938 L 59.96875 225.242188 C 60.164062 225.441406 60.109375 225.773438 59.855469 225.894531 C 58.515625 226.535156 56.917969 226.253906 55.878906 225.214844 Z M 55.878906 225.214844 " fill-opacity="1" fill-rule="nonzero"/></g><g clip-path="url(#85632f9ba0)"><path fill="#000000" d="M 49.570312 215.992188 L 45.871094 212.292969 C 44.597656 212.773438 43.132812 212.464844 42.160156 211.496094 C 41.117188 210.449219 40.84375 208.851562 41.480469 207.519531 C 41.597656 207.265625 41.933594 207.207031 42.132812 207.40625 L 43.539062 208.816406 L 44.421875 207.933594 L 43.015625 206.523438 C 42.816406 206.328125 42.875 205.992188 43.125 205.871094 C 44.460938 205.234375 46.058594 205.507812 47.101562 206.554688 C 48.074219 207.523438 48.382812 208.992188 47.902344 210.261719 L 51.597656 213.960938 C 51.757812 214.121094 51.757812 214.378906 51.597656 214.535156 C 51.441406 214.695312 51.183594 214.695312 51.023438 214.535156 L 47.183594 210.695312 C 47.035156 210.542969 46.992188 210.316406 47.078125 210.125 C 47.535156 209.117188 47.3125 207.910156 46.527344 207.128906 C 45.871094 206.46875 44.929688 206.210938 44.046875 206.40625 L 45.285156 207.644531 C 45.441406 207.804688 45.441406 208.0625 45.285156 208.21875 L 43.828125 209.675781 C 43.75 209.753906 43.648438 209.796875 43.539062 209.796875 C 43.433594 209.796875 43.328125 209.753906 43.253906 209.675781 L 42.015625 208.4375 C 41.816406 209.320312 42.078125 210.265625 42.734375 210.921875 C 43.519531 211.703125 44.722656 211.925781 45.730469 211.472656 C 45.921875 211.386719 46.152344 211.425781 46.300781 211.574219 L 50.144531 215.417969 C 50.300781 215.578125 50.300781 215.832031 50.144531 215.992188 C 49.984375 216.152344 49.726562 216.152344 49.570312 215.992188 Z M 49.570312 215.992188 " fill-opacity="1" fill-rule="nonzero"/></g><g clip-path="url(#e56749ca73)"><path fill="#000000" d="M 110.414062 147.910156 C 106.929688 147.910156 103.800781 151.722656 101.15625 156.328125 L 96.378906 164.695312 L 96.378906 164.058594 L 95.296875 164.058594 L 95.296875 166.96875 L 96.378906 166.96875 L 96.378906 166.386719 L 101.9375 156.859375 L 108.605469 152.808594 C 109.820312 152.066406 109.898438 151.933594 110.414062 151.933594 C 110.925781 151.933594 111.007812 152.09375 112.21875 152.808594 L 118.886719 156.859375 L 124.445312 166.386719 L 124.445312 166.96875 L 125.527344 166.96875 L 125.527344 164.03125 L 124.445312 164.03125 L 124.445312 164.695312 L 119.640625 156.328125 C 117.023438 151.722656 113.894531 147.910156 110.414062 147.910156 Z M 106.578125 154.953125 L 102.691406 157.28125 L 98.617188 166.441406 L 122.207031 166.441406 L 118.132812 157.28125 L 114.273438 154.953125 L 115.054688 162.390625 C 115.109375 163.027344 114.59375 163.554688 114.027344 163.554688 L 106.847656 163.554688 C 106.28125 163.554688 105.769531 163.027344 105.824219 162.390625 Z M 106.578125 154.953125 " fill-opacity="1" fill-rule="nonzero"/></g><g clip-path="url(#ddf168c803)"><path fill="#000000" d="M 59.859375 157.824219 C 57.277344 157.824219 55.179688 159.941406 55.179688 162.546875 C 55.179688 165.148438 57.277344 167.265625 59.859375 167.265625 C 62.4375 167.265625 64.535156 165.148438 64.535156 162.546875 C 64.535156 159.941406 62.4375 157.824219 59.859375 157.824219 Z M 59.859375 168.460938 C 56.625 168.460938 53.996094 165.808594 53.996094 162.546875 C 53.996094 159.285156 56.625 156.632812 59.859375 156.632812 C 63.089844 156.632812 65.71875 159.285156 65.71875 162.546875 C 65.71875 165.808594 63.089844 168.460938 59.859375 168.460938 " fill-opacity="1" fill-rule="nonzero"/></g><g clip-path="url(#d28687e82f)"><path fill="#000000" d="M 43.015625 157.824219 C 40.433594 157.824219 38.335938 159.941406 38.335938 162.546875 C 38.335938 165.148438 40.433594 167.265625 43.015625 167.265625 C 45.59375 167.265625 47.691406 165.148438 47.691406 162.546875 C 47.691406 159.941406 45.59375 157.824219 43.015625 157.824219 Z M 43.015625 168.460938 C 39.78125 168.460938 37.152344 165.808594 37.152344 162.546875 C 37.152344 159.285156 39.78125 156.628906 43.015625 156.628906 C 46.246094 156.628906 48.875 159.285156 48.875 162.546875 C 48.875 165.808594 46.246094 168.460938 43.015625 168.460938 " fill-opacity="1" fill-rule="nonzero"/></g><g clip-path="url(#f5a5a85dc0)"><path fill="#000000" d="M 59.859375 163.144531 C 59.617188 163.144531 59.394531 162.996094 59.304688 162.753906 L 55.015625 151.15625 L 52.734375 151.15625 C 52.410156 151.15625 52.144531 150.886719 52.144531 150.558594 C 52.144531 150.230469 52.410156 149.960938 52.734375 149.960938 L 55.425781 149.960938 C 55.671875 149.960938 55.894531 150.117188 55.980469 150.351562 L 60.414062 162.335938 C 60.527344 162.644531 60.371094 162.988281 60.066406 163.105469 C 59.996094 163.128906 59.925781 163.144531 59.859375 163.144531 " fill-opacity="1" fill-rule="nonzero"/></g><path fill="#000000" d="M 43.988281 161.949219 L 50.828125 161.949219 L 47.300781 155.511719 Z M 51.828125 163.144531 L 43.015625 163.144531 C 42.808594 163.144531 42.617188 163.035156 42.507812 162.855469 C 42.402344 162.675781 42.394531 162.457031 42.488281 162.269531 L 46.757812 153.976562 C 46.757812 153.972656 46.757812 153.972656 46.757812 153.972656 L 47.183594 153.140625 L 46.050781 153.140625 C 45.726562 153.140625 45.460938 152.875 45.460938 152.546875 C 45.460938 152.214844 45.726562 151.949219 46.050781 151.949219 L 48.160156 151.949219 C 48.367188 151.949219 48.558594 152.058594 48.664062 152.234375 C 48.773438 152.414062 48.78125 152.636719 48.683594 152.820312 L 48.257812 153.652344 L 56.390625 153.652344 C 56.714844 153.652344 56.980469 153.917969 56.980469 154.25 C 56.980469 154.578125 56.714844 154.84375 56.390625 154.84375 L 48.285156 154.84375 L 52.347656 162.257812 C 52.449219 162.441406 52.445312 162.667969 52.339844 162.847656 C 52.234375 163.03125 52.039062 163.144531 51.828125 163.144531 " fill-opacity="1" fill-rule="nonzero"/><path fill="#000000" d="M 51.828125 163.144531 C 51.722656 163.144531 51.617188 163.113281 51.523438 163.054688 C 51.242188 162.882812 51.15625 162.515625 51.324219 162.234375 L 56.304688 153.988281 C 56.472656 153.707031 56.835938 153.621094 57.117188 153.789062 C 57.394531 153.960938 57.484375 154.328125 57.3125 154.613281 L 52.335938 162.855469 C 52.222656 163.039062 52.027344 163.144531 51.828125 163.144531 " fill-opacity="1" fill-rule="nonzero"/><path fill="#000000" d="M 53.222656 162.546875 C 53.222656 163.324219 52.597656 163.953125 51.828125 163.953125 C 51.058594 163.953125 50.4375 163.324219 50.4375 162.546875 C 50.4375 161.769531 51.058594 161.140625 51.828125 161.140625 C 52.597656 161.140625 53.222656 161.769531 53.222656 162.546875 " fill-opacity="1" fill-rule="nonzero"/><path fill="#000000" d="M 52.46875 165.546875 L 51.398438 165.546875 C 51.195312 165.546875 51.035156 165.382812 51.035156 165.175781 C 51.035156 164.972656 51.195312 164.808594 51.398438 164.808594 L 51.464844 164.808594 L 51.464844 162.546875 C 51.464844 162.339844 51.628906 162.175781 51.828125 162.175781 C 52.03125 162.175781 52.195312 162.339844 52.195312 162.546875 L 52.195312 164.808594 L 52.46875 164.808594 C 52.671875 164.808594 52.835938 164.972656 52.835938 165.175781 C 52.835938 165.382812 52.671875 165.546875 52.46875 165.546875 " fill-opacity="1" fill-rule="nonzero"/><g clip-path="url(#9a4835dd1b)"><path fill="#000000" d="M 110.371094 228.503906 C 107 228.503906 103.835938 227.191406 101.453125 224.808594 C 99.070312 222.425781 97.757812 219.257812 97.757812 215.890625 C 97.757812 212.519531 99.070312 209.355469 101.453125 206.972656 C 103.835938 204.589844 107 203.277344 110.371094 203.277344 C 113.738281 203.277344 116.90625 204.589844 119.289062 206.972656 C 121.671875 209.355469 122.984375 212.519531 122.984375 215.890625 C 122.984375 219.257812 121.671875 222.425781 119.289062 224.808594 C 116.90625 227.191406 113.738281 228.503906 110.371094 228.503906 Z M 110.371094 204.058594 C 107.210938 204.058594 104.238281 205.289062 102.003906 207.523438 C 99.769531 209.757812 98.539062 212.730469 98.539062 215.890625 C 98.539062 219.050781 99.769531 222.019531 102.003906 224.253906 C 104.238281 226.488281 107.210938 227.71875 110.371094 227.71875 C 113.53125 227.71875 116.5 226.488281 118.734375 224.253906 C 120.96875 222.019531 122.199219 219.050781 122.199219 215.890625 C 122.199219 212.730469 120.96875 209.757812 118.734375 207.523438 C 116.5 205.289062 113.53125 204.058594 110.371094 204.058594 Z M 117.632812 208.625 C 117.503906 208.496094 117.300781 208.472656 117.144531 208.574219 L 108.679688 214.082031 C 108.667969 214.089844 108.65625 214.097656 108.648438 214.105469 C 108.644531 214.105469 108.644531 214.109375 108.644531 214.109375 C 108.636719 214.113281 108.628906 214.121094 108.621094 214.128906 C 108.617188 214.132812 108.613281 214.136719 108.609375 214.140625 C 108.601562 214.148438 108.59375 214.15625 108.589844 214.164062 C 108.585938 214.164062 108.585938 214.164062 108.585938 214.167969 C 108.578125 214.175781 108.570312 214.1875 108.5625 214.199219 L 103.054688 222.664062 C 102.953125 222.820312 102.976562 223.023438 103.105469 223.152344 C 103.183594 223.230469 103.28125 223.269531 103.382812 223.269531 C 103.457031 223.269531 103.53125 223.246094 103.597656 223.207031 L 112.0625 217.695312 C 112.085938 217.683594 112.105469 217.664062 112.125 217.644531 C 112.144531 217.625 112.164062 217.605469 112.175781 217.582031 L 117.6875 209.117188 C 117.785156 208.960938 117.765625 208.757812 117.632812 208.625 Z M 111.785156 216.75 L 109.511719 214.476562 L 116.019531 210.238281 Z M 111.785156 216.75 " fill-opacity="1" fill-rule="nonzero"/></g><g fill="#039be5" fill-opacity="0.4"><g transform="translate(140.328149, 197.014888)"><g><path d="M 13.890625 -15.125 L 13.890625 0 L 7.359375 0 L 7.359375 -15.125 L 0.671875 -15.125 L 0.671875 -20.328125 L 20.53125 -20.328125 L 20.53125 -15.125 Z M 13.890625 -15.125 "/></g></g></g><g fill="#039be5" fill-opacity="0.4"><g transform="translate(159.969233, 197.014888)"><g><path d="M 9.84375 -15.953125 C 12.582031 -15.953125 14.734375 -15.257812 16.296875 -13.875 C 17.859375 -12.488281 18.640625 -10.460938 18.640625 -7.796875 C 18.640625 -5.140625 17.859375 -3.113281 16.296875 -1.71875 C 14.734375 -0.332031 12.582031 0.359375 9.84375 0.359375 C 7.101562 0.359375 4.953125 -0.328125 3.390625 -1.703125 C 1.835938 -3.085938 1.0625 -5.117188 1.0625 -7.796875 C 1.0625 -10.472656 1.835938 -12.5 3.390625 -13.875 C 4.953125 -15.257812 7.101562 -15.953125 9.84375 -15.953125 Z M 9.84375 -11.96875 C 7.90625 -11.96875 6.9375 -10.851562 6.9375 -8.625 L 6.9375 -6.9375 C 6.9375 -4.738281 7.90625 -3.640625 9.84375 -3.640625 C 11.789062 -3.640625 12.765625 -4.738281 12.765625 -6.9375 L 12.765625 -8.625 C 12.765625 -10.851562 11.789062 -11.96875 9.84375 -11.96875 Z M 9.84375 -11.96875 "/></g></g></g><g fill="#039be5" fill-opacity="0.4"><g transform="translate(177.985844, 197.014888)"><g><path d="M 13.125 0 L 12.609375 -2.21875 C 11.472656 -0.5 9.820312 0.359375 7.65625 0.359375 C 5.539062 0.359375 3.910156 -0.328125 2.765625 -1.703125 C 1.628906 -3.085938 1.0625 -5.128906 1.0625 -7.828125 C 1.0625 -10.503906 1.628906 -12.523438 2.765625 -13.890625 C 3.910156 -15.265625 5.539062 -15.953125 7.65625 -15.953125 C 9.445312 -15.953125 10.90625 -15.351562 12.03125 -14.15625 L 12.03125 -21.421875 L 17.90625 -21.421875 L 17.90625 0 Z M 9.484375 -11.609375 C 7.785156 -11.609375 6.9375 -10.59375 6.9375 -8.5625 L 6.9375 -7 C 6.9375 -4.988281 7.785156 -3.984375 9.484375 -3.984375 C 10.347656 -3.984375 10.992188 -4.289062 11.421875 -4.90625 C 11.859375 -5.519531 12.078125 -6.316406 12.078125 -7.296875 L 12.078125 -8.265625 C 12.078125 -9.253906 11.859375 -10.054688 11.421875 -10.671875 C 10.992188 -11.296875 10.347656 -11.609375 9.484375 -11.609375 Z M 9.484375 -11.609375 "/></g></g></g><g fill="#039be5" fill-opacity="0.4"><g transform="translate(196.002454, 197.014888)"><g><path d="M 9.84375 -15.953125 C 12.582031 -15.953125 14.734375 -15.257812 16.296875 -13.875 C 17.859375 -12.488281 18.640625 -10.460938 18.640625 -7.796875 C 18.640625 -5.140625 17.859375 -3.113281 16.296875 -1.71875 C 14.734375 -0.332031 12.582031 0.359375 9.84375 0.359375 C 7.101562 0.359375 4.953125 -0.328125 3.390625 -1.703125 C 1.835938 -3.085938 1.0625 -5.117188 1.0625 -7.796875 C 1.0625 -10.472656 1.835938 -12.5 3.390625 -13.875 C 4.953125 -15.257812 7.101562 -15.953125 9.84375 -15.953125 Z M 9.84375 -11.96875 C 7.90625 -11.96875 6.9375 -10.851562 6.9375 -8.625 L 6.9375 -6.9375 C 6.9375 -4.738281 7.90625 -3.640625 9.84375 -3.640625 C 11.789062 -3.640625 12.765625 -4.738281 12.765625 -6.9375 L 12.765625 -8.625 C 12.765625 -10.851562 11.789062 -11.96875 9.84375 -11.96875 Z M 9.84375 -11.96875 "/></g></g></g><g fill="#039be5" fill-opacity="0.4"><g transform="translate(214.019066, 197.014888)"><g><path d="M 13.59375 -20.328125 C 14.851562 -20.328125 15.972656 -20.035156 16.953125 -19.453125 C 17.941406 -18.867188 18.710938 -18.070312 19.265625 -17.0625 C 19.816406 -16.050781 20.09375 -14.914062 20.09375 -13.65625 L 20.09375 -13.265625 C 20.09375 -12.003906 19.816406 -10.859375 19.265625 -9.828125 C 18.710938 -8.804688 17.941406 -8.003906 16.953125 -7.421875 C 15.972656 -6.847656 14.851562 -6.5625 13.59375 -6.5625 L 8.71875 -6.5625 L 8.71875 0 L 2.1875 0 L 2.1875 -20.328125 Z M 8.71875 -11.3125 L 11.40625 -11.3125 C 12.09375 -11.3125 12.609375 -11.488281 12.953125 -11.84375 C 13.296875 -12.195312 13.46875 -12.679688 13.46875 -13.296875 L 13.46875 -13.53125 C 13.46875 -14.164062 13.296875 -14.65625 12.953125 -15 C 12.609375 -15.34375 12.09375 -15.515625 11.40625 -15.515625 L 8.71875 -15.515625 Z M 8.71875 -11.3125 "/></g></g></g><g fill="#039be5" fill-opacity="0.4"><g transform="translate(233.660151, 197.014888)"><g><path d="M 11.25 -15.984375 C 11.707031 -15.984375 12.113281 -15.925781 12.46875 -15.8125 C 12.820312 -15.707031 13 -15.644531 13 -15.625 L 13 -10.703125 L 11.109375 -10.703125 C 9.890625 -10.703125 9.007812 -10.382812 8.46875 -9.75 C 7.925781 -9.125 7.65625 -8.1875 7.65625 -6.9375 L 7.65625 0 L 1.765625 0 L 1.765625 -15.59375 L 6.59375 -15.59375 L 6.96875 -13.234375 C 7.320312 -14.140625 7.882812 -14.820312 8.65625 -15.28125 C 9.425781 -15.75 10.289062 -15.984375 11.25 -15.984375 Z M 11.25 -15.984375 "/></g></g></g><g fill="#039be5" fill-opacity="0.4"><g transform="translate(245.090253, 197.014888)"><g><path d="M 9.84375 -15.953125 C 12.695312 -15.953125 14.875 -15.28125 16.375 -13.9375 C 17.882812 -12.601562 18.640625 -10.554688 18.640625 -7.796875 L 18.640625 -6.796875 L 6.9375 -6.796875 C 6.9375 -5.671875 7.1875 -4.820312 7.6875 -4.25 C 8.195312 -3.675781 8.992188 -3.390625 10.078125 -3.390625 C 11.054688 -3.390625 11.773438 -3.597656 12.234375 -4.015625 C 12.703125 -4.429688 12.9375 -4.984375 12.9375 -5.671875 L 18.640625 -5.671875 C 18.640625 -3.785156 17.921875 -2.304688 16.484375 -1.234375 C 15.046875 -0.171875 12.945312 0.359375 10.1875 0.359375 C 7.289062 0.359375 5.046875 -0.3125 3.453125 -1.65625 C 1.859375 -3.007812 1.0625 -5.054688 1.0625 -7.796875 C 1.0625 -10.472656 1.835938 -12.5 3.390625 -13.875 C 4.953125 -15.257812 7.101562 -15.953125 9.84375 -15.953125 Z M 10.078125 -12.203125 C 8.222656 -12.203125 7.1875 -11.328125 6.96875 -9.578125 L 12.703125 -9.578125 C 12.703125 -10.378906 12.46875 -11.015625 12 -11.484375 C 11.539062 -11.960938 10.898438 -12.203125 10.078125 -12.203125 Z M 10.078125 -12.203125 "/></g></g></g><g fill="#039be5" fill-opacity="0.4"><g transform="translate(263.106859, 197.014888)"><g><path d="M 9.1875 -15.953125 C 11.28125 -15.953125 13.050781 -15.539062 14.5 -14.71875 C 15.945312 -13.90625 16.671875 -12.644531 16.671875 -10.9375 L 11.203125 -10.9375 C 11.203125 -11.507812 10.945312 -11.910156 10.4375 -12.140625 C 10.070312 -12.335938 9.625 -12.4375 9.09375 -12.4375 C 7.675781 -12.4375 6.96875 -12.101562 6.96875 -11.4375 C 6.96875 -11.0625 7.210938 -10.796875 7.703125 -10.640625 C 8.203125 -10.484375 9.015625 -10.316406 10.140625 -10.140625 C 11.515625 -9.941406 12.664062 -9.707031 13.59375 -9.4375 C 14.519531 -9.175781 15.328125 -8.703125 16.015625 -8.015625 C 16.703125 -7.335938 17.046875 -6.390625 17.046875 -5.171875 C 17.046875 -3.179688 16.300781 -1.757812 14.8125 -0.90625 C 13.332031 -0.0625 11.390625 0.359375 8.984375 0.359375 C 7.597656 0.359375 6.296875 0.164062 5.078125 -0.21875 C 3.859375 -0.601562 2.863281 -1.195312 2.09375 -2 C 1.332031 -2.8125 0.953125 -3.835938 0.953125 -5.078125 L 6.40625 -5.078125 L 6.40625 -4.96875 C 6.425781 -4.289062 6.707031 -3.816406 7.25 -3.546875 C 7.789062 -3.285156 8.367188 -3.15625 8.984375 -3.15625 C 10.617188 -3.15625 11.4375 -3.539062 11.4375 -4.3125 C 11.4375 -4.707031 11.175781 -4.992188 10.65625 -5.171875 C 10.144531 -5.347656 9.3125 -5.535156 8.15625 -5.734375 C 6.757812 -5.972656 5.613281 -6.226562 4.71875 -6.5 C 3.820312 -6.769531 3.035156 -7.234375 2.359375 -7.890625 C 1.691406 -8.554688 1.359375 -9.484375 1.359375 -10.671875 C 1.359375 -12.578125 2.082031 -13.929688 3.53125 -14.734375 C 4.976562 -15.546875 6.863281 -15.953125 9.1875 -15.953125 Z M 9.1875 -15.953125 "/></g></g></g><g fill="#039be5" fill-opacity="0.4"><g transform="translate(279.469459, 197.014888)"><g><path d="M 12.171875 -15.59375 L 12.171875 -11.609375 L 8.859375 -11.609375 L 8.859375 -5.671875 C 8.859375 -4.960938 8.976562 -4.445312 9.21875 -4.125 C 9.457031 -3.800781 9.890625 -3.640625 10.515625 -3.640625 L 12.171875 -3.640625 L 12.171875 -0.171875 C 11.703125 -0.015625 11.09375 0.109375 10.34375 0.203125 C 9.59375 0.304688 8.941406 0.359375 8.390625 0.359375 C 6.660156 0.359375 5.328125 0.046875 4.390625 -0.578125 C 3.453125 -1.210938 2.984375 -2.289062 2.984375 -3.8125 L 2.984375 -11.609375 L 0.796875 -11.609375 L 0.796875 -15.59375 L 3.21875 -15.59375 L 4.484375 -20.328125 L 8.859375 -20.328125 L 8.859375 -15.59375 Z M 12.171875 -15.59375 "/></g></g></g><g fill="#039be5" fill-opacity="0.4"><g transform="translate(290.89956, 197.014888)"><g><path d="M 9.484375 -15.953125 C 11.867188 -15.953125 13.804688 -15.550781 15.296875 -14.75 C 16.796875 -13.957031 17.546875 -12.664062 17.546875 -10.875 L 17.546875 -4.78125 C 17.546875 -4.445312 17.625 -4.171875 17.78125 -3.953125 C 17.945312 -3.742188 18.1875 -3.640625 18.5 -3.640625 L 19.5625 -3.640625 L 19.5625 -0.234375 C 19.5 -0.191406 19.34375 -0.125 19.09375 -0.03125 C 18.851562 0.0507812 18.503906 0.132812 18.046875 0.21875 C 17.597656 0.3125 17.078125 0.359375 16.484375 0.359375 C 15.347656 0.359375 14.410156 0.1875 13.671875 -0.15625 C 12.929688 -0.5 12.421875 -0.976562 12.140625 -1.59375 C 11.390625 -1 10.550781 -0.523438 9.625 -0.171875 C 8.707031 0.179688 7.625 0.359375 6.375 0.359375 C 2.71875 0.359375 0.890625 -1.097656 0.890625 -4.015625 C 0.890625 -5.535156 1.296875 -6.691406 2.109375 -7.484375 C 2.929688 -8.285156 4.109375 -8.832031 5.640625 -9.125 C 7.179688 -9.425781 9.191406 -9.578125 11.671875 -9.578125 L 11.671875 -10.34375 C 11.671875 -10.945312 11.457031 -11.40625 11.03125 -11.71875 C 10.613281 -12.039062 10.066406 -12.203125 9.390625 -12.203125 C 8.785156 -12.203125 8.257812 -12.09375 7.8125 -11.875 C 7.375 -11.65625 7.15625 -11.3125 7.15625 -10.84375 L 7.15625 -10.71875 L 1.359375 -10.71875 C 1.335938 -10.820312 1.328125 -10.960938 1.328125 -11.140625 C 1.328125 -12.617188 2.03125 -13.789062 3.4375 -14.65625 C 4.851562 -15.519531 6.867188 -15.953125 9.484375 -15.953125 Z M 11.671875 -6.796875 C 9.992188 -6.796875 8.753906 -6.613281 7.953125 -6.25 C 7.160156 -5.882812 6.765625 -5.394531 6.765625 -4.78125 C 6.765625 -3.800781 7.4375 -3.3125 8.78125 -3.3125 C 9.539062 -3.3125 10.210938 -3.515625 10.796875 -3.921875 C 11.378906 -4.335938 11.671875 -4.851562 11.671875 -5.46875 Z M 11.671875 -6.796875 "/></g></g></g><g fill="#039be5" fill-opacity="0.4"><g transform="translate(308.916167, 197.014888)"><g><path d="M 13.125 0 L 12.609375 -2.21875 C 11.472656 -0.5 9.820312 0.359375 7.65625 0.359375 C 5.539062 0.359375 3.910156 -0.328125 2.765625 -1.703125 C 1.628906 -3.085938 1.0625 -5.128906 1.0625 -7.828125 C 1.0625 -10.503906 1.628906 -12.523438 2.765625 -13.890625 C 3.910156 -15.265625 5.539062 -15.953125 7.65625 -15.953125 C 9.445312 -15.953125 10.90625 -15.351562 12.03125 -14.15625 L 12.03125 -21.421875 L 17.90625 -21.421875 L 17.90625 0 Z M 9.484375 -11.609375 C 7.785156 -11.609375 6.9375 -10.59375 6.9375 -8.5625 L 6.9375 -7 C 6.9375 -4.988281 7.785156 -3.984375 9.484375 -3.984375 C 10.347656 -3.984375 10.992188 -4.289062 11.421875 -4.90625 C 11.859375 -5.519531 12.078125 -6.316406 12.078125 -7.296875 L 12.078125 -8.265625 C 12.078125 -9.253906 11.859375 -10.054688 11.421875 -10.671875 C 10.992188 -11.296875 10.347656 -11.609375 9.484375 -11.609375 Z M 9.484375 -11.609375 "/></g></g></g><g fill="#039be5" fill-opacity="0.4"><g transform="translate(326.932773, 197.014888)"><g><path d="M 9.84375 -15.953125 C 12.582031 -15.953125 14.734375 -15.257812 16.296875 -13.875 C 17.859375 -12.488281 18.640625 -10.460938 18.640625 -7.796875 C 18.640625 -5.140625 17.859375 -3.113281 16.296875 -1.71875 C 14.734375 -0.332031 12.582031 0.359375 9.84375 0.359375 C 7.101562 0.359375 4.953125 -0.328125 3.390625 -1.703125 C 1.835938 -3.085938 1.0625 -5.117188 1.0625 -7.796875 C 1.0625 -10.472656 1.835938 -12.5 3.390625 -13.875 C 4.953125 -15.257812 7.101562 -15.953125 9.84375 -15.953125 Z M 9.84375 -11.96875 C 7.90625 -11.96875 6.9375 -10.851562 6.9375 -8.625 L 6.9375 -6.9375 C 6.9375 -4.738281 7.90625 -3.640625 9.84375 -3.640625 C 11.789062 -3.640625 12.765625 -4.738281 12.765625 -6.9375 L 12.765625 -8.625 C 12.765625 -10.851562 11.789062 -11.96875 9.84375 -11.96875 Z M 9.84375 -11.96875 "/></g></g></g><g fill="#000000" fill-opacity="1"><g transform="translate(140.328149, 197.014888)"><g><path d="M 13.890625 -15.125 L 13.890625 0 L 7.359375 0 L 7.359375 -15.125 L 0.671875 -15.125 L 0.671875 -20.328125 L 20.53125 -20.328125 L 20.53125 -15.125 Z M 13.890625 -15.125 "/></g></g></g><g fill="#000000" fill-opacity="1"><g transform="translate(159.969233, 197.014888)"><g><path d="M 9.84375 -15.953125 C 12.582031 -15.953125 14.734375 -15.257812 16.296875 -13.875 C 17.859375 -12.488281 18.640625 -10.460938 18.640625 -7.796875 C 18.640625 -5.140625 17.859375 -3.113281 16.296875 -1.71875 C 14.734375 -0.332031 12.582031 0.359375 9.84375 0.359375 C 7.101562 0.359375 4.953125 -0.328125 3.390625 -1.703125 C 1.835938 -3.085938 1.0625 -5.117188 1.0625 -7.796875 C 1.0625 -10.472656 1.835938 -12.5 3.390625 -13.875 C 4.953125 -15.257812 7.101562 -15.953125 9.84375 -15.953125 Z M 9.84375 -11.96875 C 7.90625 -11.96875 6.9375 -10.851562 6.9375 -8.625 L 6.9375 -6.9375 C 6.9375 -4.738281 7.90625 -3.640625 9.84375 -3.640625 C 11.789062 -3.640625 12.765625 -4.738281 12.765625 -6.9375 L 12.765625 -8.625 C 12.765625 -10.851562 11.789062 -11.96875 9.84375 -11.96875 Z M 9.84375 -11.96875 "/></g></g></g><g fill="#000000" fill-opacity="1"><g transform="translate(177.985844, 197.014888)"><g><path d="M 13.125 0 L 12.609375 -2.21875 C 11.472656 -0.5 9.820312 0.359375 7.65625 0.359375 C 5.539062 0.359375 3.910156 -0.328125 2.765625 -1.703125 C 1.628906 -3.085938 1.0625 -5.128906 1.0625 -7.828125 C 1.0625 -10.503906 1.628906 -12.523438 2.765625 -13.890625 C 3.910156 -15.265625 5.539062 -15.953125 7.65625 -15.953125 C 9.445312 -15.953125 10.90625 -15.351562 12.03125 -14.15625 L 12.03125 -21.421875 L 17.90625 -21.421875 L 17.90625 0 Z M 9.484375 -11.609375 C 7.785156 -11.609375 6.9375 -10.59375 6.9375 -8.5625 L 6.9375 -7 C 6.9375 -4.988281 7.785156 -3.984375 9.484375 -3.984375 C 10.347656 -3.984375 10.992188 -4.289062 11.421875 -4.90625 C 11.859375 -5.519531 12.078125 -6.316406 12.078125 -7.296875 L 12.078125 -8.265625 C 12.078125 -9.253906 11.859375 -10.054688 11.421875 -10.671875 C 10.992188 -11.296875 10.347656 -11.609375 9.484375 -11.609375 Z M 9.484375 -11.609375 "/></g></g></g><g fill="#000000" fill-opacity="1"><g transform="translate(196.002454, 197.014888)"><g><path d="M 9.84375 -15.953125 C 12.582031 -15.953125 14.734375 -15.257812 16.296875 -13.875 C 17.859375 -12.488281 18.640625 -10.460938 18.640625 -7.796875 C 18.640625 -5.140625 17.859375 -3.113281 16.296875 -1.71875 C 14.734375 -0.332031 12.582031 0.359375 9.84375 0.359375 C 7.101562 0.359375 4.953125 -0.328125 3.390625 -1.703125 C 1.835938 -3.085938 1.0625 -5.117188 1.0625 -7.796875 C 1.0625 -10.472656 1.835938 -12.5 3.390625 -13.875 C 4.953125 -15.257812 7.101562 -15.953125 9.84375 -15.953125 Z M 9.84375 -11.96875 C 7.90625 -11.96875 6.9375 -10.851562 6.9375 -8.625 L 6.9375 -6.9375 C 6.9375 -4.738281 7.90625 -3.640625 9.84375 -3.640625 C 11.789062 -3.640625 12.765625 -4.738281 12.765625 -6.9375 L 12.765625 -8.625 C 12.765625 -10.851562 11.789062 -11.96875 9.84375 -11.96875 Z M 9.84375 -11.96875 "/></g></g></g><g fill="#000000" fill-opacity="1"><g transform="translate(214.019066, 197.014888)"><g><path d="M 13.59375 -20.328125 C 14.851562 -20.328125 15.972656 -20.035156 16.953125 -19.453125 C 17.941406 -18.867188 18.710938 -18.070312 19.265625 -17.0625 C 19.816406 -16.050781 20.09375 -14.914062 20.09375 -13.65625 L 20.09375 -13.265625 C 20.09375 -12.003906 19.816406 -10.859375 19.265625 -9.828125 C 18.710938 -8.804688 17.941406 -8.003906 16.953125 -7.421875 C 15.972656 -6.847656 14.851562 -6.5625 13.59375 -6.5625 L 8.71875 -6.5625 L 8.71875 0 L 2.1875 0 L 2.1875 -20.328125 Z M 8.71875 -11.3125 L 11.40625 -11.3125 C 12.09375 -11.3125 12.609375 -11.488281 12.953125 -11.84375 C 13.296875 -12.195312 13.46875 -12.679688 13.46875 -13.296875 L 13.46875 -13.53125 C 13.46875 -14.164062 13.296875 -14.65625 12.953125 -15 C 12.609375 -15.34375 12.09375 -15.515625 11.40625 -15.515625 L 8.71875 -15.515625 Z M 8.71875 -11.3125 "/></g></g></g><g fill="#000000" fill-opacity="1"><g transform="translate(233.660151, 197.014888)"><g><path d="M 11.25 -15.984375 C 11.707031 -15.984375 12.113281 -15.925781 12.46875 -15.8125 C 12.820312 -15.707031 13 -15.644531 13 -15.625 L 13 -10.703125 L 11.109375 -10.703125 C 9.890625 -10.703125 9.007812 -10.382812 8.46875 -9.75 C 7.925781 -9.125 7.65625 -8.1875 7.65625 -6.9375 L 7.65625 0 L 1.765625 0 L 1.765625 -15.59375 L 6.59375 -15.59375 L 6.96875 -13.234375 C 7.320312 -14.140625 7.882812 -14.820312 8.65625 -15.28125 C 9.425781 -15.75 10.289062 -15.984375 11.25 -15.984375 Z M 11.25 -15.984375 "/></g></g></g><g fill="#000000" fill-opacity="1"><g transform="translate(245.090253, 197.014888)"><g><path d="M 9.84375 -15.953125 C 12.695312 -15.953125 14.875 -15.28125 16.375 -13.9375 C 17.882812 -12.601562 18.640625 -10.554688 18.640625 -7.796875 L 18.640625 -6.796875 L 6.9375 -6.796875 C 6.9375 -5.671875 7.1875 -4.820312 7.6875 -4.25 C 8.195312 -3.675781 8.992188 -3.390625 10.078125 -3.390625 C 11.054688 -3.390625 11.773438 -3.597656 12.234375 -4.015625 C 12.703125 -4.429688 12.9375 -4.984375 12.9375 -5.671875 L 18.640625 -5.671875 C 18.640625 -3.785156 17.921875 -2.304688 16.484375 -1.234375 C 15.046875 -0.171875 12.945312 0.359375 10.1875 0.359375 C 7.289062 0.359375 5.046875 -0.3125 3.453125 -1.65625 C 1.859375 -3.007812 1.0625 -5.054688 1.0625 -7.796875 C 1.0625 -10.472656 1.835938 -12.5 3.390625 -13.875 C 4.953125 -15.257812 7.101562 -15.953125 9.84375 -15.953125 Z M 10.078125 -12.203125 C 8.222656 -12.203125 7.1875 -11.328125 6.96875 -9.578125 L 12.703125 -9.578125 C 12.703125 -10.378906 12.46875 -11.015625 12 -11.484375 C 11.539062 -11.960938 10.898438 -12.203125 10.078125 -12.203125 Z M 10.078125 -12.203125 "/></g></g></g><g fill="#000000" fill-opacity="1"><g transform="translate(263.106859, 197.014888)"><g><path d="M 9.1875 -15.953125 C 11.28125 -15.953125 13.050781 -15.539062 14.5 -14.71875 C 15.945312 -13.90625 16.671875 -12.644531 16.671875 -10.9375 L 11.203125 -10.9375 C 11.203125 -11.507812 10.945312 -11.910156 10.4375 -12.140625 C 10.070312 -12.335938 9.625 -12.4375 9.09375 -12.4375 C 7.675781 -12.4375 6.96875 -12.101562 6.96875 -11.4375 C 6.96875 -11.0625 7.210938 -10.796875 7.703125 -10.640625 C 8.203125 -10.484375 9.015625 -10.316406 10.140625 -10.140625 C 11.515625 -9.941406 12.664062 -9.707031 13.59375 -9.4375 C 14.519531 -9.175781 15.328125 -8.703125 16.015625 -8.015625 C 16.703125 -7.335938 17.046875 -6.390625 17.046875 -5.171875 C 17.046875 -3.179688 16.300781 -1.757812 14.8125 -0.90625 C 13.332031 -0.0625 11.390625 0.359375 8.984375 0.359375 C 7.597656 0.359375 6.296875 0.164062 5.078125 -0.21875 C 3.859375 -0.601562 2.863281 -1.195312 2.09375 -2 C 1.332031 -2.8125 0.953125 -3.835938 0.953125 -5.078125 L 6.40625 -5.078125 L 6.40625 -4.96875 C 6.425781 -4.289062 6.707031 -3.816406 7.25 -3.546875 C 7.789062 -3.285156 8.367188 -3.15625 8.984375 -3.15625 C 10.617188 -3.15625 11.4375 -3.539062 11.4375 -4.3125 C 11.4375 -4.707031 11.175781 -4.992188 10.65625 -5.171875 C 10.144531 -5.347656 9.3125 -5.535156 8.15625 -5.734375 C 6.757812 -5.972656 5.613281 -6.226562 4.71875 -6.5 C 3.820312 -6.769531 3.035156 -7.234375 2.359375 -7.890625 C 1.691406 -8.554688 1.359375 -9.484375 1.359375 -10.671875 C 1.359375 -12.578125 2.082031 -13.929688 3.53125 -14.734375 C 4.976562 -15.546875 6.863281 -15.953125 9.1875 -15.953125 Z M 9.1875 -15.953125 "/></g></g></g><g fill="#000000" fill-opacity="1"><g transform="translate(279.469459, 197.014888)"><g><path d="M 12.171875 -15.59375 L 12.171875 -11.609375 L 8.859375 -11.609375 L 8.859375 -5.671875 C 8.859375 -4.960938 8.976562 -4.445312 9.21875 -4.125 C 9.457031 -3.800781 9.890625 -3.640625 10.515625 -3.640625 L 12.171875 -3.640625 L 12.171875 -0.171875 C 11.703125 -0.015625 11.09375 0.109375 10.34375 0.203125 C 9.59375 0.304688 8.941406 0.359375 8.390625 0.359375 C 6.660156 0.359375 5.328125 0.046875 4.390625 -0.578125 C 3.453125 -1.210938 2.984375 -2.289062 2.984375 -3.8125 L 2.984375 -11.609375 L 0.796875 -11.609375 L 0.796875 -15.59375 L 3.21875 -15.59375 L 4.484375 -20.328125 L 8.859375 -20.328125 L 8.859375 -15.59375 Z M 12.171875 -15.59375 "/></g></g></g><g fill="#000000" fill-opacity="1"><g transform="translate(290.89956, 197.014888)"><g><path d="M 9.484375 -15.953125 C 11.867188 -15.953125 13.804688 -15.550781 15.296875 -14.75 C 16.796875 -13.957031 17.546875 -12.664062 17.546875 -10.875 L 17.546875 -4.78125 C 17.546875 -4.445312 17.625 -4.171875 17.78125 -3.953125 C 17.945312 -3.742188 18.1875 -3.640625 18.5 -3.640625 L 19.5625 -3.640625 L 19.5625 -0.234375 C 19.5 -0.191406 19.34375 -0.125 19.09375 -0.03125 C 18.851562 0.0507812 18.503906 0.132812 18.046875 0.21875 C 17.597656 0.3125 17.078125 0.359375 16.484375 0.359375 C 15.347656 0.359375 14.410156 0.1875 13.671875 -0.15625 C 12.929688 -0.5 12.421875 -0.976562 12.140625 -1.59375 C 11.390625 -1 10.550781 -0.523438 9.625 -0.171875 C 8.707031 0.179688 7.625 0.359375 6.375 0.359375 C 2.71875 0.359375 0.890625 -1.097656 0.890625 -4.015625 C 0.890625 -5.535156 1.296875 -6.691406 2.109375 -7.484375 C 2.929688 -8.285156 4.109375 -8.832031 5.640625 -9.125 C 7.179688 -9.425781 9.191406 -9.578125 11.671875 -9.578125 L 11.671875 -10.34375 C 11.671875 -10.945312 11.457031 -11.40625 11.03125 -11.71875 C 10.613281 -12.039062 10.066406 -12.203125 9.390625 -12.203125 C 8.785156 -12.203125 8.257812 -12.09375 7.8125 -11.875 C 7.375 -11.65625 7.15625 -11.3125 7.15625 -10.84375 L 7.15625 -10.71875 L 1.359375 -10.71875 C 1.335938 -10.820312 1.328125 -10.960938 1.328125 -11.140625 C 1.328125 -12.617188 2.03125 -13.789062 3.4375 -14.65625 C 4.851562 -15.519531 6.867188 -15.953125 9.484375 -15.953125 Z M 11.671875 -6.796875 C 9.992188 -6.796875 8.753906 -6.613281 7.953125 -6.25 C 7.160156 -5.882812 6.765625 -5.394531 6.765625 -4.78125 C 6.765625 -3.800781 7.4375 -3.3125 8.78125 -3.3125 C 9.539062 -3.3125 10.210938 -3.515625 10.796875 -3.921875 C 11.378906 -4.335938 11.671875 -4.851562 11.671875 -5.46875 Z M 11.671875 -6.796875 "/></g></g></g><g fill="#000000" fill-opacity="1"><g transform="translate(308.916167, 197.014888)"><g><path d="M 13.125 0 L 12.609375 -2.21875 C 11.472656 -0.5 9.820312 0.359375 7.65625 0.359375 C 5.539062 0.359375 3.910156 -0.328125 2.765625 -1.703125 C 1.628906 -3.085938 1.0625 -5.128906 1.0625 -7.828125 C 1.0625 -10.503906 1.628906 -12.523438 2.765625 -13.890625 C 3.910156 -15.265625 5.539062 -15.953125 7.65625 -15.953125 C 9.445312 -15.953125 10.90625 -15.351562 12.03125 -14.15625 L 12.03125 -21.421875 L 17.90625 -21.421875 L 17.90625 0 Z M 9.484375 -11.609375 C 7.785156 -11.609375 6.9375 -10.59375 6.9375 -8.5625 L 6.9375 -7 C 6.9375 -4.988281 7.785156 -3.984375 9.484375 -3.984375 C 10.347656 -3.984375 10.992188 -4.289062 11.421875 -4.90625 C 11.859375 -5.519531 12.078125 -6.316406 12.078125 -7.296875 L 12.078125 -8.265625 C 12.078125 -9.253906 11.859375 -10.054688 11.421875 -10.671875 C 10.992188 -11.296875 10.347656 -11.609375 9.484375 -11.609375 Z M 9.484375 -11.609375 "/></g></g></g><g fill="#000000" fill-opacity="1"><g transform="translate(326.932773, 197.014888)"><g><path d="M 9.84375 -15.953125 C 12.582031 -15.953125 14.734375 -15.257812 16.296875 -13.875 C 17.859375 -12.488281 18.640625 -10.460938 18.640625 -7.796875 C 18.640625 -5.140625 17.859375 -3.113281 16.296875 -1.71875 C 14.734375 -0.332031 12.582031 0.359375 9.84375 0.359375 C 7.101562 0.359375 4.953125 -0.328125 3.390625 -1.703125 C 1.835938 -3.085938 1.0625 -5.117188 1.0625 -7.796875 C 1.0625 -10.472656 1.835938 -12.5 3.390625 -13.875 C 4.953125 -15.257812 7.101562 -15.953125 9.84375 -15.953125 Z M 9.84375 -11.96875 C 7.90625 -11.96875 6.9375 -10.851562 6.9375 -8.625 L 6.9375 -6.9375 C 6.9375 -4.738281 7.90625 -3.640625 9.84375 -3.640625 C 11.789062 -3.640625 12.765625 -4.738281 12.765625 -6.9375 L 12.765625 -8.625 C 12.765625 -10.851562 11.789062 -11.96875 9.84375 -11.96875 Z M 9.84375 -11.96875 "/></g></g></g></svg>