<svg xmlns="http://www.w3.org/2000/svg" xmlns:xlink="http://www.w3.org/1999/xlink" width="400" zoomAndPan="magnify" viewBox="0 0 300 112.499997" height="150" preserveAspectRatio="xMidYMid meet" version="1.0"><defs><g/><clipPath id="aaaffa05fc"><path d="M 43.027344 43.234375 L 69.160156 43.234375 L 69.160156 69.367188 L 43.027344 69.367188 Z M 43.027344 43.234375 " clip-rule="nonzero"/></clipPath><clipPath id="b9c00e8d44"><path d="M 56.152344 43.234375 C 48.902344 43.234375 43.027344 49.109375 43.027344 56.359375 C 43.027344 63.609375 48.902344 69.484375 56.152344 69.484375 C 63.402344 69.484375 69.277344 63.609375 69.277344 56.359375 C 69.277344 49.109375 63.402344 43.234375 56.152344 43.234375 Z M 56.152344 43.234375 " clip-rule="nonzero"/></clipPath><clipPath id="b2ec11b358"><path d="M 10.730469 11.199219 L 50.011719 11.199219 L 50.011719 50.484375 L 10.730469 50.484375 Z M 10.730469 11.199219 " clip-rule="nonzero"/></clipPath><clipPath id="005a709da0"><path d="M 30.371094 11.199219 C 19.523438 11.199219 10.730469 19.992188 10.730469 30.839844 C 10.730469 41.6875 19.523438 50.484375 30.371094 50.484375 C 41.21875 50.484375 50.011719 41.6875 50.011719 30.839844 C 50.011719 19.992188 41.21875 11.199219 30.371094 11.199219 Z M 30.371094 11.199219 " clip-rule="nonzero"/></clipPath><clipPath id="3c2b6f2091"><path d="M 62.503906 11.199219 L 101.785156 11.199219 L 101.785156 50.484375 L 62.503906 50.484375 Z M 62.503906 11.199219 " clip-rule="nonzero"/></clipPath><clipPath id="31640db41c"><path d="M 82.144531 11.199219 C 71.296875 11.199219 62.503906 19.992188 62.503906 30.839844 C 62.503906 41.6875 71.296875 50.484375 82.144531 50.484375 C 92.992188 50.484375 101.785156 41.6875 101.785156 30.839844 C 101.785156 19.992188 92.992188 11.199219 82.144531 11.199219 Z M 82.144531 11.199219 " clip-rule="nonzero"/></clipPath><clipPath id="03024174fe"><path d="M 10.730469 61.070312 L 50.011719 61.070312 L 50.011719 100.355469 L 10.730469 100.355469 Z M 10.730469 61.070312 " clip-rule="nonzero"/></clipPath><clipPath id="3b5d02c94e"><path d="M 30.371094 61.070312 C 19.523438 61.070312 10.730469 69.863281 10.730469 80.710938 C 10.730469 91.558594 19.523438 100.355469 30.371094 100.355469 C 41.21875 100.355469 50.011719 91.558594 50.011719 80.710938 C 50.011719 69.863281 41.21875 61.070312 30.371094 61.070312 Z M 30.371094 61.070312 " clip-rule="nonzero"/></clipPath><clipPath id="4d276c05af"><path d="M 62.503906 61.070312 L 101.785156 61.070312 L 101.785156 100.355469 L 62.503906 100.355469 Z M 62.503906 61.070312 " clip-rule="nonzero"/></clipPath><clipPath id="941bf51334"><path d="M 82.144531 61.070312 C 71.296875 61.070312 62.503906 69.863281 62.503906 80.710938 C 62.503906 91.558594 71.296875 100.355469 82.144531 100.355469 C 92.992188 100.355469 101.785156 91.558594 101.785156 80.710938 C 101.785156 69.863281 92.992188 61.070312 82.144531 61.070312 Z M 82.144531 61.070312 " clip-rule="nonzero"/></clipPath><clipPath id="5acb1c332e"><path d="M 51.078125 50.921875 L 61.53125 50.921875 L 61.53125 61.375 L 51.078125 61.375 Z M 51.078125 50.921875 " clip-rule="nonzero"/></clipPath><clipPath id="adf763774f"><path d="M 9.675781 50.976562 L 45.824219 50.976562 L 45.824219 60.578125 L 9.675781 60.578125 Z M 9.675781 50.976562 " clip-rule="nonzero"/></clipPath><clipPath id="f7f3411b9a"><path d="M 14.472656 50.976562 L 41 50.976562 C 42.273438 50.976562 43.496094 51.484375 44.394531 52.382812 C 45.296875 53.285156 45.800781 54.503906 45.800781 55.777344 C 45.800781 57.050781 45.296875 58.273438 44.394531 59.171875 C 43.496094 60.074219 42.273438 60.578125 41 60.578125 L 14.472656 60.578125 C 13.203125 60.578125 11.980469 60.074219 11.082031 59.171875 C 10.179688 58.273438 9.675781 57.050781 9.675781 55.777344 C 9.675781 54.503906 10.179688 53.285156 11.082031 52.382812 C 11.980469 51.484375 13.203125 50.976562 14.472656 50.976562 Z M 14.472656 50.976562 " clip-rule="nonzero"/></clipPath><clipPath id="7d385b3f03"><path d="M 30.371094 50.976562 L 44.703125 50.976562 L 44.703125 60.578125 L 30.371094 60.578125 Z M 30.371094 50.976562 " clip-rule="nonzero"/></clipPath><clipPath id="29a7cc66db"><path d="M 66.269531 50.96875 L 101.78125 50.96875 L 101.78125 60.566406 L 66.269531 60.566406 Z M 66.269531 50.96875 " clip-rule="nonzero"/></clipPath><clipPath id="3e59f5ba9d"><path d="M 96.980469 60.566406 L 71.085938 60.566406 C 69.8125 60.566406 68.589844 60.0625 67.691406 59.164062 C 66.789062 58.261719 66.285156 57.042969 66.285156 55.769531 C 66.285156 54.496094 66.789062 53.273438 67.691406 52.375 C 68.589844 51.472656 69.8125 50.96875 71.085938 50.96875 L 96.980469 50.96875 C 98.253906 50.96875 99.476562 51.472656 100.375 52.375 C 101.277344 53.273438 101.78125 54.496094 101.78125 55.769531 C 101.78125 57.042969 101.277344 58.261719 100.375 59.164062 C 99.476562 60.0625 98.253906 60.566406 96.980469 60.566406 Z M 96.980469 60.566406 " clip-rule="nonzero"/></clipPath><clipPath id="4822e6d794"><path d="M 67.359375 50.96875 L 81.441406 50.96875 L 81.441406 60.566406 L 67.359375 60.566406 Z M 67.359375 50.96875 " clip-rule="nonzero"/></clipPath><clipPath id="17462cb6ea"><path d="M 51.355469 66.519531 L 60.957031 66.519531 L 60.957031 100.347656 L 51.355469 100.347656 Z M 51.355469 66.519531 " clip-rule="nonzero"/></clipPath><clipPath id="ca72bb5344"><path d="M 51.355469 95.546875 L 51.355469 71.339844 C 51.355469 70.066406 51.863281 68.84375 52.761719 67.945312 C 53.660156 67.042969 54.882812 66.539062 56.15625 66.539062 C 57.429688 66.539062 58.648438 67.042969 59.550781 67.945312 C 60.449219 68.84375 60.957031 70.066406 60.957031 71.339844 L 60.957031 95.546875 C 60.957031 96.820312 60.449219 98.039062 59.550781 98.941406 C 58.648438 99.839844 57.429688 100.347656 56.15625 100.347656 C 54.882812 100.347656 53.660156 99.839844 52.761719 98.941406 C 51.863281 98.039062 51.355469 96.820312 51.355469 95.546875 Z M 51.355469 95.546875 " clip-rule="nonzero"/></clipPath><clipPath id="e1f3ac9fd1"><path d="M 51.359375 67.570312 L 60.957031 67.570312 L 60.957031 80.980469 L 51.359375 80.980469 Z M 51.359375 67.570312 " clip-rule="nonzero"/></clipPath><clipPath id="37b990db91"><path d="M 51.34375 12.558594 L 60.945312 12.558594 L 60.945312 46.386719 L 51.34375 46.386719 Z M 51.34375 12.558594 " clip-rule="nonzero"/></clipPath><clipPath id="2005d3ce30"><path d="M 60.945312 17.359375 L 60.945312 41.566406 C 60.945312 42.839844 60.441406 44.0625 59.539062 44.960938 C 58.640625 45.863281 57.417969 46.367188 56.144531 46.367188 C 54.871094 46.367188 53.652344 45.863281 52.75 44.960938 C 51.851562 44.0625 51.34375 42.839844 51.34375 41.566406 L 51.34375 17.359375 C 51.34375 16.085938 51.851562 14.867188 52.75 13.964844 C 53.652344 13.066406 54.871094 12.558594 56.144531 12.558594 C 57.417969 12.558594 58.640625 13.066406 59.539062 13.964844 C 60.441406 14.867188 60.945312 16.085938 60.945312 17.359375 Z M 60.945312 17.359375 " clip-rule="nonzero"/></clipPath><clipPath id="2e42ac0afa"><path d="M 51.347656 31.925781 L 60.949219 31.925781 L 60.949219 45.335938 L 51.347656 45.335938 Z M 51.347656 31.925781 " clip-rule="nonzero"/></clipPath><clipPath id="fa08f6deef"><path d="M 21.03125 79 L 32 79 L 32 90 L 21.03125 90 Z M 21.03125 79 " clip-rule="nonzero"/></clipPath><clipPath id="62211059dc"><path d="M 28 71.375 L 39.699219 71.375 L 39.699219 83 L 28 83 Z M 28 71.375 " clip-rule="nonzero"/></clipPath><clipPath id="15ac5c5b7f"><path d="M 30 80 L 39.699219 80 L 39.699219 90 L 30 90 Z M 30 80 " clip-rule="nonzero"/></clipPath><clipPath id="795f1cadfd"><path d="M 21.03125 71.375 L 31 71.375 L 31 81 L 21.03125 81 Z M 21.03125 71.375 " clip-rule="nonzero"/></clipPath><clipPath id="d2d0bb93fd"><path d="M 68.902344 20.964844 L 95.035156 20.964844 L 95.035156 38 L 68.902344 38 Z M 68.902344 20.964844 " clip-rule="nonzero"/></clipPath><clipPath id="facbe84881"><path d="M 17.78125 28 L 29 28 L 29 39 L 17.78125 39 Z M 17.78125 28 " clip-rule="nonzero"/></clipPath><clipPath id="3d35d44d4c"><path d="M 30 22.769531 L 39 22.769531 L 39 35 L 30 35 Z M 30 22.769531 " clip-rule="nonzero"/></clipPath><clipPath id="706f7173bc"><path d="M 71.082031 69.652344 L 93.484375 69.652344 L 93.484375 92 L 71.082031 92 Z M 71.082031 69.652344 " clip-rule="nonzero"/></clipPath></defs><g clip-path="url(#aaaffa05fc)"><g clip-path="url(#b9c00e8d44)"><path stroke-linecap="butt" transform="matrix(0.746681, 0, 0, 0.746681, 43.026381, 43.234246)" fill="none" stroke-linejoin="miter" d="M 17.579068 0.000172348 C 7.869438 0.000172348 0.00128899 7.868321 0.00128899 17.577951 C 0.00128899 27.287582 7.869438 35.15573 17.579068 35.15573 C 27.288698 35.15573 35.156847 27.287582 35.156847 17.577951 C 35.156847 7.868321 27.288698 0.000172348 17.579068 0.000172348 Z M 17.579068 0.000172348 " stroke="#ffffff" stroke-width="14" stroke-opacity="1" stroke-miterlimit="4"/></g></g><g clip-path="url(#b2ec11b358)"><g clip-path="url(#005a709da0)"><path stroke-linecap="butt" transform="matrix(0.746681, 0, 0, 0.746681, 10.729641, 11.20022)" fill="none" stroke-linejoin="miter" d="M 26.304997 -0.00134153 C 11.777173 -0.00134153 0.00110807 11.774723 0.00110807 26.302548 C 0.00110807 40.830372 11.777173 52.611668 26.304997 52.611668 C 40.832821 52.611668 52.608886 40.830372 52.608886 26.302548 C 52.608886 11.774723 40.832821 -0.00134153 26.304997 -0.00134153 Z M 26.304997 -0.00134153 " stroke="#ffffff" stroke-width="10" stroke-opacity="1" stroke-miterlimit="4"/></g></g><g clip-path="url(#3c2b6f2091)"><g clip-path="url(#31640db41c)"><path stroke-linecap="butt" transform="matrix(0.746681, 0, 0, 0.746681, 62.502792, 11.20022)" fill="none" stroke-linejoin="miter" d="M 26.305382 -0.00134153 C 11.777558 -0.00134153 0.00149271 11.774723 0.00149271 26.302548 C 0.00149271 40.830372 11.777558 52.611668 26.305382 52.611668 C 40.833206 52.611668 52.609271 40.830372 52.609271 26.302548 C 52.609271 11.774723 40.833206 -0.00134153 26.305382 -0.00134153 Z M 26.305382 -0.00134153 " stroke="#ffffff" stroke-width="10" stroke-opacity="1" stroke-miterlimit="4"/></g></g><g clip-path="url(#03024174fe)"><g clip-path="url(#3b5d02c94e)"><path stroke-linecap="butt" transform="matrix(0.746681, 0, 0, 0.746681, 10.729641, 61.071365)" fill="none" stroke-linejoin="miter" d="M 26.304997 -0.00140951 C 11.777173 -0.00140951 0.00110807 11.774655 0.00110807 26.30248 C 0.00110807 40.830304 11.777173 52.6116 26.304997 52.6116 C 40.832821 52.6116 52.608886 40.830304 52.608886 26.30248 C 52.608886 11.774655 40.832821 -0.00140951 26.304997 -0.00140951 Z M 26.304997 -0.00140951 " stroke="#ffffff" stroke-width="10" stroke-opacity="1" stroke-miterlimit="4"/></g></g><g clip-path="url(#4d276c05af)"><g clip-path="url(#941bf51334)"><path stroke-linecap="butt" transform="matrix(0.746681, 0, 0, 0.746681, 62.502792, 61.071365)" fill="none" stroke-linejoin="miter" d="M 26.305382 -0.00140951 C 11.777558 -0.00140951 0.00149271 11.774655 0.00149271 26.30248 C 0.00149271 40.830304 11.777558 52.6116 26.305382 52.6116 C 40.833206 52.6116 52.609271 40.830304 52.609271 26.30248 C 52.609271 11.774655 40.833206 -0.00140951 26.305382 -0.00140951 Z M 26.305382 -0.00140951 " stroke="#ffffff" stroke-width="10" stroke-opacity="1" stroke-miterlimit="4"/></g></g><g clip-path="url(#5acb1c332e)"><path fill="#ffffff" d="M 53.390625 53.703125 C 53.390625 53.335938 53.460938 52.980469 53.601562 52.640625 C 53.742188 52.300781 53.945312 52 54.203125 51.742188 C 54.464844 51.480469 54.765625 51.28125 55.105469 51.140625 C 55.445312 51 55.796875 50.929688 56.167969 50.925781 C 59.835938 51.058594 59.84375 56.339844 56.175781 56.480469 C 55.808594 56.480469 55.453125 56.410156 55.109375 56.269531 C 54.769531 56.128906 54.46875 55.929688 54.207031 55.667969 C 53.945312 55.410156 53.746094 55.109375 53.605469 54.769531 C 53.460938 54.425781 53.390625 54.074219 53.390625 53.703125 Z M 58.976562 56.480469 C 58.8125 56.378906 58.648438 56.382812 58.488281 56.492188 C 58.152344 56.765625 57.785156 56.96875 57.378906 57.113281 C 56.972656 57.253906 56.554688 57.324219 56.125 57.320312 C 55.695312 57.320312 55.277344 57.242188 54.875 57.09375 C 54.46875 56.949219 54.101562 56.734375 53.773438 56.460938 C 53.640625 56.398438 53.511719 56.40625 53.382812 56.480469 C 52.6875 56.945312 52.140625 57.542969 51.746094 58.28125 C 51.351562 59.019531 51.15625 59.804688 51.160156 60.640625 C 51.160156 60.761719 51.199219 60.859375 51.28125 60.945312 C 51.367188 61.027344 51.46875 61.070312 51.585938 61.070312 L 60.761719 61.070312 C 60.878906 61.070312 60.980469 61.027344 61.0625 60.945312 C 61.148438 60.859375 61.1875 60.761719 61.1875 60.640625 C 61.1875 59.808594 60.992188 59.023438 60.601562 58.285156 C 60.207031 57.550781 59.667969 56.949219 58.976562 56.480469 Z M 58.976562 56.480469 " fill-opacity="1" fill-rule="nonzero"/></g><g clip-path="url(#adf763774f)"><g clip-path="url(#f7f3411b9a)"><path fill="#ffffff" d="M 9.675781 50.976562 L 45.789062 50.976562 L 45.789062 60.578125 L 9.675781 60.578125 Z M 9.675781 50.976562 " fill-opacity="1" fill-rule="nonzero"/></g></g><g clip-path="url(#7d385b3f03)"><path fill="#ffffff" d="M 30.371094 50.976562 L 44.699219 50.976562 L 44.699219 60.578125 L 30.371094 60.578125 Z M 30.371094 50.976562 " fill-opacity="1" fill-rule="nonzero"/></g><g clip-path="url(#29a7cc66db)"><g clip-path="url(#3e59f5ba9d)"><path fill="#ffffff" d="M 101.78125 60.566406 L 66.269531 60.566406 L 66.269531 50.96875 L 101.78125 50.96875 Z M 101.78125 60.566406 " fill-opacity="1" fill-rule="nonzero"/></g></g><g clip-path="url(#4822e6d794)"><path fill="#ffffff" d="M 81.441406 60.566406 L 67.378906 60.566406 L 67.378906 50.96875 L 81.441406 50.96875 Z M 81.441406 60.566406 " fill-opacity="1" fill-rule="nonzero"/></g><g clip-path="url(#17462cb6ea)"><g clip-path="url(#ca72bb5344)"><path fill="#ffffff" d="M 51.355469 100.347656 L 51.355469 66.519531 L 60.957031 66.519531 L 60.957031 100.347656 Z M 51.355469 100.347656 " fill-opacity="1" fill-rule="nonzero"/></g></g><g clip-path="url(#e1f3ac9fd1)"><path fill="#ffffff" d="M 51.359375 80.980469 L 51.359375 67.554688 L 60.957031 67.554688 L 60.957031 80.980469 Z M 51.359375 80.980469 " fill-opacity="1" fill-rule="nonzero"/></g><g clip-path="url(#37b990db91)"><g clip-path="url(#2005d3ce30)"><path fill="#ffffff" d="M 60.945312 12.558594 L 60.945312 46.386719 L 51.34375 46.386719 L 51.34375 12.558594 Z M 60.945312 12.558594 " fill-opacity="1" fill-rule="nonzero"/></g></g><g clip-path="url(#2e42ac0afa)"><path fill="#ffffff" d="M 60.949219 31.925781 L 60.949219 45.351562 L 51.347656 45.351562 L 51.347656 31.925781 Z M 60.949219 31.925781 " fill-opacity="1" fill-rule="nonzero"/></g><g clip-path="url(#fa08f6deef)"><path fill="#ffffff" d="M 21.988281 89.09375 C 21.058594 88.164062 21.058594 86.660156 21.988281 85.726562 L 28.050781 79.667969 C 28.191406 79.527344 28.414062 79.527344 28.554688 79.667969 L 31.417969 82.527344 C 31.554688 82.667969 31.554688 82.890625 31.417969 83.03125 L 25.355469 89.09375 C 24.425781 90.023438 22.917969 90.023438 21.988281 89.09375 Z M 28.304688 80.421875 L 22.492188 86.230469 C 21.839844 86.882812 21.839844 87.9375 22.492188 88.589844 C 23.144531 89.242188 24.199219 89.242188 24.851562 88.589844 L 30.660156 82.78125 Z M 28.304688 80.421875 " fill-opacity="1" fill-rule="nonzero"/></g><path fill="#ffffff" d="M 29.71875 84.222656 L 26.859375 81.363281 C 26.71875 81.222656 26.71875 80.996094 26.859375 80.859375 C 27 80.71875 27.222656 80.71875 27.363281 80.859375 L 30.222656 83.71875 C 30.363281 83.859375 30.363281 84.085938 30.222656 84.222656 C 30.085938 84.363281 29.859375 84.363281 29.71875 84.222656 Z M 29.71875 84.222656 " fill-opacity="1" fill-rule="nonzero"/><path fill="#ffffff" d="M 28.460938 85.480469 L 25.601562 82.621094 C 25.460938 82.480469 25.460938 82.257812 25.601562 82.117188 C 25.738281 81.976562 25.964844 81.976562 26.105469 82.117188 L 28.964844 84.976562 C 29.105469 85.117188 29.105469 85.34375 28.964844 85.480469 C 28.828125 85.621094 28.601562 85.621094 28.460938 85.480469 Z M 28.460938 85.480469 " fill-opacity="1" fill-rule="nonzero"/><g clip-path="url(#62211059dc)"><path fill="#ffffff" d="M 30.277344 82.394531 L 28.6875 80.804688 C 28.546875 80.667969 28.546875 80.441406 28.6875 80.300781 L 34.652344 74.339844 L 34.941406 73.464844 C 34.964844 73.394531 35.011719 73.332031 35.074219 73.289062 L 37.296875 71.699219 C 37.441406 71.597656 37.632812 71.613281 37.757812 71.738281 L 39.347656 73.324219 C 39.46875 73.449219 39.484375 73.644531 39.382812 73.785156 L 37.792969 76.011719 C 37.75 76.070312 37.6875 76.117188 37.617188 76.140625 L 36.742188 76.433594 L 30.78125 82.394531 C 30.640625 82.535156 30.417969 82.535156 30.277344 82.394531 Z M 29.441406 80.554688 L 30.527344 81.640625 L 36.300781 75.871094 C 36.339844 75.832031 36.386719 75.800781 36.4375 75.785156 L 37.28125 75.503906 L 38.628906 73.617188 L 37.464844 72.453125 L 35.582031 73.800781 L 35.300781 74.644531 C 35.28125 74.695312 35.253906 74.746094 35.214844 74.785156 Z M 29.441406 80.554688 " fill-opacity="1" fill-rule="nonzero"/></g><g clip-path="url(#15ac5c5b7f)"><path fill="#ffffff" d="M 34.21875 88.890625 C 33.367188 88.039062 33.097656 86.753906 33.519531 85.640625 L 30.277344 82.394531 C 30.136719 82.257812 30.136719 82.03125 30.277344 81.890625 C 30.414062 81.753906 30.640625 81.753906 30.78125 81.890625 L 34.148438 85.261719 C 34.28125 85.394531 34.316406 85.59375 34.238281 85.761719 C 33.839844 86.644531 34.035156 87.703125 34.722656 88.386719 C 35.300781 88.964844 36.125 89.191406 36.902344 89.019531 L 35.816406 87.933594 C 35.675781 87.796875 35.675781 87.570312 35.816406 87.429688 L 37.089844 86.152344 C 37.230469 86.015625 37.457031 86.015625 37.59375 86.152344 L 38.679688 87.238281 C 38.855469 86.464844 38.625 85.636719 38.050781 85.0625 C 37.363281 84.375 36.304688 84.179688 35.421875 84.578125 C 35.253906 84.65625 35.054688 84.617188 34.921875 84.488281 L 31.554688 81.121094 C 31.414062 80.980469 31.414062 80.753906 31.554688 80.617188 C 31.691406 80.476562 31.917969 80.476562 32.054688 80.617188 L 35.300781 83.859375 C 36.414062 83.4375 37.703125 83.707031 38.550781 84.558594 C 39.46875 85.472656 39.710938 86.875 39.152344 88.046875 C 39.046875 88.265625 38.753906 88.316406 38.578125 88.144531 L 37.34375 86.910156 L 36.570312 87.683594 L 37.804688 88.917969 C 37.976562 89.089844 37.929688 89.382812 37.707031 89.488281 C 36.53125 90.050781 35.132812 89.804688 34.21875 88.890625 Z M 34.21875 88.890625 " fill-opacity="1" fill-rule="nonzero"/></g><g clip-path="url(#795f1cadfd)"><path fill="#ffffff" d="M 28.6875 80.804688 L 25.445312 77.5625 C 24.328125 77.984375 23.042969 77.714844 22.191406 76.863281 C 21.273438 75.945312 21.035156 74.546875 21.59375 73.375 C 21.699219 73.15625 21.992188 73.105469 22.164062 73.277344 L 23.398438 74.511719 L 24.171875 73.738281 L 22.9375 72.503906 C 22.765625 72.332031 22.816406 72.039062 23.039062 71.933594 C 24.207031 71.375 25.609375 71.613281 26.523438 72.53125 C 27.375 73.382812 27.644531 74.667969 27.222656 75.78125 L 30.46875 79.027344 C 30.605469 79.164062 30.605469 79.390625 30.46875 79.53125 C 30.328125 79.667969 30.101562 79.667969 29.964844 79.53125 L 26.59375 76.160156 C 26.464844 76.027344 26.429688 75.828125 26.503906 75.660156 C 26.902344 74.777344 26.707031 73.71875 26.019531 73.035156 C 25.445312 72.457031 24.617188 72.230469 23.84375 72.402344 L 24.929688 73.488281 C 25.066406 73.625 25.066406 73.851562 24.929688 73.992188 L 23.652344 75.269531 C 23.585938 75.335938 23.496094 75.371094 23.398438 75.371094 C 23.304688 75.371094 23.214844 75.335938 23.148438 75.269531 L 22.0625 74.183594 C 21.890625 74.957031 22.117188 75.785156 22.695312 76.359375 C 23.382812 77.046875 24.4375 77.242188 25.320312 76.84375 C 25.488281 76.765625 25.6875 76.804688 25.820312 76.933594 L 29.191406 80.300781 C 29.328125 80.441406 29.328125 80.667969 29.191406 80.804688 C 29.050781 80.945312 28.824219 80.945312 28.6875 80.804688 Z M 28.6875 80.804688 " fill-opacity="1" fill-rule="nonzero"/></g><g clip-path="url(#d2d0bb93fd)"><path fill="#ffffff" d="M 82.144531 20.964844 C 79.097656 20.964844 76.359375 24.363281 74.046875 28.472656 L 69.867188 35.933594 L 69.867188 35.367188 L 68.921875 35.367188 L 68.921875 37.964844 L 69.867188 37.964844 L 69.867188 37.445312 L 74.730469 28.945312 L 80.5625 25.332031 C 81.625 24.671875 81.695312 24.554688 82.144531 24.554688 C 82.59375 24.554688 82.664062 24.695312 83.726562 25.332031 L 89.558594 28.945312 L 94.421875 37.445312 L 94.421875 37.964844 L 95.363281 37.964844 L 95.363281 35.34375 L 94.421875 35.34375 L 94.421875 35.933594 L 90.21875 28.472656 C 87.929688 24.363281 85.191406 20.964844 82.144531 20.964844 Z M 78.792969 27.246094 L 75.390625 29.324219 L 71.828125 37.492188 L 92.460938 37.492188 L 88.894531 29.324219 L 85.519531 27.246094 L 86.203125 33.878906 C 86.253906 34.445312 85.804688 34.917969 85.308594 34.917969 L 79.027344 34.917969 C 78.53125 34.917969 78.082031 34.445312 78.128906 33.878906 Z M 78.792969 27.246094 " fill-opacity="1" fill-rule="nonzero"/></g><path fill="#ffffff" d="M 37.789062 29.632812 C 35.515625 29.632812 33.667969 31.480469 33.667969 33.753906 C 33.667969 36.023438 35.515625 37.871094 37.789062 37.871094 C 40.058594 37.871094 41.90625 36.023438 41.90625 33.753906 C 41.90625 31.480469 40.058594 29.632812 37.789062 29.632812 Z M 37.789062 38.914062 C 34.941406 38.914062 32.625 36.597656 32.625 33.753906 C 32.625 30.90625 34.941406 28.589844 37.789062 28.589844 C 40.632812 28.589844 42.949219 30.90625 42.949219 33.753906 C 42.949219 36.597656 40.632812 38.914062 37.789062 38.914062 " fill-opacity="1" fill-rule="nonzero"/><g clip-path="url(#facbe84881)"><path fill="#ffffff" d="M 22.949219 29.632812 C 20.679688 29.632812 18.832031 31.480469 18.832031 33.753906 C 18.832031 36.023438 20.679688 37.871094 22.949219 37.871094 C 25.222656 37.871094 27.070312 36.023438 27.070312 33.753906 C 27.070312 31.480469 25.222656 29.632812 22.949219 29.632812 Z M 22.949219 38.914062 C 20.105469 38.914062 17.789062 36.597656 17.789062 33.753906 C 17.789062 30.90625 20.105469 28.589844 22.949219 28.589844 C 25.796875 28.589844 28.113281 30.90625 28.113281 33.753906 C 28.113281 36.597656 25.796875 38.914062 22.949219 38.914062 " fill-opacity="1" fill-rule="nonzero"/></g><g clip-path="url(#3d35d44d4c)"><path fill="#ffffff" d="M 37.789062 34.273438 C 37.574219 34.273438 37.378906 34.144531 37.300781 33.933594 L 33.519531 23.8125 L 31.511719 23.8125 C 31.226562 23.8125 30.992188 23.578125 30.992188 23.289062 C 30.992188 23 31.226562 22.769531 31.511719 22.769531 L 33.882812 22.769531 C 34.101562 22.769531 34.292969 22.902344 34.371094 23.105469 L 38.277344 33.570312 C 38.375 33.839844 38.238281 34.140625 37.96875 34.242188 C 37.910156 34.261719 37.847656 34.273438 37.789062 34.273438 " fill-opacity="1" fill-rule="nonzero"/></g><path fill="#ffffff" d="M 23.808594 33.230469 L 29.832031 33.230469 L 26.726562 27.613281 Z M 30.714844 34.273438 L 22.949219 34.273438 C 22.769531 34.273438 22.597656 34.179688 22.503906 34.023438 C 22.410156 33.867188 22.402344 33.671875 22.488281 33.511719 L 26.246094 26.269531 C 26.246094 26.269531 26.246094 26.269531 26.25 26.269531 L 26.625 25.542969 L 25.625 25.542969 C 25.339844 25.542969 25.105469 25.3125 25.105469 25.023438 C 25.105469 24.734375 25.339844 24.503906 25.625 24.503906 L 27.480469 24.503906 C 27.664062 24.503906 27.832031 24.597656 27.925781 24.753906 C 28.023438 24.910156 28.027344 25.101562 27.945312 25.265625 L 27.566406 25.988281 L 34.730469 25.988281 C 35.019531 25.988281 35.253906 26.222656 35.253906 26.511719 C 35.253906 26.796875 35.019531 27.03125 34.730469 27.03125 L 27.59375 27.03125 L 31.171875 33.5 C 31.261719 33.660156 31.257812 33.859375 31.164062 34.015625 C 31.070312 34.175781 30.898438 34.273438 30.714844 34.273438 " fill-opacity="1" fill-rule="nonzero"/><path fill="#ffffff" d="M 30.714844 34.273438 C 30.621094 34.273438 30.527344 34.25 30.445312 34.199219 C 30.199219 34.046875 30.121094 33.726562 30.269531 33.480469 L 34.65625 26.285156 C 34.804688 26.039062 35.125 25.960938 35.371094 26.109375 C 35.617188 26.261719 35.695312 26.582031 35.546875 26.828125 L 31.160156 34.023438 C 31.0625 34.183594 30.890625 34.273438 30.714844 34.273438 " fill-opacity="1" fill-rule="nonzero"/><path fill="#ffffff" d="M 31.941406 33.753906 C 31.941406 34.429688 31.394531 34.980469 30.714844 34.980469 C 30.039062 34.980469 29.488281 34.429688 29.488281 33.753906 C 29.488281 33.074219 30.039062 32.523438 30.714844 32.523438 C 31.394531 32.523438 31.941406 33.074219 31.941406 33.753906 " fill-opacity="1" fill-rule="nonzero"/><path fill="#ffffff" d="M 31.28125 36.371094 L 30.335938 36.371094 C 30.15625 36.371094 30.015625 36.226562 30.015625 36.050781 C 30.015625 35.871094 30.15625 35.726562 30.335938 35.726562 L 30.394531 35.726562 L 30.394531 33.753906 C 30.394531 33.574219 30.539062 33.429688 30.714844 33.429688 C 30.894531 33.429688 31.039062 33.574219 31.039062 33.753906 L 31.039062 35.726562 L 31.28125 35.726562 C 31.457031 35.726562 31.601562 35.871094 31.601562 36.050781 C 31.601562 36.226562 31.457031 36.371094 31.28125 36.371094 " fill-opacity="1" fill-rule="nonzero"/><g clip-path="url(#706f7173bc)"><path fill="#ffffff" d="M 82.144531 91.773438 C 79.191406 91.773438 76.414062 90.621094 74.324219 88.535156 C 72.234375 86.445312 71.082031 83.667969 71.082031 80.710938 C 71.082031 77.757812 72.234375 74.980469 74.324219 72.890625 C 76.414062 70.804688 79.191406 69.652344 82.144531 69.652344 C 85.097656 69.652344 87.875 70.804688 89.964844 72.890625 C 92.054688 74.980469 93.203125 77.757812 93.203125 80.710938 C 93.203125 83.667969 92.054688 86.445312 89.964844 88.535156 C 87.875 90.621094 85.097656 91.773438 82.144531 91.773438 Z M 82.144531 70.339844 C 79.371094 70.339844 76.769531 71.417969 74.808594 73.378906 C 72.847656 75.335938 71.769531 77.941406 71.769531 80.710938 C 71.769531 83.484375 72.847656 86.089844 74.808594 88.046875 C 76.769531 90.007812 79.371094 91.085938 82.144531 91.085938 C 84.914062 91.085938 87.519531 90.007812 89.480469 88.046875 C 91.4375 86.089844 92.519531 83.484375 92.519531 80.710938 C 92.519531 77.941406 91.4375 75.335938 89.480469 73.378906 C 87.519531 71.417969 84.914062 70.339844 82.144531 70.339844 Z M 88.511719 74.34375 C 88.398438 74.226562 88.21875 74.210938 88.082031 74.296875 L 80.660156 79.128906 C 80.652344 79.132812 80.640625 79.140625 80.632812 79.148438 C 80.625 79.15625 80.617188 79.164062 80.609375 79.167969 C 80.605469 79.171875 80.601562 79.175781 80.601562 79.179688 C 80.59375 79.183594 80.585938 79.191406 80.582031 79.199219 C 80.574219 79.210938 80.566406 79.21875 80.558594 79.230469 L 75.730469 86.652344 C 75.640625 86.789062 75.660156 86.96875 75.773438 87.082031 C 75.839844 87.148438 75.929688 87.183594 76.015625 87.183594 C 76.082031 87.183594 76.148438 87.164062 76.203125 87.128906 L 83.628906 82.296875 C 83.648438 82.285156 83.667969 82.269531 83.683594 82.25 C 83.699219 82.234375 83.714844 82.214844 83.726562 82.195312 L 88.558594 74.773438 C 88.648438 74.636719 88.628906 74.457031 88.511719 74.34375 Z M 83.382812 81.46875 L 81.390625 79.472656 L 87.097656 75.757812 Z M 83.382812 81.46875 " fill-opacity="1" fill-rule="nonzero"/></g><g fill="#039be5" fill-opacity="0.4"><g transform="translate(108.518768, 64.145337)"><g><path d="M 12.203125 -13.296875 L 12.203125 0 L 6.46875 0 L 6.46875 -13.296875 L 0.59375 -13.296875 L 0.59375 -17.859375 L 18.046875 -17.859375 L 18.046875 -13.296875 Z M 12.203125 -13.296875 "/></g></g></g><g fill="#039be5" fill-opacity="0.4"><g transform="translate(125.790432, 64.145337)"><g><path d="M 8.640625 -14.015625 C 11.046875 -14.015625 12.9375 -13.40625 14.3125 -12.1875 C 15.695312 -10.96875 16.390625 -9.191406 16.390625 -6.859375 C 16.390625 -4.515625 15.695312 -2.734375 14.3125 -1.515625 C 12.9375 -0.296875 11.046875 0.3125 8.640625 0.3125 C 6.234375 0.3125 4.347656 -0.289062 2.984375 -1.5 C 1.617188 -2.71875 0.9375 -4.503906 0.9375 -6.859375 C 0.9375 -9.210938 1.617188 -10.992188 2.984375 -12.203125 C 4.347656 -13.410156 6.234375 -14.015625 8.640625 -14.015625 Z M 8.640625 -10.515625 C 6.953125 -10.515625 6.109375 -9.535156 6.109375 -7.578125 L 6.109375 -6.109375 C 6.109375 -4.160156 6.953125 -3.1875 8.640625 -3.1875 C 10.359375 -3.1875 11.21875 -4.160156 11.21875 -6.109375 L 11.21875 -7.578125 C 11.21875 -9.535156 10.359375 -10.515625 8.640625 -10.515625 Z M 8.640625 -10.515625 "/></g></g></g><g fill="#039be5" fill-opacity="0.4"><g transform="translate(141.633592, 64.145337)"><g><path d="M 11.53125 0 L 11.09375 -1.953125 C 10.082031 -0.441406 8.625 0.3125 6.71875 0.3125 C 4.875 0.3125 3.445312 -0.289062 2.4375 -1.5 C 1.4375 -2.71875 0.9375 -4.507812 0.9375 -6.875 C 0.9375 -9.226562 1.4375 -11.003906 2.4375 -12.203125 C 3.445312 -13.410156 4.875 -14.015625 6.71875 -14.015625 C 8.300781 -14.015625 9.582031 -13.488281 10.5625 -12.4375 L 10.5625 -18.828125 L 15.734375 -18.828125 L 15.734375 0 Z M 8.34375 -10.203125 C 6.851562 -10.203125 6.109375 -9.3125 6.109375 -7.53125 L 6.109375 -6.15625 C 6.109375 -4.382812 6.851562 -3.5 8.34375 -3.5 C 9.101562 -3.5 9.671875 -3.765625 10.046875 -4.296875 C 10.429688 -4.835938 10.625 -5.546875 10.625 -6.421875 L 10.625 -7.265625 C 10.625 -8.128906 10.429688 -8.832031 10.046875 -9.375 C 9.671875 -9.925781 9.101562 -10.203125 8.34375 -10.203125 Z M 8.34375 -10.203125 "/></g></g></g><g fill="#039be5" fill-opacity="0.4"><g transform="translate(157.476751, 64.145337)"><g><path d="M 8.640625 -14.015625 C 11.046875 -14.015625 12.9375 -13.40625 14.3125 -12.1875 C 15.695312 -10.96875 16.390625 -9.191406 16.390625 -6.859375 C 16.390625 -4.515625 15.695312 -2.734375 14.3125 -1.515625 C 12.9375 -0.296875 11.046875 0.3125 8.640625 0.3125 C 6.234375 0.3125 4.347656 -0.289062 2.984375 -1.5 C 1.617188 -2.71875 0.9375 -4.503906 0.9375 -6.859375 C 0.9375 -9.210938 1.617188 -10.992188 2.984375 -12.203125 C 4.347656 -13.410156 6.234375 -14.015625 8.640625 -14.015625 Z M 8.640625 -10.515625 C 6.953125 -10.515625 6.109375 -9.535156 6.109375 -7.578125 L 6.109375 -6.109375 C 6.109375 -4.160156 6.953125 -3.1875 8.640625 -3.1875 C 10.359375 -3.1875 11.21875 -4.160156 11.21875 -6.109375 L 11.21875 -7.578125 C 11.21875 -9.535156 10.359375 -10.515625 8.640625 -10.515625 Z M 8.640625 -10.515625 "/></g></g></g><g fill="#039be5" fill-opacity="0.4"><g transform="translate(173.319912, 64.145337)"><g><path d="M 11.953125 -17.859375 C 13.054688 -17.859375 14.039062 -17.601562 14.90625 -17.09375 C 15.769531 -16.582031 16.441406 -15.878906 16.921875 -14.984375 C 17.410156 -14.097656 17.65625 -13.101562 17.65625 -12 L 17.65625 -11.65625 C 17.65625 -10.550781 17.410156 -9.546875 16.921875 -8.640625 C 16.441406 -7.742188 15.769531 -7.039062 14.90625 -6.53125 C 14.039062 -6.019531 13.054688 -5.765625 11.953125 -5.765625 L 7.65625 -5.765625 L 7.65625 0 L 1.921875 0 L 1.921875 -17.859375 Z M 7.65625 -9.953125 L 10.03125 -9.953125 C 10.632812 -9.953125 11.085938 -10.101562 11.390625 -10.40625 C 11.691406 -10.71875 11.84375 -11.144531 11.84375 -11.6875 L 11.84375 -11.890625 C 11.84375 -12.441406 11.691406 -12.867188 11.390625 -13.171875 C 11.085938 -13.484375 10.632812 -13.640625 10.03125 -13.640625 L 7.65625 -13.640625 Z M 7.65625 -9.953125 "/></g></g></g><g fill="#039be5" fill-opacity="0.4"><g transform="translate(190.591577, 64.145337)"><g><path d="M 9.890625 -14.046875 C 10.285156 -14.046875 10.640625 -14 10.953125 -13.90625 C 11.265625 -13.8125 11.421875 -13.753906 11.421875 -13.734375 L 11.421875 -9.40625 L 9.765625 -9.40625 C 8.691406 -9.40625 7.914062 -9.125 7.4375 -8.5625 C 6.957031 -8.007812 6.71875 -7.191406 6.71875 -6.109375 L 6.71875 0 L 1.5625 0 L 1.5625 -13.71875 L 5.796875 -13.71875 L 6.125 -11.640625 C 6.4375 -12.429688 6.929688 -13.03125 7.609375 -13.4375 C 8.285156 -13.84375 9.046875 -14.046875 9.890625 -14.046875 Z M 9.890625 -14.046875 "/></g></g></g><g fill="#039be5" fill-opacity="0.4"><g transform="translate(200.642798, 64.145337)"><g><path d="M 8.640625 -14.015625 C 11.148438 -14.015625 13.066406 -13.425781 14.390625 -12.25 C 15.722656 -11.070312 16.390625 -9.273438 16.390625 -6.859375 L 16.390625 -5.96875 L 6.109375 -5.96875 C 6.109375 -4.988281 6.328125 -4.242188 6.765625 -3.734375 C 7.203125 -3.234375 7.898438 -2.984375 8.859375 -2.984375 C 9.722656 -2.984375 10.359375 -3.164062 10.765625 -3.53125 C 11.171875 -3.894531 11.375 -4.378906 11.375 -4.984375 L 16.390625 -4.984375 C 16.390625 -3.328125 15.753906 -2.03125 14.484375 -1.09375 C 13.222656 -0.15625 11.378906 0.3125 8.953125 0.3125 C 6.410156 0.3125 4.4375 -0.28125 3.03125 -1.46875 C 1.632812 -2.65625 0.9375 -4.453125 0.9375 -6.859375 C 0.9375 -9.210938 1.617188 -10.992188 2.984375 -12.203125 C 4.347656 -13.410156 6.234375 -14.015625 8.640625 -14.015625 Z M 8.859375 -10.71875 C 7.234375 -10.71875 6.320312 -9.945312 6.125 -8.40625 L 11.171875 -8.40625 C 11.171875 -9.125 10.96875 -9.6875 10.5625 -10.09375 C 10.15625 -10.507812 9.585938 -10.71875 8.859375 -10.71875 Z M 8.859375 -10.71875 "/></g></g></g><g fill="#039be5" fill-opacity="0.4"><g transform="translate(216.485954, 64.145337)"><g><path d="M 8.078125 -14.015625 C 9.910156 -14.015625 11.460938 -13.65625 12.734375 -12.9375 C 14.003906 -12.226562 14.640625 -11.117188 14.640625 -9.609375 L 9.84375 -9.609375 C 9.84375 -10.109375 9.617188 -10.460938 9.171875 -10.671875 C 8.859375 -10.847656 8.46875 -10.9375 8 -10.9375 C 6.75 -10.9375 6.125 -10.640625 6.125 -10.046875 C 6.125 -9.722656 6.335938 -9.488281 6.765625 -9.34375 C 7.203125 -9.207031 7.914062 -9.0625 8.90625 -8.90625 C 10.113281 -8.726562 11.125 -8.523438 11.9375 -8.296875 C 12.757812 -8.066406 13.472656 -7.648438 14.078125 -7.046875 C 14.679688 -6.453125 14.984375 -5.617188 14.984375 -4.546875 C 14.984375 -2.796875 14.328125 -1.546875 13.015625 -0.796875 C 11.710938 -0.0546875 10.003906 0.3125 7.890625 0.3125 C 6.679688 0.3125 5.539062 0.144531 4.46875 -0.1875 C 3.394531 -0.53125 2.519531 -1.054688 1.84375 -1.765625 C 1.164062 -2.472656 0.828125 -3.375 0.828125 -4.46875 L 5.640625 -4.46875 L 5.640625 -4.359375 C 5.648438 -3.773438 5.894531 -3.363281 6.375 -3.125 C 6.851562 -2.894531 7.359375 -2.78125 7.890625 -2.78125 C 9.328125 -2.78125 10.046875 -3.117188 10.046875 -3.796875 C 10.046875 -4.140625 9.820312 -4.390625 9.375 -4.546875 C 8.925781 -4.703125 8.191406 -4.863281 7.171875 -5.03125 C 5.941406 -5.238281 4.929688 -5.460938 4.140625 -5.703125 C 3.347656 -5.953125 2.65625 -6.363281 2.0625 -6.9375 C 1.476562 -7.519531 1.1875 -8.332031 1.1875 -9.375 C 1.1875 -11.050781 1.820312 -12.242188 3.09375 -12.953125 C 4.375 -13.660156 6.035156 -14.015625 8.078125 -14.015625 Z M 8.078125 -14.015625 "/></g></g></g><g fill="#039be5" fill-opacity="0.4"><g transform="translate(230.874636, 64.145337)"><g><path d="M 10.703125 -13.71875 L 10.703125 -10.203125 L 7.796875 -10.203125 L 7.796875 -4.984375 C 7.796875 -4.359375 7.894531 -3.898438 8.09375 -3.609375 C 8.300781 -3.328125 8.6875 -3.1875 9.25 -3.1875 L 10.703125 -3.1875 L 10.703125 -0.15625 C 10.285156 -0.0195312 9.75 0.0859375 9.09375 0.171875 C 8.4375 0.265625 7.863281 0.3125 7.375 0.3125 C 5.851562 0.3125 4.679688 0.0351562 3.859375 -0.515625 C 3.035156 -1.066406 2.625 -2.007812 2.625 -3.34375 L 2.625 -10.203125 L 0.703125 -10.203125 L 0.703125 -13.71875 L 2.828125 -13.71875 L 3.953125 -17.859375 L 7.796875 -17.859375 L 7.796875 -13.71875 Z M 10.703125 -13.71875 "/></g></g></g><g fill="#039be5" fill-opacity="0.4"><g transform="translate(240.925857, 64.145337)"><g><path d="M 8.34375 -14.015625 C 10.4375 -14.015625 12.140625 -13.664062 13.453125 -12.96875 C 14.765625 -12.269531 15.421875 -11.132812 15.421875 -9.5625 L 15.421875 -4.203125 C 15.421875 -3.910156 15.488281 -3.664062 15.625 -3.46875 C 15.769531 -3.28125 15.976562 -3.1875 16.25 -3.1875 L 17.1875 -3.1875 L 17.1875 -0.203125 C 17.132812 -0.171875 17 -0.113281 16.78125 -0.03125 C 16.570312 0.0390625 16.265625 0.113281 15.859375 0.1875 C 15.460938 0.269531 15.003906 0.3125 14.484375 0.3125 C 13.484375 0.3125 12.65625 0.160156 12 -0.140625 C 11.351562 -0.441406 10.910156 -0.863281 10.671875 -1.40625 C 10.015625 -0.882812 9.28125 -0.46875 8.46875 -0.15625 C 7.65625 0.15625 6.703125 0.3125 5.609375 0.3125 C 2.390625 0.3125 0.78125 -0.96875 0.78125 -3.53125 C 0.78125 -4.863281 1.140625 -5.878906 1.859375 -6.578125 C 2.578125 -7.285156 3.609375 -7.765625 4.953125 -8.015625 C 6.304688 -8.273438 8.070312 -8.40625 10.25 -8.40625 L 10.25 -9.09375 C 10.25 -9.625 10.0625 -10.023438 9.6875 -10.296875 C 9.320312 -10.578125 8.847656 -10.71875 8.265625 -10.71875 C 7.722656 -10.71875 7.253906 -10.625 6.859375 -10.4375 C 6.472656 -10.25 6.28125 -9.945312 6.28125 -9.53125 L 6.28125 -9.421875 L 1.1875 -9.421875 C 1.175781 -9.515625 1.171875 -9.640625 1.171875 -9.796875 C 1.171875 -11.085938 1.785156 -12.113281 3.015625 -12.875 C 4.253906 -13.632812 6.03125 -14.015625 8.34375 -14.015625 Z M 10.25 -5.96875 C 8.78125 -5.96875 7.695312 -5.804688 7 -5.484375 C 6.300781 -5.171875 5.953125 -4.742188 5.953125 -4.203125 C 5.953125 -3.335938 6.539062 -2.90625 7.71875 -2.90625 C 8.382812 -2.90625 8.972656 -3.085938 9.484375 -3.453125 C 9.992188 -3.816406 10.25 -4.265625 10.25 -4.796875 Z M 10.25 -5.96875 "/></g></g></g><g fill="#039be5" fill-opacity="0.4"><g transform="translate(256.769013, 64.145337)"><g><path d="M 11.53125 0 L 11.09375 -1.953125 C 10.082031 -0.441406 8.625 0.3125 6.71875 0.3125 C 4.875 0.3125 3.445312 -0.289062 2.4375 -1.5 C 1.4375 -2.71875 0.9375 -4.507812 0.9375 -6.875 C 0.9375 -9.226562 1.4375 -11.003906 2.4375 -12.203125 C 3.445312 -13.410156 4.875 -14.015625 6.71875 -14.015625 C 8.300781 -14.015625 9.582031 -13.488281 10.5625 -12.4375 L 10.5625 -18.828125 L 15.734375 -18.828125 L 15.734375 0 Z M 8.34375 -10.203125 C 6.851562 -10.203125 6.109375 -9.3125 6.109375 -7.53125 L 6.109375 -6.15625 C 6.109375 -4.382812 6.851562 -3.5 8.34375 -3.5 C 9.101562 -3.5 9.671875 -3.765625 10.046875 -4.296875 C 10.429688 -4.835938 10.625 -5.546875 10.625 -6.421875 L 10.625 -7.265625 C 10.625 -8.128906 10.429688 -8.832031 10.046875 -9.375 C 9.671875 -9.925781 9.101562 -10.203125 8.34375 -10.203125 Z M 8.34375 -10.203125 "/></g></g></g><g fill="#039be5" fill-opacity="0.4"><g transform="translate(272.612169, 64.145337)"><g><path d="M 8.640625 -14.015625 C 11.046875 -14.015625 12.9375 -13.40625 14.3125 -12.1875 C 15.695312 -10.96875 16.390625 -9.191406 16.390625 -6.859375 C 16.390625 -4.515625 15.695312 -2.734375 14.3125 -1.515625 C 12.9375 -0.296875 11.046875 0.3125 8.640625 0.3125 C 6.234375 0.3125 4.347656 -0.289062 2.984375 -1.5 C 1.617188 -2.71875 0.9375 -4.503906 0.9375 -6.859375 C 0.9375 -9.210938 1.617188 -10.992188 2.984375 -12.203125 C 4.347656 -13.410156 6.234375 -14.015625 8.640625 -14.015625 Z M 8.640625 -10.515625 C 6.953125 -10.515625 6.109375 -9.535156 6.109375 -7.578125 L 6.109375 -6.109375 C 6.109375 -4.160156 6.953125 -3.1875 8.640625 -3.1875 C 10.359375 -3.1875 11.21875 -4.160156 11.21875 -6.109375 L 11.21875 -7.578125 C 11.21875 -9.535156 10.359375 -10.515625 8.640625 -10.515625 Z M 8.640625 -10.515625 "/></g></g></g><g fill="#ffffff" fill-opacity="1"><g transform="translate(108.518768, 64.145337)"><g><path d="M 12.203125 -13.296875 L 12.203125 0 L 6.46875 0 L 6.46875 -13.296875 L 0.59375 -13.296875 L 0.59375 -17.859375 L 18.046875 -17.859375 L 18.046875 -13.296875 Z M 12.203125 -13.296875 "/></g></g></g><g fill="#ffffff" fill-opacity="1"><g transform="translate(125.790432, 64.145337)"><g><path d="M 8.640625 -14.015625 C 11.046875 -14.015625 12.9375 -13.40625 14.3125 -12.1875 C 15.695312 -10.96875 16.390625 -9.191406 16.390625 -6.859375 C 16.390625 -4.515625 15.695312 -2.734375 14.3125 -1.515625 C 12.9375 -0.296875 11.046875 0.3125 8.640625 0.3125 C 6.234375 0.3125 4.347656 -0.289062 2.984375 -1.5 C 1.617188 -2.71875 0.9375 -4.503906 0.9375 -6.859375 C 0.9375 -9.210938 1.617188 -10.992188 2.984375 -12.203125 C 4.347656 -13.410156 6.234375 -14.015625 8.640625 -14.015625 Z M 8.640625 -10.515625 C 6.953125 -10.515625 6.109375 -9.535156 6.109375 -7.578125 L 6.109375 -6.109375 C 6.109375 -4.160156 6.953125 -3.1875 8.640625 -3.1875 C 10.359375 -3.1875 11.21875 -4.160156 11.21875 -6.109375 L 11.21875 -7.578125 C 11.21875 -9.535156 10.359375 -10.515625 8.640625 -10.515625 Z M 8.640625 -10.515625 "/></g></g></g><g fill="#ffffff" fill-opacity="1"><g transform="translate(141.633592, 64.145337)"><g><path d="M 11.53125 0 L 11.09375 -1.953125 C 10.082031 -0.441406 8.625 0.3125 6.71875 0.3125 C 4.875 0.3125 3.445312 -0.289062 2.4375 -1.5 C 1.4375 -2.71875 0.9375 -4.507812 0.9375 -6.875 C 0.9375 -9.226562 1.4375 -11.003906 2.4375 -12.203125 C 3.445312 -13.410156 4.875 -14.015625 6.71875 -14.015625 C 8.300781 -14.015625 9.582031 -13.488281 10.5625 -12.4375 L 10.5625 -18.828125 L 15.734375 -18.828125 L 15.734375 0 Z M 8.34375 -10.203125 C 6.851562 -10.203125 6.109375 -9.3125 6.109375 -7.53125 L 6.109375 -6.15625 C 6.109375 -4.382812 6.851562 -3.5 8.34375 -3.5 C 9.101562 -3.5 9.671875 -3.765625 10.046875 -4.296875 C 10.429688 -4.835938 10.625 -5.546875 10.625 -6.421875 L 10.625 -7.265625 C 10.625 -8.128906 10.429688 -8.832031 10.046875 -9.375 C 9.671875 -9.925781 9.101562 -10.203125 8.34375 -10.203125 Z M 8.34375 -10.203125 "/></g></g></g><g fill="#ffffff" fill-opacity="1"><g transform="translate(157.476751, 64.145337)"><g><path d="M 8.640625 -14.015625 C 11.046875 -14.015625 12.9375 -13.40625 14.3125 -12.1875 C 15.695312 -10.96875 16.390625 -9.191406 16.390625 -6.859375 C 16.390625 -4.515625 15.695312 -2.734375 14.3125 -1.515625 C 12.9375 -0.296875 11.046875 0.3125 8.640625 0.3125 C 6.234375 0.3125 4.347656 -0.289062 2.984375 -1.5 C 1.617188 -2.71875 0.9375 -4.503906 0.9375 -6.859375 C 0.9375 -9.210938 1.617188 -10.992188 2.984375 -12.203125 C 4.347656 -13.410156 6.234375 -14.015625 8.640625 -14.015625 Z M 8.640625 -10.515625 C 6.953125 -10.515625 6.109375 -9.535156 6.109375 -7.578125 L 6.109375 -6.109375 C 6.109375 -4.160156 6.953125 -3.1875 8.640625 -3.1875 C 10.359375 -3.1875 11.21875 -4.160156 11.21875 -6.109375 L 11.21875 -7.578125 C 11.21875 -9.535156 10.359375 -10.515625 8.640625 -10.515625 Z M 8.640625 -10.515625 "/></g></g></g><g fill="#ffffff" fill-opacity="1"><g transform="translate(173.319912, 64.145337)"><g><path d="M 11.953125 -17.859375 C 13.054688 -17.859375 14.039062 -17.601562 14.90625 -17.09375 C 15.769531 -16.582031 16.441406 -15.878906 16.921875 -14.984375 C 17.410156 -14.097656 17.65625 -13.101562 17.65625 -12 L 17.65625 -11.65625 C 17.65625 -10.550781 17.410156 -9.546875 16.921875 -8.640625 C 16.441406 -7.742188 15.769531 -7.039062 14.90625 -6.53125 C 14.039062 -6.019531 13.054688 -5.765625 11.953125 -5.765625 L 7.65625 -5.765625 L 7.65625 0 L 1.921875 0 L 1.921875 -17.859375 Z M 7.65625 -9.953125 L 10.03125 -9.953125 C 10.632812 -9.953125 11.085938 -10.101562 11.390625 -10.40625 C 11.691406 -10.71875 11.84375 -11.144531 11.84375 -11.6875 L 11.84375 -11.890625 C 11.84375 -12.441406 11.691406 -12.867188 11.390625 -13.171875 C 11.085938 -13.484375 10.632812 -13.640625 10.03125 -13.640625 L 7.65625 -13.640625 Z M 7.65625 -9.953125 "/></g></g></g><g fill="#ffffff" fill-opacity="1"><g transform="translate(190.591577, 64.145337)"><g><path d="M 9.890625 -14.046875 C 10.285156 -14.046875 10.640625 -14 10.953125 -13.90625 C 11.265625 -13.8125 11.421875 -13.753906 11.421875 -13.734375 L 11.421875 -9.40625 L 9.765625 -9.40625 C 8.691406 -9.40625 7.914062 -9.125 7.4375 -8.5625 C 6.957031 -8.007812 6.71875 -7.191406 6.71875 -6.109375 L 6.71875 0 L 1.5625 0 L 1.5625 -13.71875 L 5.796875 -13.71875 L 6.125 -11.640625 C 6.4375 -12.429688 6.929688 -13.03125 7.609375 -13.4375 C 8.285156 -13.84375 9.046875 -14.046875 9.890625 -14.046875 Z M 9.890625 -14.046875 "/></g></g></g><g fill="#ffffff" fill-opacity="1"><g transform="translate(200.642798, 64.145337)"><g><path d="M 8.640625 -14.015625 C 11.148438 -14.015625 13.066406 -13.425781 14.390625 -12.25 C 15.722656 -11.070312 16.390625 -9.273438 16.390625 -6.859375 L 16.390625 -5.96875 L 6.109375 -5.96875 C 6.109375 -4.988281 6.328125 -4.242188 6.765625 -3.734375 C 7.203125 -3.234375 7.898438 -2.984375 8.859375 -2.984375 C 9.722656 -2.984375 10.359375 -3.164062 10.765625 -3.53125 C 11.171875 -3.894531 11.375 -4.378906 11.375 -4.984375 L 16.390625 -4.984375 C 16.390625 -3.328125 15.753906 -2.03125 14.484375 -1.09375 C 13.222656 -0.15625 11.378906 0.3125 8.953125 0.3125 C 6.410156 0.3125 4.4375 -0.28125 3.03125 -1.46875 C 1.632812 -2.65625 0.9375 -4.453125 0.9375 -6.859375 C 0.9375 -9.210938 1.617188 -10.992188 2.984375 -12.203125 C 4.347656 -13.410156 6.234375 -14.015625 8.640625 -14.015625 Z M 8.859375 -10.71875 C 7.234375 -10.71875 6.320312 -9.945312 6.125 -8.40625 L 11.171875 -8.40625 C 11.171875 -9.125 10.96875 -9.6875 10.5625 -10.09375 C 10.15625 -10.507812 9.585938 -10.71875 8.859375 -10.71875 Z M 8.859375 -10.71875 "/></g></g></g><g fill="#ffffff" fill-opacity="1"><g transform="translate(216.485954, 64.145337)"><g><path d="M 8.078125 -14.015625 C 9.910156 -14.015625 11.460938 -13.65625 12.734375 -12.9375 C 14.003906 -12.226562 14.640625 -11.117188 14.640625 -9.609375 L 9.84375 -9.609375 C 9.84375 -10.109375 9.617188 -10.460938 9.171875 -10.671875 C 8.859375 -10.847656 8.46875 -10.9375 8 -10.9375 C 6.75 -10.9375 6.125 -10.640625 6.125 -10.046875 C 6.125 -9.722656 6.335938 -9.488281 6.765625 -9.34375 C 7.203125 -9.207031 7.914062 -9.0625 8.90625 -8.90625 C 10.113281 -8.726562 11.125 -8.523438 11.9375 -8.296875 C 12.757812 -8.066406 13.472656 -7.648438 14.078125 -7.046875 C 14.679688 -6.453125 14.984375 -5.617188 14.984375 -4.546875 C 14.984375 -2.796875 14.328125 -1.546875 13.015625 -0.796875 C 11.710938 -0.0546875 10.003906 0.3125 7.890625 0.3125 C 6.679688 0.3125 5.539062 0.144531 4.46875 -0.1875 C 3.394531 -0.53125 2.519531 -1.054688 1.84375 -1.765625 C 1.164062 -2.472656 0.828125 -3.375 0.828125 -4.46875 L 5.640625 -4.46875 L 5.640625 -4.359375 C 5.648438 -3.773438 5.894531 -3.363281 6.375 -3.125 C 6.851562 -2.894531 7.359375 -2.78125 7.890625 -2.78125 C 9.328125 -2.78125 10.046875 -3.117188 10.046875 -3.796875 C 10.046875 -4.140625 9.820312 -4.390625 9.375 -4.546875 C 8.925781 -4.703125 8.191406 -4.863281 7.171875 -5.03125 C 5.941406 -5.238281 4.929688 -5.460938 4.140625 -5.703125 C 3.347656 -5.953125 2.65625 -6.363281 2.0625 -6.9375 C 1.476562 -7.519531 1.1875 -8.332031 1.1875 -9.375 C 1.1875 -11.050781 1.820312 -12.242188 3.09375 -12.953125 C 4.375 -13.660156 6.035156 -14.015625 8.078125 -14.015625 Z M 8.078125 -14.015625 "/></g></g></g><g fill="#ffffff" fill-opacity="1"><g transform="translate(230.874636, 64.145337)"><g><path d="M 10.703125 -13.71875 L 10.703125 -10.203125 L 7.796875 -10.203125 L 7.796875 -4.984375 C 7.796875 -4.359375 7.894531 -3.898438 8.09375 -3.609375 C 8.300781 -3.328125 8.6875 -3.1875 9.25 -3.1875 L 10.703125 -3.1875 L 10.703125 -0.15625 C 10.285156 -0.0195312 9.75 0.0859375 9.09375 0.171875 C 8.4375 0.265625 7.863281 0.3125 7.375 0.3125 C 5.851562 0.3125 4.679688 0.0351562 3.859375 -0.515625 C 3.035156 -1.066406 2.625 -2.007812 2.625 -3.34375 L 2.625 -10.203125 L 0.703125 -10.203125 L 0.703125 -13.71875 L 2.828125 -13.71875 L 3.953125 -17.859375 L 7.796875 -17.859375 L 7.796875 -13.71875 Z M 10.703125 -13.71875 "/></g></g></g><g fill="#ffffff" fill-opacity="1"><g transform="translate(240.925857, 64.145337)"><g><path d="M 8.34375 -14.015625 C 10.4375 -14.015625 12.140625 -13.664062 13.453125 -12.96875 C 14.765625 -12.269531 15.421875 -11.132812 15.421875 -9.5625 L 15.421875 -4.203125 C 15.421875 -3.910156 15.488281 -3.664062 15.625 -3.46875 C 15.769531 -3.28125 15.976562 -3.1875 16.25 -3.1875 L 17.1875 -3.1875 L 17.1875 -0.203125 C 17.132812 -0.171875 17 -0.113281 16.78125 -0.03125 C 16.570312 0.0390625 16.265625 0.113281 15.859375 0.1875 C 15.460938 0.269531 15.003906 0.3125 14.484375 0.3125 C 13.484375 0.3125 12.65625 0.160156 12 -0.140625 C 11.351562 -0.441406 10.910156 -0.863281 10.671875 -1.40625 C 10.015625 -0.882812 9.28125 -0.46875 8.46875 -0.15625 C 7.65625 0.15625 6.703125 0.3125 5.609375 0.3125 C 2.390625 0.3125 0.78125 -0.96875 0.78125 -3.53125 C 0.78125 -4.863281 1.140625 -5.878906 1.859375 -6.578125 C 2.578125 -7.285156 3.609375 -7.765625 4.953125 -8.015625 C 6.304688 -8.273438 8.070312 -8.40625 10.25 -8.40625 L 10.25 -9.09375 C 10.25 -9.625 10.0625 -10.023438 9.6875 -10.296875 C 9.320312 -10.578125 8.847656 -10.71875 8.265625 -10.71875 C 7.722656 -10.71875 7.253906 -10.625 6.859375 -10.4375 C 6.472656 -10.25 6.28125 -9.945312 6.28125 -9.53125 L 6.28125 -9.421875 L 1.1875 -9.421875 C 1.175781 -9.515625 1.171875 -9.640625 1.171875 -9.796875 C 1.171875 -11.085938 1.785156 -12.113281 3.015625 -12.875 C 4.253906 -13.632812 6.03125 -14.015625 8.34375 -14.015625 Z M 10.25 -5.96875 C 8.78125 -5.96875 7.695312 -5.804688 7 -5.484375 C 6.300781 -5.171875 5.953125 -4.742188 5.953125 -4.203125 C 5.953125 -3.335938 6.539062 -2.90625 7.71875 -2.90625 C 8.382812 -2.90625 8.972656 -3.085938 9.484375 -3.453125 C 9.992188 -3.816406 10.25 -4.265625 10.25 -4.796875 Z M 10.25 -5.96875 "/></g></g></g><g fill="#ffffff" fill-opacity="1"><g transform="translate(256.769013, 64.145337)"><g><path d="M 11.53125 0 L 11.09375 -1.953125 C 10.082031 -0.441406 8.625 0.3125 6.71875 0.3125 C 4.875 0.3125 3.445312 -0.289062 2.4375 -1.5 C 1.4375 -2.71875 0.9375 -4.507812 0.9375 -6.875 C 0.9375 -9.226562 1.4375 -11.003906 2.4375 -12.203125 C 3.445312 -13.410156 4.875 -14.015625 6.71875 -14.015625 C 8.300781 -14.015625 9.582031 -13.488281 10.5625 -12.4375 L 10.5625 -18.828125 L 15.734375 -18.828125 L 15.734375 0 Z M 8.34375 -10.203125 C 6.851562 -10.203125 6.109375 -9.3125 6.109375 -7.53125 L 6.109375 -6.15625 C 6.109375 -4.382812 6.851562 -3.5 8.34375 -3.5 C 9.101562 -3.5 9.671875 -3.765625 10.046875 -4.296875 C 10.429688 -4.835938 10.625 -5.546875 10.625 -6.421875 L 10.625 -7.265625 C 10.625 -8.128906 10.429688 -8.832031 10.046875 -9.375 C 9.671875 -9.925781 9.101562 -10.203125 8.34375 -10.203125 Z M 8.34375 -10.203125 "/></g></g></g><g fill="#ffffff" fill-opacity="1"><g transform="translate(272.612169, 64.145337)"><g><path d="M 8.640625 -14.015625 C 11.046875 -14.015625 12.9375 -13.40625 14.3125 -12.1875 C 15.695312 -10.96875 16.390625 -9.191406 16.390625 -6.859375 C 16.390625 -4.515625 15.695312 -2.734375 14.3125 -1.515625 C 12.9375 -0.296875 11.046875 0.3125 8.640625 0.3125 C 6.234375 0.3125 4.347656 -0.289062 2.984375 -1.5 C 1.617188 -2.71875 0.9375 -4.503906 0.9375 -6.859375 C 0.9375 -9.210938 1.617188 -10.992188 2.984375 -12.203125 C 4.347656 -13.410156 6.234375 -14.015625 8.640625 -14.015625 Z M 8.640625 -10.515625 C 6.953125 -10.515625 6.109375 -9.535156 6.109375 -7.578125 L 6.109375 -6.109375 C 6.109375 -4.160156 6.953125 -3.1875 8.640625 -3.1875 C 10.359375 -3.1875 11.21875 -4.160156 11.21875 -6.109375 L 11.21875 -7.578125 C 11.21875 -9.535156 10.359375 -10.515625 8.640625 -10.515625 Z M 8.640625 -10.515625 "/></g></g></g></svg>