<svg xmlns="http://www.w3.org/2000/svg" xmlns:xlink="http://www.w3.org/1999/xlink" width="400" zoomAndPan="magnify" viewBox="0 0 300 112.499997" height="150" preserveAspectRatio="xMidYMid meet" version="1.0"><defs><g/><clipPath id="c2ad93f50f"><path d="M 43.027344 43.234375 L 69.152344 43.234375 L 69.152344 69.359375 L 43.027344 69.359375 Z M 43.027344 43.234375 " clip-rule="nonzero"/></clipPath><clipPath id="f01d299a1f"><path d="M 56.15625 43.234375 C 48.902344 43.234375 43.027344 49.113281 43.027344 56.363281 C 43.027344 63.613281 48.902344 69.492188 56.15625 69.492188 C 63.40625 69.492188 69.285156 63.613281 69.285156 56.363281 C 69.285156 49.113281 63.40625 43.234375 56.15625 43.234375 Z M 56.15625 43.234375 " clip-rule="nonzero"/></clipPath><clipPath id="69268c608b"><path d="M 10.730469 11.199219 L 50.011719 11.199219 L 50.011719 50.480469 L 10.730469 50.480469 Z M 10.730469 11.199219 " clip-rule="nonzero"/></clipPath><clipPath id="ef2bd24cb0"><path d="M 30.371094 11.199219 C 19.523438 11.199219 10.730469 19.992188 10.730469 30.839844 C 10.730469 41.6875 19.523438 50.480469 30.371094 50.480469 C 41.21875 50.480469 50.011719 41.6875 50.011719 30.839844 C 50.011719 19.992188 41.21875 11.199219 30.371094 11.199219 Z M 30.371094 11.199219 " clip-rule="nonzero"/></clipPath><clipPath id="6f3757ee98"><path d="M 62.503906 11.199219 L 101.785156 11.199219 L 101.785156 50.480469 L 62.503906 50.480469 Z M 62.503906 11.199219 " clip-rule="nonzero"/></clipPath><clipPath id="6e83c225c9"><path d="M 82.144531 11.199219 C 71.296875 11.199219 62.503906 19.992188 62.503906 30.839844 C 62.503906 41.6875 71.296875 50.480469 82.144531 50.480469 C 92.992188 50.480469 101.785156 41.6875 101.785156 30.839844 C 101.785156 19.992188 92.992188 11.199219 82.144531 11.199219 Z M 82.144531 11.199219 " clip-rule="nonzero"/></clipPath><clipPath id="de0e3425bc"><path d="M 10.730469 61.070312 L 50.011719 61.070312 L 50.011719 100.351562 L 10.730469 100.351562 Z M 10.730469 61.070312 " clip-rule="nonzero"/></clipPath><clipPath id="ea07b06df7"><path d="M 30.371094 61.070312 C 19.523438 61.070312 10.730469 69.863281 10.730469 80.710938 C 10.730469 91.558594 19.523438 100.351562 30.371094 100.351562 C 41.21875 100.351562 50.011719 91.558594 50.011719 80.710938 C 50.011719 69.863281 41.21875 61.070312 30.371094 61.070312 Z M 30.371094 61.070312 " clip-rule="nonzero"/></clipPath><clipPath id="7e09feeb41"><path d="M 62.503906 61.070312 L 101.785156 61.070312 L 101.785156 100.351562 L 62.503906 100.351562 Z M 62.503906 61.070312 " clip-rule="nonzero"/></clipPath><clipPath id="bff2d8a3d3"><path d="M 82.144531 61.070312 C 71.296875 61.070312 62.503906 69.863281 62.503906 80.710938 C 62.503906 91.558594 71.296875 100.351562 82.144531 100.351562 C 92.992188 100.351562 101.785156 91.558594 101.785156 80.710938 C 101.785156 69.863281 92.992188 61.070312 82.144531 61.070312 Z M 82.144531 61.070312 " clip-rule="nonzero"/></clipPath><clipPath id="c81cf63956"><path d="M 49.808594 49.429688 L 62.625 49.429688 L 62.625 62.246094 L 49.808594 62.246094 Z M 49.808594 49.429688 " clip-rule="nonzero"/></clipPath><clipPath id="ec4506e8a4"><path d="M 9.675781 50.976562 L 45.824219 50.976562 L 45.824219 60.578125 L 9.675781 60.578125 Z M 9.675781 50.976562 " clip-rule="nonzero"/></clipPath><clipPath id="00b26ecb17"><path d="M 14.472656 50.976562 L 41 50.976562 C 42.273438 50.976562 43.496094 51.484375 44.394531 52.382812 C 45.296875 53.285156 45.800781 54.503906 45.800781 55.777344 C 45.800781 57.050781 45.296875 58.273438 44.394531 59.171875 C 43.496094 60.074219 42.273438 60.578125 41 60.578125 L 14.472656 60.578125 C 13.203125 60.578125 11.980469 60.074219 11.082031 59.171875 C 10.179688 58.273438 9.675781 57.050781 9.675781 55.777344 C 9.675781 54.503906 10.179688 53.285156 11.082031 52.382812 C 11.980469 51.484375 13.203125 50.976562 14.472656 50.976562 Z M 14.472656 50.976562 " clip-rule="nonzero"/></clipPath><clipPath id="50ad94115d"><path d="M 30.371094 50.976562 L 44.703125 50.976562 L 44.703125 60.578125 L 30.371094 60.578125 Z M 30.371094 50.976562 " clip-rule="nonzero"/></clipPath><clipPath id="0a7ca80089"><path d="M 66.269531 50.976562 L 101.78125 50.976562 L 101.78125 60.574219 L 66.269531 60.574219 Z M 66.269531 50.976562 " clip-rule="nonzero"/></clipPath><clipPath id="bfb1757d94"><path d="M 96.984375 60.574219 L 71.085938 60.574219 C 69.8125 60.574219 68.59375 60.070312 67.691406 59.167969 C 66.792969 58.269531 66.285156 57.046875 66.285156 55.773438 C 66.285156 54.503906 66.792969 53.28125 67.691406 52.382812 C 68.59375 51.480469 69.8125 50.976562 71.085938 50.976562 L 96.984375 50.976562 C 98.257812 50.976562 99.476562 51.480469 100.378906 52.382812 C 101.277344 53.28125 101.78125 54.503906 101.78125 55.773438 C 101.78125 57.046875 101.277344 58.269531 100.378906 59.167969 C 99.476562 60.070312 98.257812 60.574219 96.984375 60.574219 Z M 96.984375 60.574219 " clip-rule="nonzero"/></clipPath><clipPath id="f647fd5b1e"><path d="M 67.371094 50.976562 L 81.449219 50.976562 L 81.449219 60.574219 L 67.371094 60.574219 Z M 67.371094 50.976562 " clip-rule="nonzero"/></clipPath><clipPath id="b472c399a9"><path d="M 51.355469 66.527344 L 60.957031 66.527344 L 60.957031 100.355469 L 51.355469 100.355469 Z M 51.355469 66.527344 " clip-rule="nonzero"/></clipPath><clipPath id="0ab8cf0cce"><path d="M 51.355469 95.554688 L 51.355469 71.347656 C 51.355469 70.074219 51.859375 68.851562 52.761719 67.953125 C 53.660156 67.050781 54.882812 66.546875 56.15625 66.546875 C 57.429688 66.546875 58.648438 67.050781 59.550781 67.953125 C 60.449219 68.851562 60.957031 70.074219 60.957031 71.347656 L 60.957031 95.554688 C 60.957031 96.828125 60.449219 98.046875 59.550781 98.949219 C 58.648438 99.847656 57.429688 100.355469 56.15625 100.355469 C 54.882812 100.355469 53.660156 99.847656 52.761719 98.949219 C 51.859375 98.046875 51.355469 96.828125 51.355469 95.554688 Z M 51.355469 95.554688 " clip-rule="nonzero"/></clipPath><clipPath id="ffaa331046"><path d="M 51.355469 67.574219 L 60.957031 67.574219 L 60.957031 80.984375 L 51.355469 80.984375 Z M 51.355469 67.574219 " clip-rule="nonzero"/></clipPath><clipPath id="b9b7da0809"><path d="M 51.351562 12.558594 L 60.953125 12.558594 L 60.953125 46.386719 L 51.351562 46.386719 Z M 51.351562 12.558594 " clip-rule="nonzero"/></clipPath><clipPath id="959d55fb8c"><path d="M 60.953125 17.359375 L 60.953125 41.566406 C 60.953125 42.839844 60.445312 44.0625 59.546875 44.960938 C 58.648438 45.863281 57.425781 46.367188 56.152344 46.367188 C 54.878906 46.367188 53.660156 45.863281 52.757812 44.960938 C 51.859375 44.0625 51.351562 42.839844 51.351562 41.566406 L 51.351562 17.359375 C 51.351562 16.085938 51.859375 14.867188 52.757812 13.964844 C 53.660156 13.066406 54.878906 12.558594 56.152344 12.558594 C 57.425781 12.558594 58.648438 13.066406 59.546875 13.964844 C 60.445312 14.867188 60.953125 16.085938 60.953125 17.359375 Z M 60.953125 17.359375 " clip-rule="nonzero"/></clipPath><clipPath id="fc1b15141b"><path d="M 51.351562 31.929688 L 60.953125 31.929688 L 60.953125 45.339844 L 51.351562 45.339844 Z M 51.351562 31.929688 " clip-rule="nonzero"/></clipPath><clipPath id="9a105eb5d5"><path d="M 21.03125 79 L 32 79 L 32 90 L 21.03125 90 Z M 21.03125 79 " clip-rule="nonzero"/></clipPath><clipPath id="5b9a89fa69"><path d="M 28 71.375 L 39.765625 71.375 L 39.765625 83 L 28 83 Z M 28 71.375 " clip-rule="nonzero"/></clipPath><clipPath id="703af8bde6"><path d="M 30 80 L 39.765625 80 L 39.765625 90 L 30 90 Z M 30 80 " clip-rule="nonzero"/></clipPath><clipPath id="07312582a8"><path d="M 21.03125 71.375 L 31 71.375 L 31 81 L 21.03125 81 Z M 21.03125 71.375 " clip-rule="nonzero"/></clipPath><clipPath id="d5d9beb916"><path d="M 68.902344 20.964844 L 95.519531 20.964844 L 95.519531 37.726562 L 68.902344 37.726562 Z M 68.902344 20.964844 " clip-rule="nonzero"/></clipPath><clipPath id="ddde6eba70"><path d="M 32 28 L 42.921875 28 L 42.921875 39.035156 L 32 39.035156 Z M 32 28 " clip-rule="nonzero"/></clipPath><clipPath id="2044923a7f"><path d="M 17.78125 28 L 29 28 L 29 39.035156 L 17.78125 39.035156 Z M 17.78125 28 " clip-rule="nonzero"/></clipPath><clipPath id="23f812bcab"><path d="M 30 22.769531 L 39 22.769531 L 39 35 L 30 35 Z M 30 22.769531 " clip-rule="nonzero"/></clipPath><clipPath id="e18ec6c6fb"><path d="M 71.082031 69.652344 L 93.265625 69.652344 L 93.265625 91.835938 L 71.082031 91.835938 Z M 71.082031 69.652344 " clip-rule="nonzero"/></clipPath></defs><g clip-path="url(#c2ad93f50f)"><g clip-path="url(#f01d299a1f)"><path stroke-linecap="butt" transform="matrix(0.492951, 0, 0, 0.492951, 43.026388, 43.234246)" fill="none" stroke-linejoin="miter" d="M 26.635247 0.000261059 C 11.919967 0.000261059 0.00193792 11.926215 0.00193792 26.63357 C 0.00193792 41.340925 11.919967 53.266879 26.635247 53.266879 C 41.342602 53.266879 53.268556 41.340925 53.268556 26.63357 C 53.268556 11.926215 41.342602 0.000261059 26.635247 0.000261059 Z M 26.635247 0.000261059 " stroke="#000000" stroke-width="21.206057" stroke-opacity="1" stroke-miterlimit="4"/></g></g><g clip-path="url(#69268c608b)"><g clip-path="url(#ef2bd24cb0)"><path stroke-linecap="butt" transform="matrix(0.492951, 0, 0, 0.492951, 10.72964, 11.20022)" fill="none" stroke-linejoin="miter" d="M 39.844667 -0.00203204 C 17.839103 -0.00203204 0.00168035 17.835391 0.00168035 39.840954 C 0.00168035 61.846518 17.839103 79.683941 39.844667 79.683941 C 61.85023 79.683941 79.687653 61.846518 79.687653 39.840954 C 79.687653 17.835391 61.85023 -0.00203204 39.844667 -0.00203204 Z M 39.844667 -0.00203204 " stroke="#000000" stroke-width="15.147183" stroke-opacity="1" stroke-miterlimit="4"/></g></g><g clip-path="url(#6f3757ee98)"><g clip-path="url(#6e83c225c9)"><path stroke-linecap="butt" transform="matrix(0.492951, 0, 0, 0.492951, 62.502792, 11.20022)" fill="none" stroke-linejoin="miter" d="M 39.845247 -0.00203204 C 17.839684 -0.00203204 0.00226104 17.835391 0.00226104 39.840954 C 0.00226104 61.846518 17.839684 79.683941 39.845247 79.683941 C 61.850811 79.683941 79.688234 61.846518 79.688234 39.840954 C 79.688234 17.835391 61.850811 -0.00203204 39.845247 -0.00203204 Z M 39.845247 -0.00203204 " stroke="#000000" stroke-width="15.147183" stroke-opacity="1" stroke-miterlimit="4"/></g></g><g clip-path="url(#de0e3425bc)"><g clip-path="url(#ea07b06df7)"><path stroke-linecap="butt" transform="matrix(0.492951, 0, 0, 0.492951, 10.72964, 61.071365)" fill="none" stroke-linejoin="miter" d="M 39.844667 -0.00213501 C 17.839103 -0.00213501 0.00168035 17.835288 0.00168035 39.840851 C 0.00168035 61.846415 17.839103 79.683838 39.844667 79.683838 C 61.85023 79.683838 79.687653 61.846415 79.687653 39.840851 C 79.687653 17.835288 61.85023 -0.00213501 39.844667 -0.00213501 Z M 39.844667 -0.00213501 " stroke="#000000" stroke-width="15.147183" stroke-opacity="1" stroke-miterlimit="4"/></g></g><g clip-path="url(#7e09feeb41)"><g clip-path="url(#bff2d8a3d3)"><path stroke-linecap="butt" transform="matrix(0.492951, 0, 0, 0.492951, 62.502792, 61.071365)" fill="none" stroke-linejoin="miter" d="M 39.845247 -0.00213501 C 17.839684 -0.00213501 0.00226104 17.835288 0.00226104 39.840851 C 0.00226104 61.846415 17.839684 79.683838 39.845247 79.683838 C 61.850811 79.683838 79.688234 61.846415 79.688234 39.840851 C 79.688234 17.835288 61.850811 -0.00213501 39.845247 -0.00213501 Z M 39.845247 -0.00213501 " stroke="#000000" stroke-width="15.147183" stroke-opacity="1" stroke-miterlimit="4"/></g></g><g clip-path="url(#c81cf63956)"><path fill="#000000" d="M 52.730469 52.941406 C 52.730469 52.476562 52.820312 52.03125 52.996094 51.601562 C 53.175781 51.171875 53.429688 50.792969 53.757812 50.464844 C 54.085938 50.136719 54.464844 49.882812 54.894531 49.703125 C 55.324219 49.527344 55.769531 49.4375 56.234375 49.4375 C 60.867188 49.601562 60.875 56.269531 56.246094 56.445312 C 55.78125 56.449219 55.332031 56.359375 54.902344 56.183594 C 54.472656 56.003906 54.089844 55.753906 53.761719 55.421875 C 53.429688 55.09375 53.175781 54.714844 52.996094 54.285156 C 52.820312 53.855469 52.730469 53.40625 52.730469 52.941406 Z M 59.78125 56.449219 C 59.574219 56.320312 59.367188 56.324219 59.164062 56.464844 C 58.742188 56.804688 58.277344 57.066406 57.765625 57.246094 C 57.25 57.425781 56.722656 57.515625 56.179688 57.511719 C 55.636719 57.507812 55.113281 57.410156 54.601562 57.226562 C 54.09375 57.039062 53.628906 56.769531 53.210938 56.421875 C 53.042969 56.34375 52.878906 56.351562 52.722656 56.449219 C 51.839844 57.03125 51.152344 57.789062 50.65625 58.722656 C 50.15625 59.652344 49.910156 60.648438 49.910156 61.703125 C 49.910156 61.851562 49.960938 61.980469 50.066406 62.085938 C 50.171875 62.1875 50.300781 62.242188 50.449219 62.242188 L 62.039062 62.242188 C 62.1875 62.242188 62.3125 62.1875 62.417969 62.085938 C 62.523438 61.980469 62.574219 61.851562 62.574219 61.703125 C 62.574219 60.648438 62.328125 59.660156 61.832031 58.726562 C 61.339844 57.796875 60.65625 57.039062 59.78125 56.449219 Z M 59.78125 56.449219 " fill-opacity="1" fill-rule="nonzero"/></g><g clip-path="url(#ec4506e8a4)"><g clip-path="url(#00b26ecb17)"><path fill="#000000" d="M 9.675781 50.976562 L 45.789062 50.976562 L 45.789062 60.578125 L 9.675781 60.578125 Z M 9.675781 50.976562 " fill-opacity="1" fill-rule="nonzero"/></g></g><g clip-path="url(#50ad94115d)"><path fill="#000000" d="M 30.371094 50.976562 L 44.699219 50.976562 L 44.699219 60.578125 L 30.371094 60.578125 Z M 30.371094 50.976562 " fill-opacity="1" fill-rule="nonzero"/></g><g clip-path="url(#0a7ca80089)"><g clip-path="url(#bfb1757d94)"><path fill="#000000" d="M 101.78125 60.574219 L 66.269531 60.574219 L 66.269531 50.976562 L 101.78125 50.976562 Z M 101.78125 60.574219 " fill-opacity="1" fill-rule="nonzero"/></g></g><g clip-path="url(#f647fd5b1e)"><path fill="#000000" d="M 81.449219 60.574219 L 67.386719 60.574219 L 67.386719 50.976562 L 81.449219 50.976562 Z M 81.449219 60.574219 " fill-opacity="1" fill-rule="nonzero"/></g><g clip-path="url(#b472c399a9)"><g clip-path="url(#0ab8cf0cce)"><path fill="#000000" d="M 51.355469 100.355469 L 51.355469 66.527344 L 60.957031 66.527344 L 60.957031 100.355469 Z M 51.355469 100.355469 " fill-opacity="1" fill-rule="nonzero"/></g></g><g clip-path="url(#ffaa331046)"><path fill="#000000" d="M 51.355469 80.984375 L 51.355469 67.558594 L 60.957031 67.558594 L 60.957031 80.984375 Z M 51.355469 80.984375 " fill-opacity="1" fill-rule="nonzero"/></g><g clip-path="url(#b9b7da0809)"><g clip-path="url(#959d55fb8c)"><path fill="#000000" d="M 60.953125 12.558594 L 60.953125 46.386719 L 51.351562 46.386719 L 51.351562 12.558594 Z M 60.953125 12.558594 " fill-opacity="1" fill-rule="nonzero"/></g></g><g clip-path="url(#fc1b15141b)"><path fill="#000000" d="M 60.953125 31.929688 L 60.953125 45.355469 L 51.351562 45.355469 L 51.351562 31.929688 Z M 60.953125 31.929688 " fill-opacity="1" fill-rule="nonzero"/></g><g clip-path="url(#9a105eb5d5)"><path fill="#000000" d="M 21.992188 89.144531 C 21.058594 88.210938 21.058594 86.703125 21.992188 85.769531 L 28.070312 79.691406 C 28.210938 79.550781 28.4375 79.550781 28.578125 79.691406 L 31.445312 82.558594 C 31.585938 82.699219 31.585938 82.925781 31.445312 83.066406 L 25.367188 89.144531 C 24.433594 90.074219 22.925781 90.078125 21.992188 89.144531 Z M 28.324219 80.449219 L 22.496094 86.273438 C 21.84375 86.925781 21.84375 87.984375 22.496094 88.640625 C 23.152344 89.292969 24.207031 89.292969 24.863281 88.640625 L 30.6875 82.8125 Z M 28.324219 80.449219 " fill-opacity="1" fill-rule="nonzero"/></g><path fill="#000000" d="M 29.746094 84.261719 L 26.875 81.390625 C 26.738281 81.25 26.738281 81.023438 26.875 80.886719 C 27.015625 80.746094 27.242188 80.746094 27.382812 80.886719 L 30.25 83.753906 C 30.390625 83.894531 30.390625 84.121094 30.25 84.261719 C 30.109375 84.398438 29.886719 84.398438 29.746094 84.261719 Z M 29.746094 84.261719 " fill-opacity="1" fill-rule="nonzero"/><path fill="#000000" d="M 28.484375 85.523438 L 25.613281 82.652344 C 25.476562 82.511719 25.476562 82.289062 25.613281 82.148438 C 25.753906 82.007812 25.980469 82.007812 26.117188 82.148438 L 28.988281 85.015625 C 29.128906 85.15625 29.128906 85.382812 28.988281 85.523438 C 28.847656 85.660156 28.621094 85.660156 28.484375 85.523438 Z M 28.484375 85.523438 " fill-opacity="1" fill-rule="nonzero"/><g clip-path="url(#5b9a89fa69)"><path fill="#000000" d="M 30.304688 82.425781 L 28.710938 80.832031 C 28.570312 80.695312 28.570312 80.46875 28.710938 80.328125 L 34.691406 74.347656 L 34.980469 73.472656 C 35.003906 73.398438 35.050781 73.335938 35.113281 73.292969 L 37.34375 71.699219 C 37.488281 71.597656 37.679688 71.613281 37.804688 71.738281 L 39.398438 73.332031 C 39.523438 73.453125 39.539062 73.648438 39.4375 73.792969 L 37.84375 76.023438 C 37.796875 76.085938 37.738281 76.128906 37.664062 76.15625 L 36.789062 76.445312 L 30.808594 82.425781 C 30.667969 82.566406 30.441406 82.566406 30.304688 82.425781 Z M 29.464844 80.582031 L 30.554688 81.667969 L 36.34375 75.882812 C 36.382812 75.84375 36.429688 75.8125 36.484375 75.796875 L 37.328125 75.515625 L 38.679688 73.621094 L 37.511719 72.457031 L 35.621094 73.808594 L 35.339844 74.652344 C 35.324219 74.707031 35.292969 74.753906 35.253906 74.792969 Z M 29.464844 80.582031 " fill-opacity="1" fill-rule="nonzero"/></g><g clip-path="url(#703af8bde6)"><path fill="#000000" d="M 34.257812 88.941406 C 33.402344 88.089844 33.132812 86.796875 33.554688 85.679688 L 30.304688 82.425781 C 30.164062 82.289062 30.164062 82.0625 30.304688 81.921875 C 30.441406 81.78125 30.667969 81.78125 30.808594 81.921875 L 34.1875 85.300781 C 34.316406 85.433594 34.351562 85.632812 34.277344 85.800781 C 33.878906 86.6875 34.074219 87.75 34.761719 88.4375 C 35.339844 89.015625 36.167969 89.242188 36.945312 89.070312 L 35.855469 87.980469 C 35.71875 87.84375 35.71875 87.617188 35.855469 87.476562 L 37.136719 86.195312 C 37.277344 86.058594 37.503906 86.058594 37.640625 86.195312 L 38.730469 87.285156 C 38.90625 86.507812 38.675781 85.679688 38.097656 85.101562 C 37.410156 84.414062 36.351562 84.21875 35.460938 84.617188 C 35.296875 84.691406 35.09375 84.65625 34.964844 84.527344 L 31.582031 81.148438 C 31.445312 81.007812 31.445312 80.78125 31.582031 80.640625 C 31.722656 80.503906 31.949219 80.503906 32.089844 80.640625 L 35.339844 83.894531 C 36.460938 83.472656 37.75 83.742188 38.601562 84.597656 C 39.519531 85.515625 39.761719 86.921875 39.203125 88.09375 C 39.097656 88.316406 38.804688 88.367188 38.628906 88.191406 L 37.390625 86.953125 L 36.613281 87.730469 L 37.851562 88.96875 C 38.027344 89.140625 37.976562 89.4375 37.753906 89.542969 C 36.574219 90.105469 35.171875 89.855469 34.257812 88.941406 Z M 34.257812 88.941406 " fill-opacity="1" fill-rule="nonzero"/></g><g clip-path="url(#07312582a8)"><path fill="#000000" d="M 28.707031 80.832031 L 25.457031 77.582031 C 24.335938 78.003906 23.046875 77.734375 22.195312 76.878906 C 21.277344 75.960938 21.035156 74.554688 21.59375 73.382812 C 21.699219 73.160156 21.996094 73.109375 22.167969 73.285156 L 23.40625 74.523438 L 24.183594 73.746094 L 22.945312 72.507812 C 22.769531 72.335938 22.820312 72.039062 23.042969 71.933594 C 24.214844 71.375 25.621094 71.613281 26.539062 72.535156 C 27.394531 73.386719 27.664062 74.675781 27.242188 75.796875 L 30.492188 79.046875 C 30.632812 79.1875 30.632812 79.414062 30.492188 79.554688 C 30.355469 79.691406 30.128906 79.691406 29.988281 79.554688 L 26.609375 76.175781 C 26.480469 76.042969 26.445312 75.839844 26.519531 75.671875 C 26.917969 74.785156 26.722656 73.726562 26.035156 73.039062 C 25.457031 72.460938 24.628906 72.230469 23.851562 72.40625 L 24.941406 73.492188 C 25.078125 73.632812 25.078125 73.859375 24.941406 74 L 23.660156 75.277344 C 23.59375 75.347656 23.5 75.382812 23.40625 75.382812 C 23.3125 75.382812 23.222656 75.347656 23.15625 75.277344 L 22.066406 74.191406 C 21.890625 74.964844 22.121094 75.796875 22.699219 76.375 C 23.386719 77.0625 24.445312 77.257812 25.335938 76.859375 C 25.5 76.78125 25.703125 76.820312 25.832031 76.949219 L 29.214844 80.328125 C 29.351562 80.46875 29.351562 80.695312 29.214844 80.832031 C 29.074219 80.972656 28.847656 80.972656 28.707031 80.832031 Z M 28.707031 80.832031 " fill-opacity="1" fill-rule="nonzero"/></g><g clip-path="url(#d5d9beb916)"><path fill="#000000" d="M 82.210938 20.964844 C 79.148438 20.964844 76.398438 24.316406 74.070312 28.367188 L 69.871094 35.722656 L 69.871094 35.164062 L 68.921875 35.164062 L 68.921875 37.726562 L 69.871094 37.726562 L 69.871094 37.210938 L 74.757812 28.832031 L 80.621094 25.269531 C 81.691406 24.621094 81.761719 24.503906 82.210938 24.503906 C 82.664062 24.503906 82.734375 24.644531 83.800781 25.269531 L 89.664062 28.832031 L 94.554688 37.210938 L 94.554688 37.726562 L 95.503906 37.726562 L 95.503906 35.140625 L 94.554688 35.140625 L 94.554688 35.722656 L 90.328125 28.367188 C 88.027344 24.316406 85.273438 20.964844 82.210938 20.964844 Z M 78.839844 27.15625 L 75.425781 29.207031 L 71.839844 37.257812 L 92.582031 37.257812 L 89 29.207031 L 85.605469 27.15625 L 86.292969 33.699219 C 86.339844 34.257812 85.890625 34.722656 85.390625 34.722656 L 79.078125 34.722656 C 78.582031 34.722656 78.128906 34.257812 78.175781 33.699219 Z M 78.839844 27.15625 " fill-opacity="1" fill-rule="nonzero"/></g><g clip-path="url(#ddde6eba70)"><path fill="#000000" d="M 37.757812 29.683594 C 35.488281 29.683594 33.644531 31.546875 33.644531 33.835938 C 33.644531 36.121094 35.488281 37.984375 37.757812 37.984375 C 40.023438 37.984375 41.871094 36.121094 41.871094 33.835938 C 41.871094 31.546875 40.023438 29.683594 37.757812 29.683594 Z M 37.757812 39.035156 C 34.914062 39.035156 32.601562 36.703125 32.601562 33.835938 C 32.601562 30.964844 34.914062 28.632812 37.757812 28.632812 C 40.597656 28.632812 42.910156 30.964844 42.910156 33.835938 C 42.910156 36.703125 40.597656 39.035156 37.757812 39.035156 " fill-opacity="1" fill-rule="nonzero"/></g><g clip-path="url(#2044923a7f)"><path fill="#000000" d="M 22.945312 29.683594 C 20.675781 29.683594 18.832031 31.546875 18.832031 33.835938 C 18.832031 36.121094 20.675781 37.984375 22.945312 37.984375 C 25.210938 37.984375 27.058594 36.121094 27.058594 33.835938 C 27.058594 31.546875 25.210938 29.683594 22.945312 29.683594 Z M 22.945312 39.035156 C 20.101562 39.035156 17.789062 36.703125 17.789062 33.835938 C 17.789062 30.964844 20.101562 28.632812 22.945312 28.632812 C 25.785156 28.632812 28.097656 30.964844 28.097656 33.835938 C 28.097656 36.703125 25.785156 39.035156 22.945312 39.035156 " fill-opacity="1" fill-rule="nonzero"/></g><g clip-path="url(#23f812bcab)"><path fill="#000000" d="M 37.757812 34.359375 C 37.546875 34.359375 37.347656 34.230469 37.269531 34.019531 L 33.496094 23.820312 L 31.492188 23.820312 C 31.207031 23.820312 30.972656 23.582031 30.972656 23.292969 C 30.972656 23.003906 31.207031 22.769531 31.492188 22.769531 L 33.859375 22.769531 C 34.074219 22.769531 34.269531 22.90625 34.34375 23.109375 L 38.242188 33.652344 C 38.34375 33.921875 38.207031 34.226562 37.9375 34.328125 C 37.878906 34.347656 37.816406 34.359375 37.757812 34.359375 " fill-opacity="1" fill-rule="nonzero"/></g><path fill="#000000" d="M 23.800781 33.308594 L 29.8125 33.308594 L 26.710938 27.648438 Z M 30.695312 34.359375 L 22.945312 34.359375 C 22.761719 34.359375 22.59375 34.261719 22.5 34.105469 C 22.40625 33.949219 22.398438 33.753906 22.484375 33.59375 L 26.234375 26.296875 C 26.234375 26.296875 26.238281 26.296875 26.238281 26.292969 L 26.613281 25.566406 L 25.617188 25.566406 C 25.328125 25.566406 25.097656 25.332031 25.097656 25.039062 C 25.097656 24.75 25.328125 24.515625 25.617188 24.515625 L 27.46875 24.515625 C 27.648438 24.515625 27.820312 24.609375 27.914062 24.769531 C 28.007812 24.925781 28.015625 25.121094 27.929688 25.28125 L 27.554688 26.011719 L 34.707031 26.011719 C 34.992188 26.011719 35.226562 26.246094 35.226562 26.539062 C 35.226562 26.828125 34.992188 27.0625 34.707031 27.0625 L 27.582031 27.0625 L 31.152344 33.578125 C 31.242188 33.742188 31.238281 33.941406 31.144531 34.101562 C 31.050781 34.261719 30.878906 34.359375 30.695312 34.359375 " fill-opacity="1" fill-rule="nonzero"/><path fill="#000000" d="M 30.695312 34.359375 C 30.605469 34.359375 30.511719 34.335938 30.425781 34.28125 C 30.179688 34.132812 30.101562 33.808594 30.253906 33.5625 L 34.628906 26.3125 C 34.78125 26.0625 35.101562 25.984375 35.347656 26.136719 C 35.589844 26.285156 35.667969 26.609375 35.519531 26.855469 L 31.140625 34.109375 C 31.042969 34.269531 30.871094 34.359375 30.695312 34.359375 " fill-opacity="1" fill-rule="nonzero"/><path fill="#000000" d="M 31.921875 33.835938 C 31.921875 34.515625 31.375 35.070312 30.695312 35.070312 C 30.019531 35.070312 29.472656 34.515625 29.472656 33.835938 C 29.472656 33.152344 30.019531 32.597656 30.695312 32.597656 C 31.375 32.597656 31.921875 33.152344 31.921875 33.835938 " fill-opacity="1" fill-rule="nonzero"/><path fill="#000000" d="M 31.261719 36.472656 L 30.316406 36.472656 C 30.140625 36.472656 29.996094 36.328125 29.996094 36.148438 C 29.996094 35.96875 30.140625 35.824219 30.316406 35.824219 L 30.375 35.824219 L 30.375 33.835938 C 30.375 33.65625 30.519531 33.507812 30.695312 33.507812 C 30.875 33.507812 31.019531 33.65625 31.019531 33.835938 L 31.019531 35.824219 L 31.261719 35.824219 C 31.4375 35.824219 31.582031 35.96875 31.582031 36.148438 C 31.582031 36.328125 31.4375 36.472656 31.261719 36.472656 " fill-opacity="1" fill-rule="nonzero"/><g clip-path="url(#e18ec6c6fb)"><path fill="#000000" d="M 82.175781 91.835938 C 79.210938 91.835938 76.425781 90.679688 74.332031 88.585938 C 72.238281 86.492188 71.082031 83.707031 71.082031 80.742188 C 71.082031 77.78125 72.238281 74.996094 74.332031 72.902344 C 76.425781 70.804688 79.210938 69.652344 82.175781 69.652344 C 85.136719 69.652344 87.921875 70.804688 90.019531 72.902344 C 92.113281 74.996094 93.265625 77.78125 93.265625 80.742188 C 93.265625 83.707031 92.113281 86.492188 90.019531 88.585938 C 87.921875 90.679688 85.136719 91.835938 82.175781 91.835938 Z M 82.175781 70.339844 C 79.394531 70.339844 76.785156 71.421875 74.820312 73.386719 C 72.855469 75.351562 71.773438 77.964844 71.773438 80.742188 C 71.773438 83.523438 72.855469 86.136719 74.820312 88.101562 C 76.785156 90.066406 79.394531 91.148438 82.175781 91.148438 C 84.953125 91.148438 87.566406 90.066406 89.53125 88.101562 C 91.496094 86.136719 92.578125 83.523438 92.578125 80.742188 C 92.578125 77.964844 91.496094 75.351562 89.53125 73.386719 C 87.566406 71.421875 84.953125 70.339844 82.175781 70.339844 Z M 88.5625 74.355469 C 88.449219 74.242188 88.269531 74.222656 88.132812 74.3125 L 80.6875 79.15625 C 80.675781 79.160156 80.667969 79.167969 80.660156 79.175781 C 80.660156 79.175781 80.660156 79.175781 80.65625 79.175781 C 80.652344 79.183594 80.644531 79.1875 80.636719 79.195312 C 80.632812 79.199219 80.628906 79.203125 80.628906 79.203125 C 80.621094 79.210938 80.613281 79.21875 80.609375 79.226562 C 80.609375 79.226562 80.605469 79.226562 80.605469 79.226562 C 80.601562 79.238281 80.59375 79.246094 80.585938 79.253906 L 75.742188 86.699219 C 75.652344 86.835938 75.671875 87.015625 75.789062 87.132812 C 75.855469 87.199219 75.941406 87.230469 76.03125 87.230469 C 76.097656 87.230469 76.160156 87.214844 76.21875 87.175781 L 83.664062 82.332031 C 83.683594 82.320312 83.703125 82.304688 83.71875 82.289062 C 83.734375 82.269531 83.75 82.25 83.765625 82.230469 L 88.609375 74.789062 C 88.695312 74.652344 88.675781 74.472656 88.5625 74.355469 Z M 83.417969 81.5 L 81.417969 79.5 L 87.144531 75.773438 Z M 83.417969 81.5 " fill-opacity="1" fill-rule="nonzero"/></g><g fill="#039be5" fill-opacity="0.4"><g transform="translate(108.518768, 64.145337)"><g><path d="M 12.203125 -13.296875 L 12.203125 0 L 6.46875 0 L 6.46875 -13.296875 L 0.59375 -13.296875 L 0.59375 -17.859375 L 18.046875 -17.859375 L 18.046875 -13.296875 Z M 12.203125 -13.296875 "/></g></g></g><g fill="#039be5" fill-opacity="0.4"><g transform="translate(125.790432, 64.145337)"><g><path d="M 8.640625 -14.015625 C 11.046875 -14.015625 12.9375 -13.40625 14.3125 -12.1875 C 15.695312 -10.96875 16.390625 -9.191406 16.390625 -6.859375 C 16.390625 -4.515625 15.695312 -2.734375 14.3125 -1.515625 C 12.9375 -0.296875 11.046875 0.3125 8.640625 0.3125 C 6.234375 0.3125 4.347656 -0.289062 2.984375 -1.5 C 1.617188 -2.71875 0.9375 -4.503906 0.9375 -6.859375 C 0.9375 -9.210938 1.617188 -10.992188 2.984375 -12.203125 C 4.347656 -13.410156 6.234375 -14.015625 8.640625 -14.015625 Z M 8.640625 -10.515625 C 6.953125 -10.515625 6.109375 -9.535156 6.109375 -7.578125 L 6.109375 -6.109375 C 6.109375 -4.160156 6.953125 -3.1875 8.640625 -3.1875 C 10.359375 -3.1875 11.21875 -4.160156 11.21875 -6.109375 L 11.21875 -7.578125 C 11.21875 -9.535156 10.359375 -10.515625 8.640625 -10.515625 Z M 8.640625 -10.515625 "/></g></g></g><g fill="#039be5" fill-opacity="0.4"><g transform="translate(141.633592, 64.145337)"><g><path d="M 11.53125 0 L 11.09375 -1.953125 C 10.082031 -0.441406 8.625 0.3125 6.71875 0.3125 C 4.875 0.3125 3.445312 -0.289062 2.4375 -1.5 C 1.4375 -2.71875 0.9375 -4.507812 0.9375 -6.875 C 0.9375 -9.226562 1.4375 -11.003906 2.4375 -12.203125 C 3.445312 -13.410156 4.875 -14.015625 6.71875 -14.015625 C 8.300781 -14.015625 9.582031 -13.488281 10.5625 -12.4375 L 10.5625 -18.828125 L 15.734375 -18.828125 L 15.734375 0 Z M 8.34375 -10.203125 C 6.851562 -10.203125 6.109375 -9.3125 6.109375 -7.53125 L 6.109375 -6.15625 C 6.109375 -4.382812 6.851562 -3.5 8.34375 -3.5 C 9.101562 -3.5 9.671875 -3.765625 10.046875 -4.296875 C 10.429688 -4.835938 10.625 -5.546875 10.625 -6.421875 L 10.625 -7.265625 C 10.625 -8.128906 10.429688 -8.832031 10.046875 -9.375 C 9.671875 -9.925781 9.101562 -10.203125 8.34375 -10.203125 Z M 8.34375 -10.203125 "/></g></g></g><g fill="#039be5" fill-opacity="0.4"><g transform="translate(157.476751, 64.145337)"><g><path d="M 8.640625 -14.015625 C 11.046875 -14.015625 12.9375 -13.40625 14.3125 -12.1875 C 15.695312 -10.96875 16.390625 -9.191406 16.390625 -6.859375 C 16.390625 -4.515625 15.695312 -2.734375 14.3125 -1.515625 C 12.9375 -0.296875 11.046875 0.3125 8.640625 0.3125 C 6.234375 0.3125 4.347656 -0.289062 2.984375 -1.5 C 1.617188 -2.71875 0.9375 -4.503906 0.9375 -6.859375 C 0.9375 -9.210938 1.617188 -10.992188 2.984375 -12.203125 C 4.347656 -13.410156 6.234375 -14.015625 8.640625 -14.015625 Z M 8.640625 -10.515625 C 6.953125 -10.515625 6.109375 -9.535156 6.109375 -7.578125 L 6.109375 -6.109375 C 6.109375 -4.160156 6.953125 -3.1875 8.640625 -3.1875 C 10.359375 -3.1875 11.21875 -4.160156 11.21875 -6.109375 L 11.21875 -7.578125 C 11.21875 -9.535156 10.359375 -10.515625 8.640625 -10.515625 Z M 8.640625 -10.515625 "/></g></g></g><g fill="#039be5" fill-opacity="0.4"><g transform="translate(173.319912, 64.145337)"><g><path d="M 11.953125 -17.859375 C 13.054688 -17.859375 14.039062 -17.601562 14.90625 -17.09375 C 15.769531 -16.582031 16.441406 -15.878906 16.921875 -14.984375 C 17.410156 -14.097656 17.65625 -13.101562 17.65625 -12 L 17.65625 -11.65625 C 17.65625 -10.550781 17.410156 -9.546875 16.921875 -8.640625 C 16.441406 -7.742188 15.769531 -7.039062 14.90625 -6.53125 C 14.039062 -6.019531 13.054688 -5.765625 11.953125 -5.765625 L 7.65625 -5.765625 L 7.65625 0 L 1.921875 0 L 1.921875 -17.859375 Z M 7.65625 -9.953125 L 10.03125 -9.953125 C 10.632812 -9.953125 11.085938 -10.101562 11.390625 -10.40625 C 11.691406 -10.71875 11.84375 -11.144531 11.84375 -11.6875 L 11.84375 -11.890625 C 11.84375 -12.441406 11.691406 -12.867188 11.390625 -13.171875 C 11.085938 -13.484375 10.632812 -13.640625 10.03125 -13.640625 L 7.65625 -13.640625 Z M 7.65625 -9.953125 "/></g></g></g><g fill="#039be5" fill-opacity="0.4"><g transform="translate(190.591577, 64.145337)"><g><path d="M 9.890625 -14.046875 C 10.285156 -14.046875 10.640625 -14 10.953125 -13.90625 C 11.265625 -13.8125 11.421875 -13.753906 11.421875 -13.734375 L 11.421875 -9.40625 L 9.765625 -9.40625 C 8.691406 -9.40625 7.914062 -9.125 7.4375 -8.5625 C 6.957031 -8.007812 6.71875 -7.191406 6.71875 -6.109375 L 6.71875 0 L 1.5625 0 L 1.5625 -13.71875 L 5.796875 -13.71875 L 6.125 -11.640625 C 6.4375 -12.429688 6.929688 -13.03125 7.609375 -13.4375 C 8.285156 -13.84375 9.046875 -14.046875 9.890625 -14.046875 Z M 9.890625 -14.046875 "/></g></g></g><g fill="#039be5" fill-opacity="0.4"><g transform="translate(200.642798, 64.145337)"><g><path d="M 8.640625 -14.015625 C 11.148438 -14.015625 13.066406 -13.425781 14.390625 -12.25 C 15.722656 -11.070312 16.390625 -9.273438 16.390625 -6.859375 L 16.390625 -5.96875 L 6.109375 -5.96875 C 6.109375 -4.988281 6.328125 -4.242188 6.765625 -3.734375 C 7.203125 -3.234375 7.898438 -2.984375 8.859375 -2.984375 C 9.722656 -2.984375 10.359375 -3.164062 10.765625 -3.53125 C 11.171875 -3.894531 11.375 -4.378906 11.375 -4.984375 L 16.390625 -4.984375 C 16.390625 -3.328125 15.753906 -2.03125 14.484375 -1.09375 C 13.222656 -0.15625 11.378906 0.3125 8.953125 0.3125 C 6.410156 0.3125 4.4375 -0.28125 3.03125 -1.46875 C 1.632812 -2.65625 0.9375 -4.453125 0.9375 -6.859375 C 0.9375 -9.210938 1.617188 -10.992188 2.984375 -12.203125 C 4.347656 -13.410156 6.234375 -14.015625 8.640625 -14.015625 Z M 8.859375 -10.71875 C 7.234375 -10.71875 6.320312 -9.945312 6.125 -8.40625 L 11.171875 -8.40625 C 11.171875 -9.125 10.96875 -9.6875 10.5625 -10.09375 C 10.15625 -10.507812 9.585938 -10.71875 8.859375 -10.71875 Z M 8.859375 -10.71875 "/></g></g></g><g fill="#039be5" fill-opacity="0.4"><g transform="translate(216.485954, 64.145337)"><g><path d="M 8.078125 -14.015625 C 9.910156 -14.015625 11.460938 -13.65625 12.734375 -12.9375 C 14.003906 -12.226562 14.640625 -11.117188 14.640625 -9.609375 L 9.84375 -9.609375 C 9.84375 -10.109375 9.617188 -10.460938 9.171875 -10.671875 C 8.859375 -10.847656 8.46875 -10.9375 8 -10.9375 C 6.75 -10.9375 6.125 -10.640625 6.125 -10.046875 C 6.125 -9.722656 6.335938 -9.488281 6.765625 -9.34375 C 7.203125 -9.207031 7.914062 -9.0625 8.90625 -8.90625 C 10.113281 -8.726562 11.125 -8.523438 11.9375 -8.296875 C 12.757812 -8.066406 13.472656 -7.648438 14.078125 -7.046875 C 14.679688 -6.453125 14.984375 -5.617188 14.984375 -4.546875 C 14.984375 -2.796875 14.328125 -1.546875 13.015625 -0.796875 C 11.710938 -0.0546875 10.003906 0.3125 7.890625 0.3125 C 6.679688 0.3125 5.539062 0.144531 4.46875 -0.1875 C 3.394531 -0.53125 2.519531 -1.054688 1.84375 -1.765625 C 1.164062 -2.472656 0.828125 -3.375 0.828125 -4.46875 L 5.640625 -4.46875 L 5.640625 -4.359375 C 5.648438 -3.773438 5.894531 -3.363281 6.375 -3.125 C 6.851562 -2.894531 7.359375 -2.78125 7.890625 -2.78125 C 9.328125 -2.78125 10.046875 -3.117188 10.046875 -3.796875 C 10.046875 -4.140625 9.820312 -4.390625 9.375 -4.546875 C 8.925781 -4.703125 8.191406 -4.863281 7.171875 -5.03125 C 5.941406 -5.238281 4.929688 -5.460938 4.140625 -5.703125 C 3.347656 -5.953125 2.65625 -6.363281 2.0625 -6.9375 C 1.476562 -7.519531 1.1875 -8.332031 1.1875 -9.375 C 1.1875 -11.050781 1.820312 -12.242188 3.09375 -12.953125 C 4.375 -13.660156 6.035156 -14.015625 8.078125 -14.015625 Z M 8.078125 -14.015625 "/></g></g></g><g fill="#039be5" fill-opacity="0.4"><g transform="translate(230.874636, 64.145337)"><g><path d="M 10.703125 -13.71875 L 10.703125 -10.203125 L 7.796875 -10.203125 L 7.796875 -4.984375 C 7.796875 -4.359375 7.894531 -3.898438 8.09375 -3.609375 C 8.300781 -3.328125 8.6875 -3.1875 9.25 -3.1875 L 10.703125 -3.1875 L 10.703125 -0.15625 C 10.285156 -0.0195312 9.75 0.0859375 9.09375 0.171875 C 8.4375 0.265625 7.863281 0.3125 7.375 0.3125 C 5.851562 0.3125 4.679688 0.0351562 3.859375 -0.515625 C 3.035156 -1.066406 2.625 -2.007812 2.625 -3.34375 L 2.625 -10.203125 L 0.703125 -10.203125 L 0.703125 -13.71875 L 2.828125 -13.71875 L 3.953125 -17.859375 L 7.796875 -17.859375 L 7.796875 -13.71875 Z M 10.703125 -13.71875 "/></g></g></g><g fill="#039be5" fill-opacity="0.4"><g transform="translate(240.925857, 64.145337)"><g><path d="M 8.34375 -14.015625 C 10.4375 -14.015625 12.140625 -13.664062 13.453125 -12.96875 C 14.765625 -12.269531 15.421875 -11.132812 15.421875 -9.5625 L 15.421875 -4.203125 C 15.421875 -3.910156 15.488281 -3.664062 15.625 -3.46875 C 15.769531 -3.28125 15.976562 -3.1875 16.25 -3.1875 L 17.1875 -3.1875 L 17.1875 -0.203125 C 17.132812 -0.171875 17 -0.113281 16.78125 -0.03125 C 16.570312 0.0390625 16.265625 0.113281 15.859375 0.1875 C 15.460938 0.269531 15.003906 0.3125 14.484375 0.3125 C 13.484375 0.3125 12.65625 0.160156 12 -0.140625 C 11.351562 -0.441406 10.910156 -0.863281 10.671875 -1.40625 C 10.015625 -0.882812 9.28125 -0.46875 8.46875 -0.15625 C 7.65625 0.15625 6.703125 0.3125 5.609375 0.3125 C 2.390625 0.3125 0.78125 -0.96875 0.78125 -3.53125 C 0.78125 -4.863281 1.140625 -5.878906 1.859375 -6.578125 C 2.578125 -7.285156 3.609375 -7.765625 4.953125 -8.015625 C 6.304688 -8.273438 8.070312 -8.40625 10.25 -8.40625 L 10.25 -9.09375 C 10.25 -9.625 10.0625 -10.023438 9.6875 -10.296875 C 9.320312 -10.578125 8.847656 -10.71875 8.265625 -10.71875 C 7.722656 -10.71875 7.253906 -10.625 6.859375 -10.4375 C 6.472656 -10.25 6.28125 -9.945312 6.28125 -9.53125 L 6.28125 -9.421875 L 1.1875 -9.421875 C 1.175781 -9.515625 1.171875 -9.640625 1.171875 -9.796875 C 1.171875 -11.085938 1.785156 -12.113281 3.015625 -12.875 C 4.253906 -13.632812 6.03125 -14.015625 8.34375 -14.015625 Z M 10.25 -5.96875 C 8.78125 -5.96875 7.695312 -5.804688 7 -5.484375 C 6.300781 -5.171875 5.953125 -4.742188 5.953125 -4.203125 C 5.953125 -3.335938 6.539062 -2.90625 7.71875 -2.90625 C 8.382812 -2.90625 8.972656 -3.085938 9.484375 -3.453125 C 9.992188 -3.816406 10.25 -4.265625 10.25 -4.796875 Z M 10.25 -5.96875 "/></g></g></g><g fill="#039be5" fill-opacity="0.4"><g transform="translate(256.769013, 64.145337)"><g><path d="M 11.53125 0 L 11.09375 -1.953125 C 10.082031 -0.441406 8.625 0.3125 6.71875 0.3125 C 4.875 0.3125 3.445312 -0.289062 2.4375 -1.5 C 1.4375 -2.71875 0.9375 -4.507812 0.9375 -6.875 C 0.9375 -9.226562 1.4375 -11.003906 2.4375 -12.203125 C 3.445312 -13.410156 4.875 -14.015625 6.71875 -14.015625 C 8.300781 -14.015625 9.582031 -13.488281 10.5625 -12.4375 L 10.5625 -18.828125 L 15.734375 -18.828125 L 15.734375 0 Z M 8.34375 -10.203125 C 6.851562 -10.203125 6.109375 -9.3125 6.109375 -7.53125 L 6.109375 -6.15625 C 6.109375 -4.382812 6.851562 -3.5 8.34375 -3.5 C 9.101562 -3.5 9.671875 -3.765625 10.046875 -4.296875 C 10.429688 -4.835938 10.625 -5.546875 10.625 -6.421875 L 10.625 -7.265625 C 10.625 -8.128906 10.429688 -8.832031 10.046875 -9.375 C 9.671875 -9.925781 9.101562 -10.203125 8.34375 -10.203125 Z M 8.34375 -10.203125 "/></g></g></g><g fill="#039be5" fill-opacity="0.4"><g transform="translate(272.612169, 64.145337)"><g><path d="M 8.640625 -14.015625 C 11.046875 -14.015625 12.9375 -13.40625 14.3125 -12.1875 C 15.695312 -10.96875 16.390625 -9.191406 16.390625 -6.859375 C 16.390625 -4.515625 15.695312 -2.734375 14.3125 -1.515625 C 12.9375 -0.296875 11.046875 0.3125 8.640625 0.3125 C 6.234375 0.3125 4.347656 -0.289062 2.984375 -1.5 C 1.617188 -2.71875 0.9375 -4.503906 0.9375 -6.859375 C 0.9375 -9.210938 1.617188 -10.992188 2.984375 -12.203125 C 4.347656 -13.410156 6.234375 -14.015625 8.640625 -14.015625 Z M 8.640625 -10.515625 C 6.953125 -10.515625 6.109375 -9.535156 6.109375 -7.578125 L 6.109375 -6.109375 C 6.109375 -4.160156 6.953125 -3.1875 8.640625 -3.1875 C 10.359375 -3.1875 11.21875 -4.160156 11.21875 -6.109375 L 11.21875 -7.578125 C 11.21875 -9.535156 10.359375 -10.515625 8.640625 -10.515625 Z M 8.640625 -10.515625 "/></g></g></g><g fill="#000000" fill-opacity="1"><g transform="translate(108.518768, 64.145337)"><g><path d="M 12.203125 -13.296875 L 12.203125 0 L 6.46875 0 L 6.46875 -13.296875 L 0.59375 -13.296875 L 0.59375 -17.859375 L 18.046875 -17.859375 L 18.046875 -13.296875 Z M 12.203125 -13.296875 "/></g></g></g><g fill="#000000" fill-opacity="1"><g transform="translate(125.790432, 64.145337)"><g><path d="M 8.640625 -14.015625 C 11.046875 -14.015625 12.9375 -13.40625 14.3125 -12.1875 C 15.695312 -10.96875 16.390625 -9.191406 16.390625 -6.859375 C 16.390625 -4.515625 15.695312 -2.734375 14.3125 -1.515625 C 12.9375 -0.296875 11.046875 0.3125 8.640625 0.3125 C 6.234375 0.3125 4.347656 -0.289062 2.984375 -1.5 C 1.617188 -2.71875 0.9375 -4.503906 0.9375 -6.859375 C 0.9375 -9.210938 1.617188 -10.992188 2.984375 -12.203125 C 4.347656 -13.410156 6.234375 -14.015625 8.640625 -14.015625 Z M 8.640625 -10.515625 C 6.953125 -10.515625 6.109375 -9.535156 6.109375 -7.578125 L 6.109375 -6.109375 C 6.109375 -4.160156 6.953125 -3.1875 8.640625 -3.1875 C 10.359375 -3.1875 11.21875 -4.160156 11.21875 -6.109375 L 11.21875 -7.578125 C 11.21875 -9.535156 10.359375 -10.515625 8.640625 -10.515625 Z M 8.640625 -10.515625 "/></g></g></g><g fill="#000000" fill-opacity="1"><g transform="translate(141.633592, 64.145337)"><g><path d="M 11.53125 0 L 11.09375 -1.953125 C 10.082031 -0.441406 8.625 0.3125 6.71875 0.3125 C 4.875 0.3125 3.445312 -0.289062 2.4375 -1.5 C 1.4375 -2.71875 0.9375 -4.507812 0.9375 -6.875 C 0.9375 -9.226562 1.4375 -11.003906 2.4375 -12.203125 C 3.445312 -13.410156 4.875 -14.015625 6.71875 -14.015625 C 8.300781 -14.015625 9.582031 -13.488281 10.5625 -12.4375 L 10.5625 -18.828125 L 15.734375 -18.828125 L 15.734375 0 Z M 8.34375 -10.203125 C 6.851562 -10.203125 6.109375 -9.3125 6.109375 -7.53125 L 6.109375 -6.15625 C 6.109375 -4.382812 6.851562 -3.5 8.34375 -3.5 C 9.101562 -3.5 9.671875 -3.765625 10.046875 -4.296875 C 10.429688 -4.835938 10.625 -5.546875 10.625 -6.421875 L 10.625 -7.265625 C 10.625 -8.128906 10.429688 -8.832031 10.046875 -9.375 C 9.671875 -9.925781 9.101562 -10.203125 8.34375 -10.203125 Z M 8.34375 -10.203125 "/></g></g></g><g fill="#000000" fill-opacity="1"><g transform="translate(157.476751, 64.145337)"><g><path d="M 8.640625 -14.015625 C 11.046875 -14.015625 12.9375 -13.40625 14.3125 -12.1875 C 15.695312 -10.96875 16.390625 -9.191406 16.390625 -6.859375 C 16.390625 -4.515625 15.695312 -2.734375 14.3125 -1.515625 C 12.9375 -0.296875 11.046875 0.3125 8.640625 0.3125 C 6.234375 0.3125 4.347656 -0.289062 2.984375 -1.5 C 1.617188 -2.71875 0.9375 -4.503906 0.9375 -6.859375 C 0.9375 -9.210938 1.617188 -10.992188 2.984375 -12.203125 C 4.347656 -13.410156 6.234375 -14.015625 8.640625 -14.015625 Z M 8.640625 -10.515625 C 6.953125 -10.515625 6.109375 -9.535156 6.109375 -7.578125 L 6.109375 -6.109375 C 6.109375 -4.160156 6.953125 -3.1875 8.640625 -3.1875 C 10.359375 -3.1875 11.21875 -4.160156 11.21875 -6.109375 L 11.21875 -7.578125 C 11.21875 -9.535156 10.359375 -10.515625 8.640625 -10.515625 Z M 8.640625 -10.515625 "/></g></g></g><g fill="#000000" fill-opacity="1"><g transform="translate(173.319912, 64.145337)"><g><path d="M 11.953125 -17.859375 C 13.054688 -17.859375 14.039062 -17.601562 14.90625 -17.09375 C 15.769531 -16.582031 16.441406 -15.878906 16.921875 -14.984375 C 17.410156 -14.097656 17.65625 -13.101562 17.65625 -12 L 17.65625 -11.65625 C 17.65625 -10.550781 17.410156 -9.546875 16.921875 -8.640625 C 16.441406 -7.742188 15.769531 -7.039062 14.90625 -6.53125 C 14.039062 -6.019531 13.054688 -5.765625 11.953125 -5.765625 L 7.65625 -5.765625 L 7.65625 0 L 1.921875 0 L 1.921875 -17.859375 Z M 7.65625 -9.953125 L 10.03125 -9.953125 C 10.632812 -9.953125 11.085938 -10.101562 11.390625 -10.40625 C 11.691406 -10.71875 11.84375 -11.144531 11.84375 -11.6875 L 11.84375 -11.890625 C 11.84375 -12.441406 11.691406 -12.867188 11.390625 -13.171875 C 11.085938 -13.484375 10.632812 -13.640625 10.03125 -13.640625 L 7.65625 -13.640625 Z M 7.65625 -9.953125 "/></g></g></g><g fill="#000000" fill-opacity="1"><g transform="translate(190.591577, 64.145337)"><g><path d="M 9.890625 -14.046875 C 10.285156 -14.046875 10.640625 -14 10.953125 -13.90625 C 11.265625 -13.8125 11.421875 -13.753906 11.421875 -13.734375 L 11.421875 -9.40625 L 9.765625 -9.40625 C 8.691406 -9.40625 7.914062 -9.125 7.4375 -8.5625 C 6.957031 -8.007812 6.71875 -7.191406 6.71875 -6.109375 L 6.71875 0 L 1.5625 0 L 1.5625 -13.71875 L 5.796875 -13.71875 L 6.125 -11.640625 C 6.4375 -12.429688 6.929688 -13.03125 7.609375 -13.4375 C 8.285156 -13.84375 9.046875 -14.046875 9.890625 -14.046875 Z M 9.890625 -14.046875 "/></g></g></g><g fill="#000000" fill-opacity="1"><g transform="translate(200.642798, 64.145337)"><g><path d="M 8.640625 -14.015625 C 11.148438 -14.015625 13.066406 -13.425781 14.390625 -12.25 C 15.722656 -11.070312 16.390625 -9.273438 16.390625 -6.859375 L 16.390625 -5.96875 L 6.109375 -5.96875 C 6.109375 -4.988281 6.328125 -4.242188 6.765625 -3.734375 C 7.203125 -3.234375 7.898438 -2.984375 8.859375 -2.984375 C 9.722656 -2.984375 10.359375 -3.164062 10.765625 -3.53125 C 11.171875 -3.894531 11.375 -4.378906 11.375 -4.984375 L 16.390625 -4.984375 C 16.390625 -3.328125 15.753906 -2.03125 14.484375 -1.09375 C 13.222656 -0.15625 11.378906 0.3125 8.953125 0.3125 C 6.410156 0.3125 4.4375 -0.28125 3.03125 -1.46875 C 1.632812 -2.65625 0.9375 -4.453125 0.9375 -6.859375 C 0.9375 -9.210938 1.617188 -10.992188 2.984375 -12.203125 C 4.347656 -13.410156 6.234375 -14.015625 8.640625 -14.015625 Z M 8.859375 -10.71875 C 7.234375 -10.71875 6.320312 -9.945312 6.125 -8.40625 L 11.171875 -8.40625 C 11.171875 -9.125 10.96875 -9.6875 10.5625 -10.09375 C 10.15625 -10.507812 9.585938 -10.71875 8.859375 -10.71875 Z M 8.859375 -10.71875 "/></g></g></g><g fill="#000000" fill-opacity="1"><g transform="translate(216.485954, 64.145337)"><g><path d="M 8.078125 -14.015625 C 9.910156 -14.015625 11.460938 -13.65625 12.734375 -12.9375 C 14.003906 -12.226562 14.640625 -11.117188 14.640625 -9.609375 L 9.84375 -9.609375 C 9.84375 -10.109375 9.617188 -10.460938 9.171875 -10.671875 C 8.859375 -10.847656 8.46875 -10.9375 8 -10.9375 C 6.75 -10.9375 6.125 -10.640625 6.125 -10.046875 C 6.125 -9.722656 6.335938 -9.488281 6.765625 -9.34375 C 7.203125 -9.207031 7.914062 -9.0625 8.90625 -8.90625 C 10.113281 -8.726562 11.125 -8.523438 11.9375 -8.296875 C 12.757812 -8.066406 13.472656 -7.648438 14.078125 -7.046875 C 14.679688 -6.453125 14.984375 -5.617188 14.984375 -4.546875 C 14.984375 -2.796875 14.328125 -1.546875 13.015625 -0.796875 C 11.710938 -0.0546875 10.003906 0.3125 7.890625 0.3125 C 6.679688 0.3125 5.539062 0.144531 4.46875 -0.1875 C 3.394531 -0.53125 2.519531 -1.054688 1.84375 -1.765625 C 1.164062 -2.472656 0.828125 -3.375 0.828125 -4.46875 L 5.640625 -4.46875 L 5.640625 -4.359375 C 5.648438 -3.773438 5.894531 -3.363281 6.375 -3.125 C 6.851562 -2.894531 7.359375 -2.78125 7.890625 -2.78125 C 9.328125 -2.78125 10.046875 -3.117188 10.046875 -3.796875 C 10.046875 -4.140625 9.820312 -4.390625 9.375 -4.546875 C 8.925781 -4.703125 8.191406 -4.863281 7.171875 -5.03125 C 5.941406 -5.238281 4.929688 -5.460938 4.140625 -5.703125 C 3.347656 -5.953125 2.65625 -6.363281 2.0625 -6.9375 C 1.476562 -7.519531 1.1875 -8.332031 1.1875 -9.375 C 1.1875 -11.050781 1.820312 -12.242188 3.09375 -12.953125 C 4.375 -13.660156 6.035156 -14.015625 8.078125 -14.015625 Z M 8.078125 -14.015625 "/></g></g></g><g fill="#000000" fill-opacity="1"><g transform="translate(230.874636, 64.145337)"><g><path d="M 10.703125 -13.71875 L 10.703125 -10.203125 L 7.796875 -10.203125 L 7.796875 -4.984375 C 7.796875 -4.359375 7.894531 -3.898438 8.09375 -3.609375 C 8.300781 -3.328125 8.6875 -3.1875 9.25 -3.1875 L 10.703125 -3.1875 L 10.703125 -0.15625 C 10.285156 -0.0195312 9.75 0.0859375 9.09375 0.171875 C 8.4375 0.265625 7.863281 0.3125 7.375 0.3125 C 5.851562 0.3125 4.679688 0.0351562 3.859375 -0.515625 C 3.035156 -1.066406 2.625 -2.007812 2.625 -3.34375 L 2.625 -10.203125 L 0.703125 -10.203125 L 0.703125 -13.71875 L 2.828125 -13.71875 L 3.953125 -17.859375 L 7.796875 -17.859375 L 7.796875 -13.71875 Z M 10.703125 -13.71875 "/></g></g></g><g fill="#000000" fill-opacity="1"><g transform="translate(240.925857, 64.145337)"><g><path d="M 8.34375 -14.015625 C 10.4375 -14.015625 12.140625 -13.664062 13.453125 -12.96875 C 14.765625 -12.269531 15.421875 -11.132812 15.421875 -9.5625 L 15.421875 -4.203125 C 15.421875 -3.910156 15.488281 -3.664062 15.625 -3.46875 C 15.769531 -3.28125 15.976562 -3.1875 16.25 -3.1875 L 17.1875 -3.1875 L 17.1875 -0.203125 C 17.132812 -0.171875 17 -0.113281 16.78125 -0.03125 C 16.570312 0.0390625 16.265625 0.113281 15.859375 0.1875 C 15.460938 0.269531 15.003906 0.3125 14.484375 0.3125 C 13.484375 0.3125 12.65625 0.160156 12 -0.140625 C 11.351562 -0.441406 10.910156 -0.863281 10.671875 -1.40625 C 10.015625 -0.882812 9.28125 -0.46875 8.46875 -0.15625 C 7.65625 0.15625 6.703125 0.3125 5.609375 0.3125 C 2.390625 0.3125 0.78125 -0.96875 0.78125 -3.53125 C 0.78125 -4.863281 1.140625 -5.878906 1.859375 -6.578125 C 2.578125 -7.285156 3.609375 -7.765625 4.953125 -8.015625 C 6.304688 -8.273438 8.070312 -8.40625 10.25 -8.40625 L 10.25 -9.09375 C 10.25 -9.625 10.0625 -10.023438 9.6875 -10.296875 C 9.320312 -10.578125 8.847656 -10.71875 8.265625 -10.71875 C 7.722656 -10.71875 7.253906 -10.625 6.859375 -10.4375 C 6.472656 -10.25 6.28125 -9.945312 6.28125 -9.53125 L 6.28125 -9.421875 L 1.1875 -9.421875 C 1.175781 -9.515625 1.171875 -9.640625 1.171875 -9.796875 C 1.171875 -11.085938 1.785156 -12.113281 3.015625 -12.875 C 4.253906 -13.632812 6.03125 -14.015625 8.34375 -14.015625 Z M 10.25 -5.96875 C 8.78125 -5.96875 7.695312 -5.804688 7 -5.484375 C 6.300781 -5.171875 5.953125 -4.742188 5.953125 -4.203125 C 5.953125 -3.335938 6.539062 -2.90625 7.71875 -2.90625 C 8.382812 -2.90625 8.972656 -3.085938 9.484375 -3.453125 C 9.992188 -3.816406 10.25 -4.265625 10.25 -4.796875 Z M 10.25 -5.96875 "/></g></g></g><g fill="#000000" fill-opacity="1"><g transform="translate(256.769013, 64.145337)"><g><path d="M 11.53125 0 L 11.09375 -1.953125 C 10.082031 -0.441406 8.625 0.3125 6.71875 0.3125 C 4.875 0.3125 3.445312 -0.289062 2.4375 -1.5 C 1.4375 -2.71875 0.9375 -4.507812 0.9375 -6.875 C 0.9375 -9.226562 1.4375 -11.003906 2.4375 -12.203125 C 3.445312 -13.410156 4.875 -14.015625 6.71875 -14.015625 C 8.300781 -14.015625 9.582031 -13.488281 10.5625 -12.4375 L 10.5625 -18.828125 L 15.734375 -18.828125 L 15.734375 0 Z M 8.34375 -10.203125 C 6.851562 -10.203125 6.109375 -9.3125 6.109375 -7.53125 L 6.109375 -6.15625 C 6.109375 -4.382812 6.851562 -3.5 8.34375 -3.5 C 9.101562 -3.5 9.671875 -3.765625 10.046875 -4.296875 C 10.429688 -4.835938 10.625 -5.546875 10.625 -6.421875 L 10.625 -7.265625 C 10.625 -8.128906 10.429688 -8.832031 10.046875 -9.375 C 9.671875 -9.925781 9.101562 -10.203125 8.34375 -10.203125 Z M 8.34375 -10.203125 "/></g></g></g><g fill="#000000" fill-opacity="1"><g transform="translate(272.612169, 64.145337)"><g><path d="M 8.640625 -14.015625 C 11.046875 -14.015625 12.9375 -13.40625 14.3125 -12.1875 C 15.695312 -10.96875 16.390625 -9.191406 16.390625 -6.859375 C 16.390625 -4.515625 15.695312 -2.734375 14.3125 -1.515625 C 12.9375 -0.296875 11.046875 0.3125 8.640625 0.3125 C 6.234375 0.3125 4.347656 -0.289062 2.984375 -1.5 C 1.617188 -2.71875 0.9375 -4.503906 0.9375 -6.859375 C 0.9375 -9.210938 1.617188 -10.992188 2.984375 -12.203125 C 4.347656 -13.410156 6.234375 -14.015625 8.640625 -14.015625 Z M 8.640625 -10.515625 C 6.953125 -10.515625 6.109375 -9.535156 6.109375 -7.578125 L 6.109375 -6.109375 C 6.109375 -4.160156 6.953125 -3.1875 8.640625 -3.1875 C 10.359375 -3.1875 11.21875 -4.160156 11.21875 -6.109375 L 11.21875 -7.578125 C 11.21875 -9.535156 10.359375 -10.515625 8.640625 -10.515625 Z M 8.640625 -10.515625 "/></g></g></g></svg>